SplineFontDB: 3.2
MMCounts: 1 1 1 4
MMAxis: Weight
MMPositions: 1
MMWeights: 0
MMAxisMap: 0 3 -1=>400 0=>400 1=>700
MMNamedInstance: 0  400
MMNamedInstance: 1  500
MMNamedInstance: 2  600
MMNamedInstance: 3  700
BeginMMFonts: 2 829
FontName: Afacad_700.0wt
FullName: Afacad_ 700.0wt
FamilyName: Afacad
Weight: All
ItalicAngle: 0
UnderlinePosition: -180
UnderlineWidth: 90
Ascent: 1152
Descent: 288
InvalidEm: 0
LayerCount: 2
Layer: 0 1 "Back" 1
Layer: 1 1 "Fore" 0
OS2Version: 0
OS2_WeightWidthSlopeOnly: 0
OS2_UseTypoMetrics: 0
CreationTime: 1731353866
ModificationTime: 1731356226
OS2TypoAscent: 0
OS2TypoAOffset: 1
OS2TypoDescent: 0
OS2TypoDOffset: 1
OS2TypoLinegap: 0
OS2WinAscent: 0
OS2WinAOffset: 1
OS2WinDescent: 0
OS2WinDOffset: 1
HheadAscent: 0
HheadAOffset: 1
HheadDescent: 0
HheadDOffset: 1
OS2Vendor: 'PfEd'
DEI: 91125
Encoding: UnicodeBmp
UnicodeInterp: none
NameList: AGL For New Fonts
DisplaySize: -48
AntiAlias: 1
FitToEm: 0
WinInfo: 36 36 13
BeginChars: 65697 829

StartChar: .notdef
Encoding: 65536 -1 0
Width: 720
GlyphClass: 1
Flags: W
LayerCount: 2
Fore
SplineSet
96 -300 m 1,0,-1
 96 960 l 129,-1,-1
 624 960 l 129,-1,-1
 624 -300 l 129,-1,-1
 96 -300 l 1,0,-1
EndSplineSet
EndChar

StartChar: A
Encoding: 65 65 14
Width: 820
GlyphClass: 1
Flags: W
LayerCount: 2
Fore
SplineSet
12 0 m 1,0,1
 208.5 465 208.5 465 409 932 c 1,2,3
 400 930 400 930 411 932 c 1,4,5
 591.5 465 591.5 465 808 0 c 1,6,7
 721.5 0 721.5 0 627 0 c 1,8,9
 608 133.5 608 133.5 560 160 c 1,10,11
 397.5 267 397.5 267 254 160 c 1,12,13
 186.5 133.5 186.5 133.5 187 0 c 1,14,15
 75.5 0 75.5 0 12 0 c 1,0,1
314 304 m 1,16,17
 397.5 362 397.5 362 500 304 c 1,18,19
 481.5 451 481.5 451 461 396 c 2,20,21
 445 433 445 433 431.5 467.5 c 128,-1,22
 418 502 418 502 406 548 c 1,23,24
 395 503 395 503 382 468 c 128,-1,25
 369 433 369 433 353 396 c 2,26,27
 313.5 451 313.5 451 314 304 c 1,16,17
EndSplineSet
EndChar

StartChar: Aogonek
Encoding: 260 260 35
Width: 820
GlyphClass: 1
Flags: W
LayerCount: 2
Fore
SplineSet
736 -318 m 1,0,1
 649 -318 649 -318 592 -278 c 128,-1,2
 535 -238 535 -238 535 -153 c 0,3,4
 535 -120 535 -120 549 -77.5 c 128,-1,5
 563 -35 563 -35 614 31 c 1,6,7
 602.5 147 602.5 147 560 160 c 1,8,9
 397.5 267 397.5 267 254 160 c 1,10,11
 186.5 133.5 186.5 133.5 187 0 c 1,12,13
 75.5 0 75.5 0 12 0 c 1,14,15
 208.5 465 208.5 465 409 932 c 1,16,17
 400 930 400 930 411 932 c 1,18,19
 591.5 465 591.5 465 808 0 c 1,20,21
 756.5 0 756.5 0 745 0 c 1,22,23
 719 -29 719 -29 702 -56.5 c 128,-1,24
 685 -84 685 -84 685 -116 c 0,25,26
 685 -153 685 -153 708.5 -171 c 128,-1,27
 732 -189 732 -189 766 -190 c 1,28,29
 747 -265.5 747 -265.5 736 -318 c 1,0,1
314 304 m 1,30,31
 397.5 362 397.5 362 500 304 c 1,32,33
 481.5 451 481.5 451 461 396 c 2,34,35
 445 433 445 433 431.5 467.5 c 128,-1,36
 418 502 418 502 406 548 c 1,37,38
 395 503 395 503 382 468 c 128,-1,39
 369 433 369 433 353 396 c 2,40,41
 313.5 451 313.5 451 314 304 c 1,30,31
EndSplineSet
EndChar

StartChar: Aring
Encoding: 197 197 36
Width: 820
GlyphClass: 1
Flags: W
LayerCount: 2
Fore
SplineSet
12 0 m 1,0,1
 190.5 419 190.5 419 360 817 c 1,2,3
 308 832 308 832 273.5 876 c 128,-1,4
 239 920 239 920 239 978 c 0,5,6
 239 1049 239 1049 289 1097.5 c 128,-1,7
 339 1146 339 1146 410 1146 c 0,8,9
 457 1146 457 1146 496 1124 c 128,-1,10
 535 1102 535 1102 558 1064 c 128,-1,11
 581 1026 581 1026 581 978 c 0,12,13
 581 920 581 920 547 876 c 128,-1,14
 513 832 513 832 460 817 c 1,15,16
 609.5 419 609.5 419 808 0 c 1,17,18
 721.5 0 721.5 0 627 0 c 1,19,20
 608 133.5 608 133.5 560 160 c 1,21,22
 397.5 267 397.5 267 254 160 c 1,23,24
 186.5 133.5 186.5 133.5 187 0 c 1,25,26
 75.5 0 75.5 0 12 0 c 1,0,1
314 304 m 1,27,28
 397.5 362 397.5 362 500 304 c 1,29,30
 481.5 451 481.5 451 461 396 c 2,31,32
 445 433 445 433 431.5 467.5 c 128,-1,33
 418 502 418 502 406 548 c 1,34,35
 395 503 395 503 382 468 c 128,-1,36
 369 433 369 433 353 396 c 2,37,38
 313.5 451 313.5 451 314 304 c 1,27,28
410 909 m 256,39,40
 438 909 438 909 458.5 929.5 c 128,-1,41
 479 950 479 950 479 978 c 384,-1,42
 479 1006 479 1006 458.5 1026.5 c 128,-1,43
 438 1047 438 1047 410 1047 c 384,-1,44
 382 1047 382 1047 361.5 1026.5 c 128,-1,45
 341 1006 341 1006 341 978 c 384,-1,46
 341 950 341 950 361.5 929.5 c 128,-1,47
 382 909 382 909 410 909 c 256,39,40
EndSplineSet
EndChar

StartChar: Aringacute
Encoding: 506 506 37
Width: 820
GlyphClass: 1
Flags: W
LayerCount: 2
Fore
SplineSet
12 0 m 1,0,1
 190.5 419 190.5 419 360 817 c 1,2,3
 308 832 308 832 273.5 876 c 128,-1,4
 239 920 239 920 239 978 c 0,5,6
 239 1049 239 1049 289 1097.5 c 128,-1,7
 339 1146 339 1146 410 1146 c 0,8,9
 457 1146 457 1146 496 1124 c 128,-1,10
 535 1102 535 1102 558 1064 c 128,-1,11
 581 1026 581 1026 581 978 c 0,12,13
 581 920 581 920 547 876 c 128,-1,14
 513 832 513 832 460 817 c 1,15,16
 609.5 419 609.5 419 808 0 c 1,17,18
 721.5 0 721.5 0 627 0 c 1,19,20
 608 133.5 608 133.5 560 160 c 1,21,22
 397.5 267 397.5 267 254 160 c 1,23,24
 186.5 133.5 186.5 133.5 187 0 c 1,25,26
 75.5 0 75.5 0 12 0 c 1,0,1
314 304 m 1,27,28
 397.5 362 397.5 362 500 304 c 1,29,30
 481.5 451 481.5 451 461 396 c 2,31,32
 445 433 445 433 431.5 467.5 c 128,-1,33
 418 502 418 502 406 548 c 1,34,35
 395 503 395 503 382 468 c 128,-1,36
 369 433 369 433 353 396 c 2,37,38
 313.5 451 313.5 451 314 304 c 1,27,28
410 909 m 256,39,40
 438 909 438 909 458.5 929.5 c 128,-1,41
 479 950 479 950 479 978 c 384,-1,42
 479 1006 479 1006 458.5 1026.5 c 128,-1,43
 438 1047 438 1047 410 1047 c 384,-1,44
 382 1047 382 1047 361.5 1026.5 c 128,-1,45
 341 1006 341 1006 341 978 c 384,-1,46
 341 950 341 950 361.5 929.5 c 128,-1,47
 382 909 382 909 410 909 c 256,39,40
350 1206 m 1,48,49
 392 1261.5 392 1261.5 407 1341 c 1,50,51
 472.5 1317 472.5 1317 564 1341 c 1,52,53
 486.5 1261.5 486.5 1261.5 476 1206 c 1,54,55
 406 1206 406 1206 350 1206 c 1,48,49
EndSplineSet
EndChar

StartChar: AE
Encoding: 198 198 39
Width: 1040
GlyphClass: 1
Flags: W
LayerCount: 2
Fore
SplineSet
12 0 m 1,0,1
 203 450 203 450 396 900 c 1,2,3
 587 900 587 900 812 900 c 1,4,5
 786 849 786 849 812 744 c 1,6,7
 641.5 798 641.5 798 545 744 c 1,8,9
 526.5 702 526.5 702 592 606 c 1,10,11
 686 606 686 606 842 606 c 1,12,13
 816 555 816 555 842 456 c 1,14,15
 701.5 504 701.5 504 644 456 c 1,16,17
 648.5 303 648.5 303 745 162 c 1,18,19
 850 102 850 102 1016 162 c 1,20,21
 990 51 990 51 1016 0 c 1,22,-1
 627 0 l 129,-1,-1
 572 160 l 1,23,24
 392.5 267 392.5 267 254 160 c 1,25,26
 186.5 133.5 186.5 133.5 187 0 c 1,27,28
 75.5 0 75.5 0 12 0 c 1,0,1
314 304 m 1,29,30
 397 362 397 362 522 304 c 1,31,32
 489 451 489 451 490 396 c 2,33,34
 474 441 474 441 458 489 c 128,-1,35
 442 537 442 537 428 597 c 1,36,37
 411 537 411 537 391.5 489 c 128,-1,38
 372 441 372 441 353 396 c 2,39,40
 313.5 451 313.5 451 314 304 c 1,29,30
EndSplineSet
EndChar

StartChar: B
Encoding: 66 66 41
Width: 750
GlyphClass: 1
Flags: W
LayerCount: 2
Fore
SplineSet
126 0 m 1,0,-1
 96 900 l 129,-1,-1
 378 900 l 2,1,2
 468 900 468 900 521.5 865.5 c 128,-1,3
 575 831 575 831 598 782.5 c 128,-1,4
 621 734 621 734 621 690 c 0,5,6
 621 651 621 651 606 616.5 c 128,-1,7
 591 582 591 582 564 556 c 1,8,9
 626 517 626 517 664 452.5 c 128,-1,10
 702 388 702 388 702 309 c 0,11,12
 690 216 690 216 658 153 c 128,-1,13
 626 90 626 90 553 45 c 128,-1,14
 480 0 480 0 366 0 c 2,15,-1
 126 0 l 1,0,-1
270 162 m 1,16,-1
 348 162 l 2,17,18
 444 102 444 102 462.5 155.5 c 128,-1,19
 481 209 481 209 528.5 228.5 c 128,-1,20
 576 248 576 248 576 291 c 0,21,22
 514 349 514 349 525 385 c 128,-1,23
 536 421 536 421 491 450.5 c 128,-1,24
 446 480 446 480 348 468 c 2,25,-1
 240 480 l 129,-1,-1
 270 162 l 1,16,-1
270 594 m 1,26,-1
 348 594 l 2,27,28
 428 576 428 576 440.5 607 c 128,-1,29
 453 638 453 638 501 686 c 0,30,31
 453 724 453 724 441 761 c 128,-1,32
 429 798 429 798 352 768 c 2,33,-1
 240 798 l 129,-1,-1
 270 594 l 1,26,-1
EndSplineSet
EndChar

StartChar: C
Encoding: 67 67 42
Width: 870
GlyphClass: 1
Flags: W
LayerCount: 2
Fore
SplineSet
530 -18 m 0,0,1
 431 -18 431 -18 345 18.5 c 0,2,3
 259 55 259 55 193.5 119 c 0,4,5
 128 183 128 183 91 268 c 128,-1,6
 54 353 54 353 54 450 c 384,-1,7
 54 547 54 547 91 632 c 0,8,9
 128 717 128 717 193.5 781 c 128,-1,10
 259 845 259 845 345 881.5 c 128,-1,11
 431 918 431 918 530 918 c 0,12,13
 619 918 619 918 698 889 c 0,14,15
 777 860 777 860 839 807 c 1,16,17
 841.5 716 841.5 716 788 597 c 1,18,19
 751 659 751 659 686 701.5 c 128,-1,20
 621 744 621 744 536 744 c 0,21,22
 455 744 455 744 389.5 704.5 c 128,-1,23
 324 665 324 665 286 598.5 c 128,-1,24
 248 532 248 532 248 450 c 0,25,26
 248 369 248 369 286 302 c 128,-1,27
 324 235 324 235 389.5 195.5 c 128,-1,28
 455 156 455 156 536 156 c 0,29,30
 620 156 620 156 685.5 198.5 c 128,-1,31
 751 241 751 241 788 303 c 1,32,33
 841.5 184 841.5 184 839 93 c 1,34,35
 776 41 776 41 697.5 11.5 c 0,36,37
 619 -18 619 -18 530 -18 c 0,0,1
EndSplineSet
EndChar

StartChar: Ccedilla
Encoding: 199 199 45
Width: 870
GlyphClass: 1
Flags: W
LayerCount: 2
Fore
SplineSet
256 -192 m 1,0,1
 380.5 -96.5 380.5 -96.5 444 -10 c 1,2,3
 333 10 333 10 245 75 c 128,-1,4
 157 140 157 140 105.5 237.5 c 128,-1,5
 54 335 54 335 54 450 c 0,6,7
 54 547 54 547 91 632 c 128,-1,8
 128 717 128 717 193.5 781 c 128,-1,9
 259 845 259 845 345 881.5 c 128,-1,10
 431 918 431 918 530 918 c 0,11,12
 619 918 619 918 698 889 c 128,-1,13
 777 860 777 860 839 807 c 1,14,15
 841.5 716 841.5 716 788 597 c 1,16,17
 751 659 751 659 686 701.5 c 128,-1,18
 621 744 621 744 536 744 c 0,19,20
 455 744 455 744 389.5 704.5 c 128,-1,21
 324 665 324 665 286 598.5 c 128,-1,22
 248 532 248 532 248 450 c 0,23,24
 248 369 248 369 286 302 c 128,-1,25
 324 235 324 235 389.5 195.5 c 128,-1,26
 455 156 455 156 536 156 c 0,27,28
 620 156 620 156 685.5 198.5 c 128,-1,29
 751 241 751 241 788 303 c 1,30,31
 841.5 184 841.5 184 839 93 c 1,32,33
 788 51 788 51 726.5 23.5 c 128,-1,34
 665 -4 665 -4 595 -14 c 1,35,36
 506 -98 506 -98 471 -192 c 1,37,38
 369.5 -180 369.5 -180 256 -192 c 1,0,1
EndSplineSet
EndChar

StartChar: D
Encoding: 68 68 48
Width: 940
GlyphClass: 1
Flags: W
LayerCount: 2
Fore
SplineSet
96 0 m 1,0,1
 126 450 126 450 96 900 c 1,2,3
 273.5 900 273.5 900 402 900 c 2,4,5
 510 900 510 900 598.5 865 c 128,-1,6
 687 830 687 830 751.5 768.5 c 128,-1,7
 816 707 816 707 851 625 c 128,-1,8
 886 543 886 543 886 450 c 384,-1,9
 886 357 886 357 851 275 c 128,-1,10
 816 193 816 193 751.5 131.5 c 128,-1,11
 687 70 687 70 598.5 35 c 128,-1,12
 510 0 510 0 402 0 c 2,13,14
 273.5 0 273.5 0 96 0 c 1,0,1
270 162 m 1,15,16
 324.5 102 324.5 102 386 162 c 2,17,18
 462 162 462 162 520 184.5 c 128,-1,19
 578 207 578 207 617.5 246.5 c 128,-1,20
 657 286 657 286 677.5 338 c 128,-1,21
 698 390 698 390 698 450 c 384,-1,22
 698 510 698 510 677.5 562.5 c 128,-1,23
 657 615 657 615 617.5 654.5 c 128,-1,24
 578 694 578 694 520 716 c 128,-1,25
 462 738 462 738 386 738 c 2,26,27
 324.5 798 324.5 798 270 738 c 1,28,29
 240 450 240 450 270 162 c 1,15,16
EndSplineSet
EndChar

StartChar: Eth
Encoding: 208 208 50
Width: 940
GlyphClass: 1
Flags: W
LayerCount: 2
Fore
SplineSet
96 0 m 1,0,1
 126 219 126 219 96 417 c 1,2,3
 78 438 78 438 10 417 c 1,4,5
 30 480 30 480 10 543 c 1,6,7
 78 522 78 522 96 543 c 1,8,9
 126 711 126 711 96 900 c 1,10,11
 273.5 900 273.5 900 402 900 c 2,12,13
 510 900 510 900 598.5 865 c 128,-1,14
 687 830 687 830 751.5 768.5 c 128,-1,15
 816 707 816 707 851 625 c 128,-1,16
 886 543 886 543 886 450 c 384,-1,17
 886 357 886 357 851 275 c 128,-1,18
 816 193 816 193 751.5 131.5 c 128,-1,19
 687 70 687 70 598.5 35 c 128,-1,20
 510 0 510 0 402 0 c 2,21,22
 273.5 0 273.5 0 96 0 c 1,0,1
270 162 m 1,23,24
 324.5 102 324.5 102 386 162 c 2,25,26
 462 162 462 162 520 184.5 c 128,-1,27
 578 207 578 207 617.5 246.5 c 128,-1,28
 657 286 657 286 677.5 338 c 128,-1,29
 698 390 698 390 698 450 c 384,-1,30
 698 510 698 510 677.5 562.5 c 128,-1,31
 657 615 657 615 617.5 654.5 c 128,-1,32
 578 694 578 694 520 716 c 128,-1,33
 462 738 462 738 386 738 c 2,34,35
 324.5 798 324.5 798 270 738 c 1,36,37
 240 660 240 660 270 543 c 1,38,39
 375 522 375 522 490 543 c 1,40,41
 510 480 510 480 490 417 c 1,42,43
 375 438 375 438 270 417 c 1,44,45
 240 270 240 270 270 162 c 1,23,24
EndSplineSet
EndChar

StartChar: E
Encoding: 69 69 54
Width: 630
GlyphClass: 1
Flags: W
LayerCount: 2
Fore
SplineSet
126 0 m 1,0,-1
 96 900 l 129,-1,-1
 570 900 l 129,-1,-1
 576 744 l 129,-1,-1
 240 798 l 129,-1,-1
 270 606 l 129,-1,-1
 500 606 l 129,-1,-1
 506 456 l 129,-1,-1
 240 504 l 129,-1,-1
 270 162 l 129,-1,-1
 570 102 l 129,-1,-1
 576 0 l 129,-1,-1
 126 0 l 1,0,-1
EndSplineSet
EndChar

StartChar: Eogonek
Encoding: 280 280 72
Width: 630
GlyphClass: 1
Flags: W
LayerCount: 2
Fore
SplineSet
575 -312 m 1,0,1
 481 -318 481 -318 424 -278 c 128,-1,2
 367 -238 367 -238 367 -153 c 0,3,4
 410 -113 410 -113 426 -75 c 128,-1,5
 442 -37 442 -37 470 0 c 1,6,-1
 126 0 l 129,-1,-1
 96 900 l 129,-1,-1
 570 900 l 129,-1,-1
 576 744 l 129,-1,-1
 240 798 l 129,-1,-1
 270 606 l 129,-1,-1
 500 606 l 129,-1,-1
 506 456 l 129,-1,-1
 240 504 l 129,-1,-1
 270 162 l 129,-1,-1
 570 102 l 129,-1,-1
 576 0 l 1,7,8
 551 -29 551 -29 534 -56.5 c 128,-1,9
 517 -84 517 -84 517 -116 c 0,10,11
 517 -153 517 -153 540.5 -171 c 128,-1,12
 564 -189 564 -189 598 -190 c 1,13,-1
 575 -312 l 1,0,1
EndSplineSet
EndChar

StartChar: uni018F
Encoding: 399 399 74
Width: 1050
GlyphClass: 1
Flags: W
LayerCount: 2
Fore
SplineSet
520 -18 m 0,0,1
 421 -18 421 -18 335 18.5 c 128,-1,2
 249 55 249 55 183.5 119 c 128,-1,3
 118 183 118 183 81 268 c 128,-1,4
 44 353 44 353 44 450 c 2,5,6
 54 482.5 54 482.5 44 534 c 1,7,8
 404 510 404 510 694 534 c 2,9,10
 722 534 722 534 749.5 532 c 128,-1,11
 777 530 777 530 805 525 c 1,12,13
 789 590 789 590 748 640 c 128,-1,14
 707 690 707 690 648.5 719 c 128,-1,15
 590 748 590 748 520 748 c 0,16,17
 429 748 429 748 362 705.5 c 128,-1,18
 295 663 295 663 257 601 c 1,19,20
 208.5 716 208.5 716 206 807 c 1,21,22
 268 860 268 860 348 889 c 128,-1,23
 428 918 428 918 520 918 c 0,24,25
 619 918 619 918 705 881.5 c 128,-1,26
 791 845 791 845 856.5 781 c 128,-1,27
 922 717 922 717 959 632 c 128,-1,28
 996 547 996 547 996 450 c 384,-1,29
 996 353 996 353 959 268 c 128,-1,30
 922 183 922 183 856.5 119 c 128,-1,31
 791 55 791 55 705 18.5 c 128,-1,32
 619 -18 619 -18 520 -18 c 0,0,1
520 150 m 0,33,34
 593 150 593 150 653.5 182 c 128,-1,35
 714 214 714 214 755 269.5 c 128,-1,36
 796 325 796 325 809 394 c 1,37,38
 781 390 781 390 752 387 c 128,-1,39
 723 384 723 384 694 384 c 2,40,41
 464 408 464 408 233 384 c 1,42,43
 248 317 248 317 288.5 264 c 128,-1,44
 329 211 329 211 389 180.5 c 128,-1,45
 449 150 449 150 520 150 c 0,33,34
EndSplineSet
EndChar

StartChar: uni01B7
Encoding: 439 439 75
Width: 660
GlyphClass: 1
Flags: W
LayerCount: 2
Fore
SplineSet
296 -20 m 256,0,1
 208 -20 208 -20 135 19.5 c 128,-1,2
 62 59 62 59 20 123 c 1,3,4
 64 208 64 208 112 306 c 1,5,6
 126 239 126 239 176.5 190.5 c 128,-1,7
 227 142 227 142 298 142 c 0,8,9
 344 142 344 142 380.5 163 c 128,-1,10
 417 184 417 184 438.5 220 c 128,-1,11
 460 256 460 256 460 301 c 0,12,13
 460 345 460 345 439.5 380.5 c 128,-1,14
 419 416 419 416 381.5 437 c 128,-1,15
 344 458 344 458 294 458 c 0,16,17
 264 458 264 458 237 450.5 c 128,-1,18
 210 443 210 443 182 428 c 1,19,20
 291 639.5 291 639.5 343 744 c 1,21,22
 228.5 798 228.5 798 72 744 c 1,23,24
 84 849 84 849 72 900 c 1,25,26
 314.5 900 314.5 900 600 900 c 1,27,28
 463.5 747.5 463.5 747.5 432 586 c 1,29,30
 489 565 489 565 533.5 522.5 c 128,-1,31
 578 480 578 480 604 423 c 128,-1,32
 630 366 630 366 630 299 c 0,33,34
 630 209 630 209 584 136.5 c 128,-1,35
 538 64 538 64 462 22 c 128,-1,36
 386 -20 386 -20 296 -20 c 256,0,1
EndSplineSet
EndChar

StartChar: F
Encoding: 70 70 77
Width: 600
GlyphClass: 1
Flags: W
LayerCount: 2
Fore
SplineSet
126 0 m 1,0,-1
 96 900 l 129,-1,-1
 570 900 l 129,-1,-1
 576 750 l 129,-1,-1
 240 798 l 129,-1,-1
 270 606 l 129,-1,-1
 540 606 l 129,-1,-1
 546 456 l 129,-1,-1
 240 504 l 129,-1,-1
 270 0 l 129,-1,-1
 126 0 l 1,0,-1
EndSplineSet
EndChar

StartChar: G
Encoding: 71 71 78
Width: 920
GlyphClass: 1
Flags: W
LayerCount: 2
Fore
SplineSet
540 -18 m 0,0,1
 438 -18 438 -18 349.5 16.5 c 0,2,3
 261 51 261 51 194.5 114 c 0,4,5
 128 177 128 177 91 262 c 128,-1,6
 54 347 54 347 54 448 c 384,-1,7
 54 549 54 549 91 634.5 c 0,8,9
 128 720 128 720 194.5 783.5 c 128,-1,10
 261 847 261 847 348.5 882.5 c 128,-1,11
 436 918 436 918 538 918 c 0,12,13
 630 918 630 918 710 889 c 128,-1,14
 790 860 790 860 852 807 c 1,15,16
 841.5 716 841.5 716 801 601 c 1,17,18
 763 663 763 663 696.5 705.5 c 128,-1,19
 630 748 630 748 538 748 c 0,20,21
 453 748 453 748 386 709 c 128,-1,22
 319 670 319 670 280.5 602 c 0,23,24
 242 534 242 534 242 448 c 0,25,26
 242 360 242 360 280.5 292.5 c 0,27,28
 319 225 319 225 386 186.5 c 128,-1,29
 453 148 453 148 537 148 c 0,30,31
 578 148 578 148 613 156 c 128,-1,32
 648 164 648 164 676 180 c 1,33,34
 728 260 728 260 676 354 c 1,35,36
 604 378 604 378 493 354 c 1,37,38
 480 429 480 429 493 504 c 1,39,40
 659 480 659 480 840 504 c 1,41,42
 838 282 838 282 840 67 c 1,43,44
 778 27 778 27 701.5 4.5 c 0,45,46
 625 -18 625 -18 540 -18 c 0,0,1
EndSplineSet
EndChar

StartChar: uni01E4
Encoding: 484 484 84
Width: 920
GlyphClass: 1
Flags: W
LayerCount: 2
Fore
SplineSet
540 -18 m 0,0,1
 438 -18 438 -18 349.5 16.5 c 128,-1,2
 261 51 261 51 194.5 114 c 128,-1,3
 128 177 128 177 91 262 c 128,-1,4
 54 347 54 347 54 448 c 384,-1,5
 54 549 54 549 91 634.5 c 128,-1,6
 128 720 128 720 194.5 783.5 c 128,-1,7
 261 847 261 847 348.5 882.5 c 128,-1,8
 436 918 436 918 538 918 c 0,9,10
 630 918 630 918 710 889 c 128,-1,11
 790 860 790 860 852 807 c 1,12,13
 841.5 716 841.5 716 801 601 c 1,14,15
 763 663 763 663 696.5 705.5 c 128,-1,16
 630 748 630 748 538 748 c 0,17,18
 453 748 453 748 386 709 c 128,-1,19
 319 670 319 670 280.5 602 c 128,-1,20
 242 534 242 534 242 448 c 0,21,22
 242 360 242 360 280.5 292.5 c 128,-1,23
 319 225 319 225 386 186.5 c 128,-1,24
 453 148 453 148 537 148 c 0,25,26
 578 148 578 148 613 156 c 128,-1,27
 648 164 648 164 676 180 c 1,28,29
 728 230 728 230 676 309 c 1,30,31
 609 318 609 318 490 309 c 1,32,33
 490 360 490 360 490 435 c 1,34,35
 609 402 609 402 676 435 c 1,36,37
 728 471 728 471 676 540 c 1,38,39
 783 540 783 540 840 540 c 1,40,41
 838 471 838 471 840 435 c 1,42,43
 874 402 874 402 910 435 c 1,44,45
 910 360 910 360 910 309 c 1,46,47
 874 318 874 318 840 309 c 1,48,49
 838 201 838 201 840 67 c 1,50,51
 778 27 778 27 701.5 4.5 c 128,-1,52
 625 -18 625 -18 540 -18 c 0,0,1
EndSplineSet
EndChar

StartChar: H
Encoding: 72 72 85
Width: 800
GlyphClass: 1
Flags: W
LayerCount: 2
Fore
SplineSet
126 0 m 1,0,-1
 96 900 l 129,-1,-1
 240 900 l 129,-1,-1
 270 612 l 129,-1,-1
 560 606 l 129,-1,-1
 530 900 l 129,-1,-1
 674 900 l 129,-1,-1
 704 0 l 129,-1,-1
 560 0 l 129,-1,-1
 530 450 l 129,-1,-1
 240 504 l 129,-1,-1
 270 0 l 129,-1,-1
 126 0 l 1,0,-1
EndSplineSet
EndChar

StartChar: Hbar
Encoding: 294 294 86
Width: 800
GlyphClass: 1
Flags: W
LayerCount: 2
Fore
SplineSet
126 0 m 1,0,-1
 96 666 l 129,-1,-1
 30 678 l 129,-1,-1
 30 774 l 129,-1,-1
 126 762 l 129,-1,-1
 96 900 l 129,-1,-1
 240 900 l 129,-1,-1
 270 774 l 129,-1,-1
 560 762 l 129,-1,-1
 530 900 l 129,-1,-1
 674 900 l 129,-1,-1
 704 774 l 129,-1,-1
 770 762 l 129,-1,-1
 770 666 l 129,-1,-1
 674 678 l 129,-1,-1
 704 0 l 129,-1,-1
 560 0 l 129,-1,-1
 530 414 l 129,-1,-1
 240 444 l 129,-1,-1
 270 0 l 129,-1,-1
 126 0 l 1,0,-1
240 546 m 1,1,-1
 530 576 l 129,-1,-1
 560 678 l 129,-1,-1
 270 666 l 129,-1,-1
 240 546 l 1,1,-1
EndSplineSet
EndChar

StartChar: I
Encoding: 73 73 88
Width: 390
GlyphClass: 1
Flags: W
LayerCount: 2
Fore
SplineSet
102 0 m 1,0,1
 138 450 138 450 102 900 c 1,2,3
 195 900 195 900 288 900 c 1,4,5
 252 450 252 450 288 0 c 1,6,7
 195 0 195 0 102 0 c 1,0,1
EndSplineSet
EndChar

StartChar: Iogonek
Encoding: 302 302 101
Width: 390
GlyphClass: 1
Flags: W
LayerCount: 2
Fore
SplineSet
255 -318 m 1,0,1
 168 -318 168 -318 111 -278 c 128,-1,2
 54 -238 54 -238 54 -153 c 0,3,4
 54 -113 54 -113 66 -75 c 128,-1,5
 78 -37 78 -37 102 0 c 1,6,7
 138 450 138 450 102 900 c 1,8,9
 195 900 195 900 288 900 c 1,10,11
 252 450 252 450 288 0 c 1,12,13
 251 -22 251 -22 227.5 -53 c 128,-1,14
 204 -84 204 -84 204 -116 c 0,15,16
 204 -153 204 -153 227.5 -171 c 128,-1,17
 251 -189 251 -189 285 -190 c 1,18,19
 261 -265.5 261 -265.5 255 -318 c 1,0,1
EndSplineSet
EndChar

StartChar: J
Encoding: 74 74 103
Width: 560
GlyphClass: 1
Flags: W
LayerCount: 2
Fore
SplineSet
199 -20 m 0,0,1
 147 -20 147 -20 96.5 -4 c 0,2,3
 46 12 46 12 12 46 c 1,4,5
 28.5 114 28.5 114 59 214 c 1,6,7
 79 184 79 184 110 166 c 0,8,9
 141 148 141 148 180 148 c 0,10,11
 227 148 227 148 258.5 179 c 128,-1,12
 290 210 290 210 290 283 c 2,13,14
 318 578 318 578 290 900 c 1,15,16
 375 900 375 900 476 900 c 1,17,18
 432 573.5 432 573.5 476 270 c 2,19,20
 476 170 476 170 437 105.5 c 128,-1,21
 398 41 398 41 334.5 10.5 c 0,22,23
 271 -20 271 -20 199 -20 c 0,0,1
EndSplineSet
EndChar

StartChar: K
Encoding: 75 75 106
Width: 800
GlyphClass: 1
Flags: W
LayerCount: 2
Fore
SplineSet
595 0 m 1,0,1
 443.5 277.5 443.5 277.5 267 555 c 1,2,3
 406 727.5 406 727.5 516 900 c 1,4,5
 627 900 627 900 722 900 c 1,6,7
 541 728 541 728 472 558 c 1,8,9
 581 278 581 278 806 0 c 1,10,11
 704.5 0 704.5 0 595 0 c 1,0,1
96 0 m 1,12,13
 126 450 126 450 96 900 c 1,14,15
 183 900 183 900 276 900 c 1,16,17
 240 450 240 450 276 0 c 1,18,19
 183 0 183 0 96 0 c 1,12,13
EndSplineSet
EndChar

StartChar: L
Encoding: 76 76 109
Width: 600
GlyphClass: 1
Flags: W
LayerCount: 2
Fore
SplineSet
96 0 m 1,0,1
 126 450 126 450 96 900 c 1,2,3
 183 900 183 900 282 900 c 1,4,5
 240 501 240 501 282 162 c 1,6,7
 396 102 396 102 552 162 c 1,8,-1
 552 0 l 129,-1,-1
 96 0 l 1,0,1
EndSplineSet
EndChar

StartChar: Lslash
Encoding: 321 321 116
Width: 630
GlyphClass: 1
Flags: W
LayerCount: 2
Fore
SplineSet
126 0 m 1,0,1
 156 184.5 156 184.5 126 344 c 1,2,3
 111 339.5 111 339.5 62 308 c 1,4,5
 45 342 45 342 6 408 c 1,6,7
 90 417 90 417 126 475 c 1,8,9
 156 680 156 680 126 900 c 1,10,11
 213 900 213 900 312 900 c 1,12,13
 270 717.5 270 717.5 312 578 c 1,14,15
 372 601.5 372 601.5 478 670 c 1,16,17
 495 636 495 636 534 570 c 1,18,19
 393 523.5 393 523.5 312 447 c 1,20,21
 270 272.5 270 272.5 312 162 c 1,22,23
 426 102 426 102 582 162 c 1,24,-1
 582 0 l 129,-1,-1
 126 0 l 1,0,1
EndSplineSet
EndChar

StartChar: M
Encoding: 77 77 117
Width: 1040
GlyphClass: 1
Flags: W
LayerCount: 2
Fore
SplineSet
96 0 m 1,0,1
 126 465 126 465 96 930 c 1,2,3
 335 642 335 642 524 398 c 1,4,5
 749 642 749 642 944 930 c 1,6,7
 954 465 954 465 944 0 c 1,8,9
 897 0 897 0 770 0 c 1,10,11
 840 208 840 208 770 258 c 2,12,13
 770 302 770 302 771.5 357 c 128,-1,14
 773 412 773 412 781 483 c 1,15,16
 750 431 750 431 721.5 393 c 128,-1,17
 693 355 693 355 669 323 c 2,18,19
 637 305.5 637 305.5 521 125 c 1,20,21
 440 305.5 440 305.5 368 323 c 2,22,23
 345 353 345 353 313.5 395.5 c 128,-1,24
 282 438 282 438 253 486 c 1,25,26
 261 413 261 413 262.5 358 c 128,-1,27
 264 303 264 303 264 258 c 2,28,29
 234 208 234 208 264 0 c 1,30,31
 180 0 180 0 96 0 c 1,0,1
EndSplineSet
EndChar

StartChar: N
Encoding: 78 78 118
Width: 900
GlyphClass: 1
Flags: W
LayerCount: 2
Fore
SplineSet
804 -30 m 1,0,1
 549 307.5 549 307.5 264 509 c 1,2,3
 234 322.5 234 322.5 264 0 c 1,4,5
 180 0 180 0 96 0 c 1,6,7
 126 465 126 465 96 930 c 1,8,9
 441 592.5 441 592.5 636 392 c 1,10,11
 756 577.5 756 577.5 636 900 c 1,12,13
 810 900 810 900 804 900 c 1,14,15
 864 435 864 435 804 -30 c 1,0,1
EndSplineSet
EndChar

StartChar: Eng
Encoding: 330 330 125
Width: 990
GlyphClass: 1
Flags: W
LayerCount: 2
Fore
SplineSet
545 -200 m 0,0,1
 493 -200 493 -200 442.5 -184 c 128,-1,2
 392 -168 392 -168 358 -134 c 1,3,4
 466.5 -66 466.5 -66 405 34 c 1,5,6
 425 4 425 4 456 -14 c 128,-1,7
 487 -32 487 -32 526 -32 c 0,8,9
 573 -32 573 -32 604.5 -1 c 128,-1,10
 636 30 636 30 636 103 c 2,11,12
 756 81 756 81 636 118 c 1,13,14
 495 365.5 495 365.5 264 503 c 1,15,16
 234 322.5 234 322.5 264 0 c 1,17,18
 180 0 180 0 96 0 c 1,19,20
 126 465 126 465 96 930 c 1,21,22
 441 592.5 441 592.5 636 372 c 1,23,24
 756 577.5 756 577.5 636 900 c 1,25,26
 810 900 810 900 804 900 c 1,27,28
 864 480.5 864 480.5 804 71 c 2,29,30
 804 -23 804 -23 767.5 -83 c 128,-1,31
 731 -143 731 -143 672 -171.5 c 128,-1,32
 613 -200 613 -200 545 -200 c 0,0,1
EndSplineSet
EndChar

StartChar: O
Encoding: 79 79 126
Width: 1060
GlyphClass: 1
Flags: W
LayerCount: 2
Fore
SplineSet
530 -18 m 0,0,1
 431 -18 431 -18 345 18.5 c 128,-1,2
 259 55 259 55 196 119 c 128,-1,3
 133 183 133 183 96.5 268 c 128,-1,4
 60 353 60 353 60 450 c 256,5,6
 54 547 54 547 93.5 632 c 128,-1,7
 133 717 133 717 196 781 c 128,-1,8
 259 845 259 845 345 881.5 c 128,-1,9
 431 918 431 918 530 918 c 0,10,11
 628 918 628 918 713 881.5 c 128,-1,12
 798 845 798 845 862.5 781 c 128,-1,13
 927 717 927 717 963.5 632 c 128,-1,14
 1000 547 1000 547 1000 450 c 256,15,16
 1006 353 1006 353 966.5 268 c 128,-1,17
 927 183 927 183 862.5 119 c 128,-1,18
 798 55 798 55 713 18.5 c 128,-1,19
 628 -18 628 -18 530 -18 c 0,0,1
530 156 m 256,20,21
 629 90 629 90 685 162.5 c 128,-1,22
 741 235 741 235 811.5 293 c 128,-1,23
 882 351 882 351 882 450 c 0,24,25
 818 532 818 532 779.5 598.5 c 128,-1,26
 741 665 741 665 685 737.5 c 128,-1,27
 629 810 629 810 530 744 c 256,28,29
 431 810 431 810 374.5 737.5 c 128,-1,30
 318 665 318 665 248 607.5 c 128,-1,31
 178 550 178 550 178 450 c 0,32,33
 242 369 242 369 280 302 c 128,-1,34
 318 235 318 235 374.5 162.5 c 128,-1,35
 431 90 431 90 530 156 c 256,20,21
EndSplineSet
EndChar

StartChar: Ohorn
Encoding: 416 416 142
Width: 1060
GlyphClass: 1
Flags: W
LayerCount: 2
Fore
SplineSet
530 -18 m 0,0,1
 431 -18 431 -18 345 18.5 c 128,-1,2
 259 55 259 55 196 119 c 128,-1,3
 133 183 133 183 96.5 268 c 128,-1,4
 60 353 60 353 60 450 c 256,5,6
 54 547 54 547 93.5 632 c 128,-1,7
 133 717 133 717 196 781 c 128,-1,8
 259 845 259 845 345 881.5 c 128,-1,9
 431 918 431 918 530 918 c 0,10,11
 622 918 622 918 704 885.5 c 128,-1,12
 786 853 786 853 849 797 c 1,13,14
 861 808 861 808 867.5 825.5 c 128,-1,15
 874 843 874 843 874 868 c 0,16,17
 910 886 910 886 905 910.5 c 128,-1,18
 900 935 900 935 886 960 c 1,19,-1
 1006 960 l 1,20,21
 996 936 996 936 1001 913 c 128,-1,22
 1006 890 1006 890 1030 868 c 0,23,24
 1030 804 1030 804 1004.5 760.5 c 128,-1,25
 979 717 979 717 935 697 c 1,26,27
 969 643 969 643 984.5 583 c 128,-1,28
 1000 523 1000 523 1006 450 c 0,29,30
 1000 353 1000 353 963.5 268 c 128,-1,31
 927 183 927 183 862.5 119 c 128,-1,32
 798 55 798 55 713 18.5 c 128,-1,33
 628 -18 628 -18 530 -18 c 0,0,1
530 156 m 256,34,35
 629 90 629 90 685 162.5 c 128,-1,36
 741 235 741 235 811.5 293 c 128,-1,37
 882 351 882 351 882 450 c 0,38,39
 818 532 818 532 779.5 598.5 c 128,-1,40
 741 665 741 665 685 737.5 c 128,-1,41
 629 810 629 810 530 744 c 256,42,43
 431 810 431 810 374.5 737.5 c 128,-1,44
 318 665 318 665 248 607.5 c 128,-1,45
 178 550 178 550 178 450 c 0,46,47
 242 369 242 369 280 302 c 128,-1,48
 318 235 318 235 374.5 162.5 c 128,-1,49
 431 90 431 90 530 156 c 256,34,35
EndSplineSet
EndChar

StartChar: uni01EA
Encoding: 490 490 151
Width: 1060
GlyphClass: 1
Flags: W
LayerCount: 2
Fore
SplineSet
615 -312 m 1,0,1
 539 -318 539 -318 482 -278 c 128,-1,2
 425 -238 425 -238 425 -153 c 0,3,4
 425 -117 425 -117 438 -83 c 128,-1,5
 451 -49 451 -49 474 -15 c 1,6,7
 386 -5 386 -5 309.5 35 c 128,-1,8
 233 75 233 75 175.5 137.5 c 128,-1,9
 118 200 118 200 89 278.5 c 128,-1,10
 60 357 60 357 54 450 c 0,11,12
 60 547 60 547 96.5 632 c 128,-1,13
 133 717 133 717 196 781 c 128,-1,14
 259 845 259 845 345 881.5 c 128,-1,15
 431 918 431 918 530 918 c 0,16,17
 628 918 628 918 713 881.5 c 128,-1,18
 798 845 798 845 862.5 781 c 128,-1,19
 927 717 927 717 963.5 632 c 128,-1,20
 1000 547 1000 547 1006 450 c 0,21,22
 1000 333 1000 333 953.5 239 c 128,-1,23
 907 145 907 145 821.5 79.5 c 128,-1,24
 736 14 736 14 628 -8 c 1,25,26
 605 -35 605 -35 590 -61 c 128,-1,27
 575 -87 575 -87 550 -134 c 0,28,29
 575 -153 575 -153 598.5 -171 c 128,-1,30
 622 -189 622 -189 656 -190 c 1,31,-1
 615 -312 l 1,0,1
530 156 m 256,32,33
 629 90 629 90 685 162.5 c 128,-1,34
 741 235 741 235 811.5 293 c 128,-1,35
 882 351 882 351 882 450 c 0,36,37
 818 532 818 532 779.5 598.5 c 128,-1,38
 741 665 741 665 685 737.5 c 128,-1,39
 629 810 629 810 530 744 c 256,40,41
 431 810 431 810 374.5 737.5 c 128,-1,42
 318 665 318 665 248 607.5 c 128,-1,43
 178 550 178 550 178 450 c 0,44,45
 242 369 242 369 280 302 c 128,-1,46
 318 235 318 235 374.5 162.5 c 128,-1,47
 431 90 431 90 530 156 c 256,32,33
EndSplineSet
EndChar

StartChar: Oslash
Encoding: 216 216 152
Width: 1060
GlyphClass: 1
Flags: W
LayerCount: 2
Fore
SplineSet
210 -32 m 1,0,-1
 121 41 l 129,-1,-1
 189 123 l 1,1,2
 135 181 135 181 97.5 267 c 128,-1,3
 60 353 60 353 54 450 c 256,4,5
 60 547 60 547 96.5 632 c 128,-1,6
 133 717 133 717 196 781 c 128,-1,7
 259 845 259 845 345 881.5 c 128,-1,8
 431 918 431 918 530 918 c 0,9,10
 601 918 601 918 670.5 896.5 c 128,-1,11
 740 875 740 875 788 843 c 1,12,-1
 850 918 l 129,-1,-1
 939 845 l 129,-1,-1
 877 771 l 1,13,14
 937 708 937 708 968.5 626.5 c 128,-1,15
 1000 545 1000 545 1006 450 c 0,16,17
 1000 353 1000 353 963.5 268 c 128,-1,18
 927 183 927 183 862.5 119 c 128,-1,19
 798 55 798 55 713 18.5 c 128,-1,20
 628 -18 628 -18 530 -18 c 0,21,22
 461 -18 461 -18 397.5 0.5 c 128,-1,23
 334 19 334 19 280 52 c 1,24,-1
 210 -32 l 1,0,-1
306 264 m 1,25,-1
 674 706 l 1,26,27
 684 779 684 779 634.5 794.5 c 128,-1,28
 585 810 585 810 530 744 c 0,29,30
 431 810 431 810 374.5 737.5 c 128,-1,31
 318 665 318 665 248 607.5 c 128,-1,32
 178 550 178 550 242 450 c 0,33,34
 178 379 178 379 227 340.5 c 128,-1,35
 276 302 276 302 306 264 c 1,25,-1
530 156 m 0,36,37
 629 90 629 90 685 162.5 c 128,-1,38
 741 235 741 235 811.5 293 c 128,-1,39
 882 351 882 351 818 450 c 0,40,41
 882 519 882 519 834.5 555.5 c 128,-1,42
 787 592 787 592 760 629 c 1,43,-1
 394 190 l 1,44,45
 425 174 425 174 451.5 132 c 128,-1,46
 478 90 478 90 530 156 c 0,36,37
EndSplineSet
EndChar

StartChar: OE
Encoding: 338 338 156
Width: 1380
GlyphClass: 1
Flags: W
LayerCount: 2
Fore
SplineSet
512 -18 m 0,0,1
 433 -18 433 -18 342 18.5 c 128,-1,2
 251 55 251 55 192.5 119 c 128,-1,3
 134 183 134 183 97 268 c 128,-1,4
 60 353 60 353 60 450 c 256,5,6
 54 547 54 547 89.5 632 c 128,-1,7
 125 717 125 717 188 781 c 128,-1,8
 251 845 251 845 334 881.5 c 128,-1,9
 417 918 417 918 512 918 c 0,10,11
 602 918 602 918 671.5 892.5 c 128,-1,12
 741 867 741 867 786 823 c 1,13,-1
 882 900 l 129,-1,-1
 1266 900 l 129,-1,-1
 1320 798 l 129,-1,-1
 960 744 l 129,-1,-1
 990 606 l 129,-1,-1
 1196 606 l 129,-1,-1
 1250 504 l 129,-1,-1
 960 456 l 129,-1,-1
 990 102 l 129,-1,-1
 1266 162 l 129,-1,-1
 1320 0 l 129,-1,-1
 786 0 l 129,-1,-1
 786 77 l 1,14,15
 739 31 739 31 668.5 6.5 c 128,-1,16
 598 -18 598 -18 512 -18 c 0,0,1
530 156 m 256,17,18
 629 90 629 90 685 162.5 c 128,-1,19
 741 235 741 235 811.5 293 c 128,-1,20
 882 351 882 351 882 450 c 0,21,22
 818 532 818 532 779.5 598.5 c 128,-1,23
 741 665 741 665 685 737.5 c 128,-1,24
 629 810 629 810 530 744 c 256,25,26
 431 810 431 810 374.5 737.5 c 128,-1,27
 318 665 318 665 248 607.5 c 128,-1,28
 178 550 178 550 178 450 c 0,29,30
 242 369 242 369 280 302 c 128,-1,31
 318 235 318 235 374.5 162.5 c 128,-1,32
 431 90 431 90 530 156 c 256,17,18
EndSplineSet
EndChar

StartChar: P
Encoding: 80 80 157
Width: 720
GlyphClass: 1
Flags: W
LayerCount: 2
Fore
SplineSet
126 0 m 1,0,-1
 96 900 l 129,-1,-1
 368 900 l 2,1,2
 438 900 438 900 515.5 872 c 128,-1,3
 593 844 593 844 615 801.5 c 128,-1,4
 637 759 637 759 673.5 702.5 c 128,-1,5
 710 646 710 646 672 608 c 0,6,7
 710 543 710 543 692 489.5 c 128,-1,8
 674 436 674 436 633.5 390.5 c 128,-1,9
 593 345 593 345 528 317 c 128,-1,10
 463 289 463 289 368 289 c 2,11,-1
 240 316 l 129,-1,-1
 270 0 l 129,-1,-1
 126 0 l 1,0,-1
270 445 m 1,12,-1
 358 445 l 2,13,14
 424 418 424 418 460.5 454 c 128,-1,15
 497 490 497 490 527.5 526 c 128,-1,16
 558 562 558 562 558 608 c 0,17,18
 530 629 530 629 524.5 684.5 c 128,-1,19
 519 740 519 740 471 742 c 128,-1,20
 423 744 423 744 358 744 c 2,21,-1
 240 798 l 129,-1,-1
 270 445 l 1,12,-1
EndSplineSet
EndChar

StartChar: Thorn
Encoding: 222 222 158
Width: 720
GlyphClass: 1
Flags: W
LayerCount: 2
Fore
SplineSet
126 0 m 1,0,-1
 96 900 l 129,-1,-1
 240 900 l 129,-1,-1
 270 780 l 129,-1,-1
 368 780 l 2,1,2
 438 780 438 780 515.5 752 c 128,-1,3
 593 724 593 724 615 681.5 c 128,-1,4
 637 639 637 639 673.5 582.5 c 128,-1,5
 710 526 710 526 672 488 c 0,6,7
 710 423 710 423 692 369.5 c 128,-1,8
 674 316 674 316 633.5 270.5 c 128,-1,9
 593 225 593 225 528 197 c 128,-1,10
 463 169 463 169 368 169 c 2,11,-1
 240 196 l 129,-1,-1
 270 0 l 129,-1,-1
 126 0 l 1,0,-1
270 325 m 1,12,-1
 358 325 l 2,13,14
 424 298 424 298 460.5 334 c 128,-1,15
 497 370 497 370 527.5 406 c 128,-1,16
 558 442 558 442 558 488 c 0,17,18
 530 509 530 509 524.5 564.5 c 128,-1,19
 519 620 519 620 471 622 c 128,-1,20
 423 624 423 624 358 624 c 2,21,-1
 240 678 l 129,-1,-1
 270 325 l 1,12,-1
EndSplineSet
EndChar

StartChar: Q
Encoding: 81 81 159
Width: 1060
GlyphClass: 1
Flags: W
LayerCount: 2
Fore
SplineSet
821 -30 m 1,0,1
 826 14.5 826 14.5 762 41 c 1,2,3
 710 13 710 13 651.5 -2.5 c 128,-1,4
 593 -18 593 -18 530 -18 c 0,5,6
 431 -18 431 -18 345 18.5 c 128,-1,7
 259 55 259 55 193.5 119 c 128,-1,8
 128 183 128 183 91 268 c 128,-1,9
 54 353 54 353 54 450 c 384,-1,10
 54 547 54 547 91 632 c 128,-1,11
 128 717 128 717 193.5 781 c 128,-1,12
 259 845 259 845 345 881.5 c 128,-1,13
 431 918 431 918 530 918 c 0,14,15
 629 918 629 918 715 881.5 c 128,-1,16
 801 845 801 845 866.5 781 c 128,-1,17
 932 717 932 717 969 632 c 128,-1,18
 1006 547 1006 547 1006 450 c 0,19,20
 1006 360 1006 360 973.5 279.5 c 128,-1,21
 941 199 941 199 884 137 c 1,22,23
 929.5 46.5 929.5 46.5 1023 -30 c 1,24,25
 928 -30 928 -30 821 -30 c 1,0,1
530 156 m 0,26,27
 592 156 592 156 648 181 c 1,28,29
 587.5 296.5 587.5 296.5 424 450 c 1,30,31
 527 450 527 450 624 450 c 1,32,33
 694 330 694 330 766 280 c 1,34,35
 791 316 791 316 804.5 359 c 128,-1,36
 818 402 818 402 818 450 c 0,37,38
 818 532 818 532 779.5 598.5 c 128,-1,39
 741 665 741 665 676 704.5 c 128,-1,40
 611 744 611 744 530 744 c 256,41,42
 449 744 449 744 383.5 704.5 c 128,-1,43
 318 665 318 665 280 598.5 c 128,-1,44
 242 532 242 532 242 450 c 0,45,46
 242 369 242 369 280 302 c 0,47,48
 318 235 318 235 383.5 195.5 c 128,-1,49
 449 156 449 156 530 156 c 0,26,27
EndSplineSet
EndChar

StartChar: R
Encoding: 82 82 160
Width: 800
GlyphClass: 1
Flags: W
LayerCount: 2
Fore
SplineSet
99 0 m 1,0,1
 129 450 129 450 99 900 c 1,2,3
 242 900 242 900 374 900 c 2,4,5
 472 900 472 900 541.5 861 c 128,-1,6
 611 822 611 822 648 757.5 c 128,-1,7
 685 693 685 693 685 616 c 0,8,9
 685 546 685 546 654.5 489 c 0,10,11
 624 432 624 432 568 395 c 1,12,13
 623 217.5 623 217.5 806 0 c 1,14,15
 707.5 0 707.5 0 609 0 c 1,16,17
 498 207 498 207 409 342 c 1,18,19
 299 414 299 414 273 342 c 1,20,21
 243 207 243 207 273 0 c 1,22,23
 186 0 186 0 99 0 c 1,0,1
273 492 m 1,24,25
 299 510 299 510 370 492 c 2,26,27
 419 492 419 492 450 510.5 c 128,-1,28
 481 529 481 529 496 557.5 c 128,-1,29
 511 586 511 586 511 616 c 0,30,31
 511 669 511 669 472 703.5 c 128,-1,32
 433 738 433 738 370 738 c 2,33,34
 299 798 299 798 273 738 c 1,35,36
 243 654 243 654 273 492 c 1,24,25
EndSplineSet
EndChar

StartChar: S
Encoding: 83 83 166
Width: 660
GlyphClass: 1
Flags: W
LayerCount: 2
Fore
SplineSet
327 -20 m 0,0,1
 245 -20 245 -20 171.5 10.5 c 0,2,3
 98 41 98 41 54 84 c 1,4,5
 89.5 167 89.5 167 103 284 c 1,6,7
 138 223 138 223 202 182.5 c 0,8,9
 266 142 266 142 333 142 c 0,10,11
 388 142 388 142 419.5 172 c 128,-1,12
 451 202 451 202 451 245 c 0,13,14
 451 280 451 280 434.5 303 c 0,15,16
 418 326 418 326 395.5 341 c 128,-1,17
 373 356 373 356 356 364 c 2,18,19
 312 428 312 428 250 417 c 2,20,21
 204 440 204 440 162 471.5 c 128,-1,22
 120 503 120 503 93.5 550 c 128,-1,23
 67 597 67 597 67 666 c 0,24,25
 67 742 67 742 101.5 799 c 128,-1,26
 136 856 136 856 199 888 c 0,27,28
 262 920 262 920 347 920 c 0,29,30
 427 920 427 920 489.5 894.5 c 0,31,32
 552 869 552 869 591 840 c 1,33,34
 541.5 765 541.5 765 545 645 c 1,35,36
 505 697 505 697 449.5 728.5 c 0,37,38
 394 760 394 760 339 760 c 0,39,40
 290 760 290 760 263.5 735 c 128,-1,41
 237 710 237 710 237 673 c 0,42,43
 237 650 237 650 247.5 632 c 0,44,45
 258 614 258 614 278 600 c 128,-1,46
 298 586 298 586 325 572 c 2,47,48
 363 531 363 531 432 519 c 2,49,50
 459 506 459 506 491 485.5 c 0,51,52
 523 465 523 465 553 434 c 128,-1,53
 583 403 583 403 602 359.5 c 128,-1,54
 621 316 621 316 621 256 c 0,55,56
 621 178 621 178 585 115.5 c 128,-1,57
 549 53 549 53 483.5 16.5 c 0,58,59
 418 -20 418 -20 327 -20 c 0,0,1
EndSplineSet
EndChar

StartChar: Scedilla
Encoding: 350 350 169
Width: 660
GlyphClass: 1
Flags: W
LayerCount: 2
Fore
SplineSet
43 -192 m 1,0,1
 175.5 -93.5 175.5 -93.5 233 -9 c 1,2,3
 178 4 178 4 132 28.5 c 128,-1,4
 86 53 86 53 54 84 c 1,5,6
 89.5 167 89.5 167 103 284 c 1,7,8
 138 223 138 223 202 182.5 c 128,-1,9
 266 142 266 142 333 142 c 0,10,11
 388 142 388 142 419.5 172 c 128,-1,12
 451 202 451 202 451 245 c 0,13,14
 451 280 451 280 434.5 303 c 128,-1,15
 418 326 418 326 395.5 341 c 128,-1,16
 373 356 373 356 356 364 c 2,17,18
 312 428 312 428 250 417 c 2,19,20
 204 440 204 440 162 471.5 c 128,-1,21
 120 503 120 503 93.5 550 c 128,-1,22
 67 597 67 597 67 666 c 0,23,24
 67 742 67 742 101.5 799 c 128,-1,25
 136 856 136 856 199 888 c 128,-1,26
 262 920 262 920 347 920 c 0,27,28
 427 920 427 920 489.5 894.5 c 128,-1,29
 552 869 552 869 591 840 c 1,30,31
 541.5 765 541.5 765 545 645 c 1,32,33
 505 697 505 697 449.5 728.5 c 128,-1,34
 394 760 394 760 339 760 c 0,35,36
 290 760 290 760 263.5 735 c 128,-1,37
 237 710 237 710 237 673 c 0,38,39
 237 650 237 650 247.5 632 c 128,-1,40
 258 614 258 614 278 600 c 128,-1,41
 298 586 298 586 325 572 c 2,42,43
 363 531 363 531 432 519 c 2,44,45
 459 506 459 506 491 485.5 c 128,-1,46
 523 465 523 465 553 434 c 128,-1,47
 583 403 583 403 602 359.5 c 128,-1,48
 621 316 621 316 621 256 c 0,49,50
 621 151 621 151 557 75.5 c 128,-1,51
 493 0 493 0 381 -16 c 1,52,53
 301 -94 301 -94 258 -192 c 1,54,55
 161.5 -180 161.5 -180 43 -192 c 1,0,1
EndSplineSet
EndChar

StartChar: uni1E9E
Encoding: 7838 7838 172
Width: 990
GlyphClass: 1
Flags: W
LayerCount: 2
Fore
SplineSet
626 -20 m 256,0,1
 538 -20 538 -20 465 19.5 c 128,-1,2
 392 59 392 59 350 123 c 1,3,4
 363 203.5 363 203.5 442 306 c 1,5,6
 456 239 456 239 506.5 190.5 c 128,-1,7
 557 142 557 142 628 142 c 0,8,9
 674 142 674 142 710.5 163 c 128,-1,10
 747 184 747 184 768.5 220 c 128,-1,11
 790 256 790 256 790 301 c 0,12,13
 790 345 790 345 769.5 380.5 c 128,-1,14
 749 416 749 416 711.5 437 c 128,-1,15
 674 458 674 458 624 458 c 0,16,17
 594 458 594 458 567 450.5 c 128,-1,18
 540 443 540 443 512 428 c 1,19,20
 588.5 638.5 588.5 638.5 670 738 c 1,21,22
 457 804 457 804 281 738 c 1,23,24
 240 402 240 402 281 0 c 1,25,26
 183 0 183 0 96 0 c 1,27,28
 126 450 126 450 96 900 c 1,29,30
 483 900 483 900 930 900 c 1,31,32
 755.5 742.5 755.5 742.5 762 586 c 1,33,34
 819 565 819 565 863.5 522.5 c 128,-1,35
 908 480 908 480 934 423 c 128,-1,36
 960 366 960 366 960 299 c 0,37,38
 960 209 960 209 914 136.5 c 128,-1,39
 868 64 868 64 792 22 c 128,-1,40
 716 -20 716 -20 626 -20 c 256,0,1
EndSplineSet
EndChar

StartChar: T
Encoding: 84 84 173
Width: 690
GlyphClass: 1
Flags: W
LayerCount: 2
Fore
SplineSet
48 798 m 1,0,-1
 42 900 l 129,-1,-1
 642 900 l 129,-1,-1
 668 738 l 129,-1,-1
 402 798 l 129,-1,-1
 448 0 l 129,-1,-1
 288 0 l 129,-1,-1
 262 738 l 129,-1,-1
 48 798 l 1,0,-1
EndSplineSet
EndChar

StartChar: Tbar
Encoding: 358 358 174
Width: 690
GlyphClass: 1
Flags: W
LayerCount: 2
Fore
SplineSet
288 0 m 1,0,-1
 262 387 l 129,-1,-1
 105 408 l 129,-1,-1
 115 513 l 129,-1,-1
 288 492 l 129,-1,-1
 262 738 l 129,-1,-1
 48 798 l 129,-1,-1
 42 900 l 129,-1,-1
 642 900 l 129,-1,-1
 668 738 l 129,-1,-1
 402 798 l 129,-1,-1
 448 513 l 129,-1,-1
 585 492 l 129,-1,-1
 595 387 l 129,-1,-1
 402 408 l 129,-1,-1
 448 0 l 129,-1,-1
 288 0 l 1,0,-1
EndSplineSet
EndChar

StartChar: uni0162
Encoding: 354 354 176
Width: 710
GlyphClass: 1
Flags: W
LayerCount: 2
Fore
SplineSet
81 -192 m 1,0,1
 200.5 -90 200.5 -90 262 0 c 1,2,3
 288 399 288 399 262 738 c 1,4,5
 168 798 168 798 42 738 c 1,6,7
 48 849 48 849 42 900 c 1,8,9
 345 900 345 900 668 900 c 1,10,11
 642 849 642 849 668 738 c 1,12,13
 522 798 522 798 448 738 c 1,14,15
 402 399 402 399 448 0 c 1,16,17
 329 -90 329 -90 296 -192 c 1,18,19
 184.5 -180 184.5 -180 81 -192 c 1,0,1
EndSplineSet
EndChar

StartChar: U
Encoding: 85 85 178
Width: 800
GlyphClass: 1
Flags: W
LayerCount: 2
Fore
SplineSet
400 -21 m 0,0,1
 305 -21 305 -21 231 18 c 128,-1,2
 157 57 157 57 114.5 129.5 c 128,-1,3
 72 202 72 202 72 303 c 2,4,5
 108 591.5 108 591.5 72 900 c 1,6,7
 165 900 165 900 258 900 c 1,8,9
 222 593.5 222 593.5 258 312 c 2,10,11
 258 239 258 239 298.5 196 c 128,-1,12
 339 153 339 153 403 153 c 0,13,14
 466 153 466 153 507 194.5 c 128,-1,15
 548 236 548 236 548 306 c 2,16,17
 582 591.5 582 591.5 548 900 c 1,18,19
 637 900 637 900 728 900 c 1,20,21
 692 593.5 692 593.5 728 306 c 2,22,23
 728 204 728 204 686 130.5 c 128,-1,24
 644 57 644 57 570.5 18 c 128,-1,25
 497 -21 497 -21 400 -21 c 0,0,1
EndSplineSet
EndChar

StartChar: Uhorn
Encoding: 431 431 187
Width: 940
GlyphClass: 1
Flags: W
LayerCount: 2
Fore
SplineSet
400 -21 m 0,0,1
 305 -21 305 -21 231 18 c 128,-1,2
 157 57 157 57 114.5 129.5 c 128,-1,3
 72 202 72 202 72 303 c 2,4,5
 108 591.5 108 591.5 72 900 c 1,6,7
 165.5 900 165.5 900 258 900 c 1,8,9
 223 593.5 223 593.5 258 312 c 2,10,11
 258 239 258 239 298.5 196 c 128,-1,12
 339 153 339 153 403 153 c 256,13,14
 466 153 466 153 507 194.5 c 128,-1,15
 548 236 548 236 548 306 c 2,16,17
 577 591.5 577 591.5 548 900 c 1,18,19
 631.5 900 631.5 900 716 900 c 1,20,21
 686 842.5 686 842.5 716 794 c 1,22,23
 718 794 718 794 720.5 794 c 128,-1,24
 723 794 723 794 725 794 c 0,25,26
 748 794 748 794 767 811.5 c 128,-1,27
 786 829 786 829 786 868 c 0,28,29
 786 886 786 886 781 910.5 c 128,-1,30
 776 935 776 935 762 960 c 1,31,32
 824 960 824 960 912 960 c 1,33,34
 926 935 926 935 931 912 c 128,-1,35
 936 889 936 889 936 866 c 0,36,37
 936 806 936 806 912 764.5 c 128,-1,38
 888 723 888 723 850 701.5 c 128,-1,39
 812 680 812 680 769 680 c 0,40,41
 750 680 750 680 728 685 c 1,42,43
 692 497.5 692 497.5 728 306 c 2,44,45
 728 204 728 204 686 130.5 c 128,-1,46
 644 57 644 57 570.5 18 c 128,-1,47
 497 -21 497 -21 400 -21 c 0,0,1
EndSplineSet
EndChar

StartChar: Uogonek
Encoding: 370 370 196
Width: 800
GlyphClass: 1
Flags: W
LayerCount: 2
Fore
SplineSet
496 -318 m 1,0,1
 409 -318 409 -318 352 -278 c 128,-1,2
 295 -238 295 -238 295 -153 c 0,3,4
 295 -127 295 -127 303.5 -94.5 c 128,-1,5
 312 -62 312 -62 340 -17 c 1,6,7
 261 -5 261 -5 200.5 36.5 c 128,-1,8
 140 78 140 78 106 145.5 c 128,-1,9
 72 213 72 213 72 303 c 2,10,11
 108 591.5 108 591.5 72 900 c 1,12,13
 165 900 165 900 258 900 c 1,14,15
 222 593.5 222 593.5 258 312 c 2,16,17
 258 239 258 239 298.5 196 c 128,-1,18
 339 153 339 153 403 153 c 0,19,20
 466 153 466 153 507 194.5 c 128,-1,21
 548 236 548 236 548 306 c 2,22,23
 582 591.5 582 591.5 548 900 c 1,24,25
 637 900 637 900 728 900 c 1,26,27
 692 593.5 692 593.5 728 306 c 2,28,29
 728 179 728 179 664.5 97.5 c 128,-1,30
 601 16 601 16 496 -10 c 1,31,32
 474 -36 474 -36 459.5 -61.5 c 128,-1,33
 445 -87 445 -87 445 -116 c 0,34,35
 445 -153 445 -153 468.5 -171 c 128,-1,36
 492 -189 492 -189 526 -190 c 1,37,38
 496 -265.5 496 -265.5 496 -318 c 1,0,1
EndSplineSet
EndChar

StartChar: V
Encoding: 86 86 199
Width: 770
GlyphClass: 1
Flags: W
LayerCount: 2
Fore
SplineSet
384 -30 m 1,0,1
 193 435 193 435 6 900 c 1,2,3
 72 900 72 900 196 900 c 1,4,5
 238 629 238 629 343 530 c 2,6,7
 355 499 355 499 367 469.5 c 0,8,9
 379 440 379 440 390 404 c 1,10,11
 400 439 400 439 411.5 467.5 c 128,-1,12
 423 496 423 496 436 530 c 2,13,14
 519.5 629 519.5 629 583 900 c 1,15,16
 681.5 900 681.5 900 764 900 c 1,17,18
 557 435 557 435 386 -30 c 1,19,20
 375 -30 375 -30 384 -30 c 1,0,1
EndSplineSet
EndChar

StartChar: W
Encoding: 87 87 200
Width: 1220
GlyphClass: 1
Flags: W
LayerCount: 2
Fore
SplineSet
376 -32 m 1,0,1
 185.5 435 185.5 435 6 900 c 1,2,3
 70 900 70 900 196 900 c 1,4,5
 230 630 230 630 348 516 c 2,6,7
 359 489 359 489 369.5 459.5 c 0,8,9
 380 430 380 430 393 388 c 1,10,11
 406 430 406 430 418.5 459.5 c 0,12,13
 431 489 431 489 442 516 c 2,14,15
 501 645 501 645 614 930 c 1,16,17
 706.5 645 706.5 645 788 516 c 2,18,19
 799 489 799 489 812 459.5 c 0,20,21
 825 430 825 430 838 388 c 1,22,23
 851 430 851 430 862 459.5 c 0,24,25
 873 489 873 489 883 516 c 2,26,27
 978 630 978 630 1033 900 c 1,28,29
 1134 900 1134 900 1214 900 c 1,30,31
 1015 435 1015 435 844 -32 c 1,32,33
 738 262 738 262 658 412 c 2,34,35
 647 439 647 439 635 469 c 0,36,37
 623 499 623 499 610 541 c 1,38,39
 597 499 597 499 585 469.5 c 0,40,41
 573 440 573 440 562 413 c 2,42,43
 463.5 262 463.5 262 376 -32 c 1,0,1
EndSplineSet
EndChar

StartChar: X
Encoding: 88 88 205
Width: 870
GlyphClass: 1
Flags: W
LayerCount: 2
Fore
SplineSet
6 0 m 1,0,-1
 311 517 l 1,1,2
 237.5 711 237.5 711 78 900 c 1,3,4
 175.5 900 175.5 900 284 900 c 1,5,6
 303.5 810 303.5 810 363 773 c 2,7,8
 381 744 381 744 399.5 711 c 0,9,10
 418 678 418 678 440 633 c 1,11,12
 461 679 461 679 479 712 c 128,-1,13
 497 745 497 745 516 774 c 2,14,15
 571.5 810 571.5 810 596 900 c 1,16,17
 697.5 900 697.5 900 792 900 c 1,18,19
 632.5 713 632.5 713 562 522 c 1,20,21
 683.5 263 683.5 263 870 0 c 1,22,23
 794.5 0 794.5 0 661 0 c 1,24,25
 624 150 624 150 502 270 c 2,26,27
 486 298 486 298 470 328 c 0,28,29
 454 358 454 358 435 393 c 1,30,31
 416 358 416 358 400.5 328 c 128,-1,32
 385 298 385 298 368 270 c 2,33,34
 241 150 241 150 209 0 c 1,35,36
 6 0 l 1,0,-1
EndSplineSet
EndChar

StartChar: Y
Encoding: 89 89 206
Width: 710
GlyphClass: 1
Flags: W
LayerCount: 2
Fore
SplineSet
265 0 m 1,0,1
 288 217.5 288 217.5 265 426 c 1,2,3
 153 667.5 153 667.5 6 900 c 1,4,5
 84 900 84 900 208 900 c 1,6,7
 224 769 224 769 314 698 c 2,8,9
 325 676 325 676 337 653.5 c 128,-1,10
 349 631 349 631 360 600 c 1,11,12
 372 631 372 631 383.5 653.5 c 0,13,14
 395 676 395 676 407 698 c 2,15,16
 477.5 769 477.5 769 514 900 c 1,17,18
 612 900 612 900 704 900 c 1,19,20
 537 667.5 537 667.5 445 426 c 1,21,22
 402 217.5 402 217.5 445 0 c 1,23,24
 345 0 345 0 265 0 c 1,0,1
EndSplineSet
EndChar

StartChar: Z
Encoding: 90 90 215
Width: 680
GlyphClass: 1
Flags: W
LayerCount: 2
Fore
SplineSet
18 0 m 1,0,1
 239.5 399 239.5 399 385 738 c 1,2,3
 260.5 798 260.5 798 63 738 c 1,4,5
 84 849 84 849 63 900 c 1,6,7
 345 900 345 900 650 900 c 1,8,9
 408.5 501 408.5 501 283 162 c 1,10,11
 399.5 102 399.5 102 629 162 c 1,12,13
 588 51 588 51 629 0 c 1,14,15
 315 0 315 0 18 0 c 1,0,1
EndSplineSet
EndChar

StartChar: a
Encoding: 97 97 219
Width: 760
GlyphClass: 1
Flags: W
LayerCount: 2
Fore
SplineSet
336 -16 m 0,0,1
 253 -16 253 -16 185 27 c 128,-1,2
 117 70 117 70 85.5 142.5 c 128,-1,3
 54 215 54 215 54 300 c 256,4,5
 36 387 36 387 85.5 456 c 128,-1,6
 135 525 135 525 194 570.5 c 128,-1,7
 253 616 253 616 336 616 c 0,8,9
 394 616 394 616 442 595.5 c 128,-1,10
 490 575 490 575 524 539 c 1,11,-1
 564 600 l 129,-1,-1
 674 600 l 129,-1,-1
 664 0 l 129,-1,-1
 524 0 l 129,-1,-1
 524 61 l 1,12,13
 490 25 490 25 442 4.5 c 128,-1,14
 394 -16 394 -16 336 -16 c 0,0,1
367 90 m 256,15,16
 401 137 401 137 459 142 c 128,-1,17
 517 147 517 147 544.5 194.5 c 128,-1,18
 572 242 572 242 572 300 c 256,19,20
 516 345 516 345 516.5 399 c 128,-1,21
 517 453 517 453 470.5 481.5 c 128,-1,22
 424 510 424 510 367 510 c 256,23,24
 313 463 313 463 265 458 c 128,-1,25
 217 453 217 453 189.5 405.5 c 128,-1,26
 162 358 162 358 162 300 c 256,27,28
 198 255 198 255 207.5 201 c 128,-1,29
 217 147 217 147 263.5 118.5 c 128,-1,30
 310 90 310 90 367 90 c 256,15,16
EndSplineSet
EndChar

StartChar: aogonek
Encoding: 261 261 240
Width: 760
GlyphClass: 1
Flags: W
LayerCount: 2
Fore
SplineSet
669 -312 m 1,0,1
 578 -318 578 -318 521 -278 c 128,-1,2
 464 -238 464 -238 464 -153 c 0,3,4
 504 -113 504 -113 520 -75 c 128,-1,5
 536 -37 536 -37 524 0 c 1,6,-1
 524 61 l 1,7,8
 490 25 490 25 442 4.5 c 128,-1,9
 394 -16 394 -16 336 -16 c 0,10,11
 253 -16 253 -16 185 27 c 128,-1,12
 117 70 117 70 85.5 142.5 c 128,-1,13
 54 215 54 215 54 300 c 256,14,15
 36 387 36 387 85.5 456 c 128,-1,16
 135 525 135 525 194 570.5 c 128,-1,17
 253 616 253 616 336 616 c 0,18,19
 394 616 394 616 442 595.5 c 128,-1,20
 490 575 490 575 524 539 c 1,21,-1
 564 600 l 129,-1,-1
 674 600 l 129,-1,-1
 674 0 l 1,22,23
 648 -29 648 -29 631 -56.5 c 128,-1,24
 614 -84 614 -84 614 -116 c 0,25,26
 614 -153 614 -153 637.5 -171 c 128,-1,27
 661 -189 661 -189 695 -190 c 1,28,-1
 669 -312 l 1,0,1
367 90 m 256,29,30
 401 137 401 137 459 142 c 128,-1,31
 517 147 517 147 544.5 194.5 c 128,-1,32
 572 242 572 242 572 300 c 256,33,34
 516 345 516 345 516.5 399 c 128,-1,35
 517 453 517 453 470.5 481.5 c 128,-1,36
 424 510 424 510 367 510 c 256,37,38
 313 463 313 463 265 458 c 128,-1,39
 217 453 217 453 189.5 405.5 c 128,-1,40
 162 358 162 358 162 300 c 256,41,42
 198 255 198 255 207.5 201 c 128,-1,43
 217 147 217 147 263.5 118.5 c 128,-1,44
 310 90 310 90 367 90 c 256,29,30
EndSplineSet
EndChar

StartChar: ae
Encoding: 230 230 244
Width: 1090
GlyphClass: 1
Flags: W
LayerCount: 2
Fore
SplineSet
777 -20 m 0,0,1
 695 -20 695 -20 629 8 c 128,-1,2
 563 36 563 36 518 85 c 1,3,4
 475 39 475 39 414.5 12.5 c 128,-1,5
 354 -14 354 -14 282 -14 c 0,6,7
 206 -14 206 -14 150.5 10.5 c 128,-1,8
 95 35 95 35 65.5 79 c 128,-1,9
 36 123 36 123 36 184 c 0,10,11
 36 274 36 274 109 329 c 128,-1,12
 182 384 182 384 301 384 c 0,13,14
 387 384 387 384 466 352 c 1,15,16
 499 358.5 499 358.5 468 364 c 1,17,18
 467 413 467 413 423 447.5 c 128,-1,19
 379 482 379 482 304 482 c 0,20,21
 249 482 249 482 200.5 462.5 c 128,-1,22
 152 443 152 443 115 413 c 1,23,24
 116 485 116 485 80 555 c 1,25,26
 133 587 133 587 196.5 603.5 c 128,-1,27
 260 620 260 620 324 620 c 0,28,29
 394 620 394 620 450.5 601 c 128,-1,30
 507 582 507 582 545 547 c 1,31,32
 586 582 586 582 638.5 601 c 128,-1,33
 691 620 691 620 750 620 c 0,34,35
 839 620 839 620 909 579.5 c 128,-1,36
 979 539 979 539 1019.5 469 c 128,-1,37
 1060 399 1060 399 1060 310 c 2,38,39
 1092 292 1092 292 1060 249 c 1,40,41
 896 270 896 270 693 249 c 2,42,43
 669 249 669 249 646 252 c 128,-1,44
 623 255 623 255 600 259 c 1,45,46
 612 199 612 199 659.5 161.5 c 128,-1,47
 707 124 707 124 781 124 c 0,48,49
 838 124 838 124 883.5 147 c 128,-1,50
 929 170 929 170 958 204 c 1,51,52
 1013 123.5 1013 123.5 996 48 c 1,53,54
 951 14 951 14 894.5 -3 c 128,-1,55
 838 -20 838 -20 777 -20 c 0,0,1
296 118 m 0,56,57
 357 118 357 118 406.5 149 c 128,-1,58
 456 180 456 180 467 223 c 1,59,60
 502.5 231.5 502.5 231.5 466 231 c 1,61,62
 435 244 435 244 396 251 c 128,-1,63
 357 258 357 258 320 258 c 0,64,65
 262 258 262 258 230 239.5 c 128,-1,66
 198 221 198 221 198 187 c 0,67,68
 198 156 198 156 224.5 137 c 128,-1,69
 251 118 251 118 296 118 c 0,56,57
596 364 m 1,70,71
 620 369 620 369 644 372 c 128,-1,72
 668 375 668 375 693 375 c 2,73,74
 799.5 360 799.5 360 800 375 c 2,75,76
 828 375 828 375 853 373 c 128,-1,77
 878 371 878 371 900 366 c 1,78,79
 885 420 885 420 845.5 451 c 128,-1,80
 806 482 806 482 748 482 c 0,81,82
 693 482 693 482 652.5 450.5 c 128,-1,83
 612 419 612 419 596 364 c 1,70,71
EndSplineSet
EndChar

StartChar: a.ss02
Encoding: 65539 -1 246
Width: 670
GlyphClass: 1
Flags: W
LayerCount: 2
Fore
SplineSet
262 -14 m 0,0,1
 162 -14 162 -14 99 40.5 c 128,-1,2
 36 95 36 95 36 181 c 0,3,4
 36 273 36 273 109 328.5 c 128,-1,5
 182 384 182 384 301 384 c 0,6,7
 385 384 385 384 466 351 c 1,8,9
 506 339 506 339 466 360 c 2,10,11
 466 412 466 412 422 447 c 128,-1,12
 378 482 378 482 307 482 c 0,13,14
 255 482 255 482 203.5 462 c 128,-1,15
 152 442 152 442 115 407 c 1,16,17
 116 485 116 485 80 555 c 1,18,19
 133 587 133 587 196.5 603.5 c 128,-1,20
 260 620 260 620 324 620 c 0,21,22
 412 620 412 620 477.5 590 c 128,-1,23
 543 560 543 560 579.5 506 c 128,-1,24
 616 452 616 452 616 380 c 2,25,26
 606 184 606 184 616 0 c 1,27,28
 556 0 556 0 466 0 c 1,29,30
 506 50 506 50 466 70 c 1,31,32
 429 30 429 30 376.5 8 c 128,-1,33
 324 -14 324 -14 262 -14 c 0,0,1
296 118 m 0,34,35
 338 118 338 118 375.5 133.5 c 128,-1,36
 413 149 413 149 438 175 c 128,-1,37
 463 201 463 201 466 231 c 1,38,39
 435 244 435 244 396 251 c 128,-1,40
 357 258 357 258 320 258 c 0,41,42
 262 258 262 258 230 239.5 c 128,-1,43
 198 221 198 221 198 187 c 0,44,45
 198 156 198 156 224.5 137 c 128,-1,46
 251 118 251 118 296 118 c 0,34,35
EndSplineSet
EndChar

StartChar: aogonek.ss02
Encoding: 65560 -1 267
Width: 670
GlyphClass: 1
Flags: W
LayerCount: 2
Fore
SplineSet
607 -318 m 1,0,1
 520 -318 520 -318 463 -278 c 128,-1,2
 406 -238 406 -238 406 -153 c 0,3,4
 406 -113 406 -113 422 -75 c 128,-1,5
 438 -37 438 -37 466 0 c 1,6,7
 506 50 506 50 466 70 c 1,8,9
 429 30 429 30 376.5 8 c 128,-1,10
 324 -14 324 -14 262 -14 c 0,11,12
 162 -14 162 -14 99 40.5 c 128,-1,13
 36 95 36 95 36 181 c 0,14,15
 36 273 36 273 109 328.5 c 128,-1,16
 182 384 182 384 301 384 c 0,17,18
 385 384 385 384 466 351 c 1,19,20
 506 339 506 339 466 360 c 2,21,22
 466 412 466 412 422 447 c 128,-1,23
 378 482 378 482 307 482 c 0,24,25
 255 482 255 482 203.5 462 c 128,-1,26
 152 442 152 442 115 407 c 1,27,28
 116 485 116 485 80 555 c 1,29,30
 133 587 133 587 196.5 603.5 c 128,-1,31
 260 620 260 620 324 620 c 0,32,33
 412 620 412 620 477.5 590 c 128,-1,34
 543 560 543 560 579.5 506 c 128,-1,35
 616 452 616 452 616 380 c 2,36,37
 606 184 606 184 616 0 c 1,38,39
 590 -29 590 -29 573 -56.5 c 128,-1,40
 556 -84 556 -84 556 -116 c 0,41,42
 556 -153 556 -153 579.5 -171 c 128,-1,43
 603 -189 603 -189 637 -190 c 1,44,45
 622 -265.5 622 -265.5 607 -318 c 1,0,1
296 118 m 0,46,47
 338 118 338 118 375.5 133.5 c 128,-1,48
 413 149 413 149 438 175 c 128,-1,49
 463 201 463 201 466 231 c 1,50,51
 435 244 435 244 396 251 c 128,-1,52
 357 258 357 258 320 258 c 0,53,54
 262 258 262 258 230 239.5 c 128,-1,55
 198 221 198 221 198 187 c 0,56,57
 198 156 198 156 224.5 137 c 128,-1,58
 251 118 251 118 296 118 c 0,46,47
EndSplineSet
EndChar

StartChar: b
Encoding: 98 98 271
Width: 760
GlyphClass: 1
Flags: W
LayerCount: 2
Fore
SplineSet
403 -16 m 0,0,1
 346 -16 346 -16 298.5 4 c 128,-1,2
 251 24 251 24 216 59 c 1,3,-1
 196 0 l 129,-1,-1
 66 0 l 129,-1,-1
 96 960 l 129,-1,-1
 240 960 l 129,-1,-1
 240 562 l 1,4,5
 273 588 273 588 314 602 c 128,-1,6
 355 616 355 616 403 616 c 0,7,8
 490 608 490 608 556.5 569.5 c 128,-1,9
 623 531 623 531 664.5 458 c 128,-1,10
 706 385 706 385 706 300 c 256,11,12
 704 213 704 213 663.5 141.5 c 128,-1,13
 623 70 623 70 556.5 31 c 128,-1,14
 490 -8 490 -8 403 -16 c 0,0,1
393 90 m 256,15,16
 427 137 427 137 485 142 c 128,-1,17
 543 147 543 147 570.5 194.5 c 128,-1,18
 598 242 598 242 598 300 c 256,19,20
 542 345 542 345 542.5 399 c 128,-1,21
 543 453 543 453 496.5 481.5 c 128,-1,22
 450 510 450 510 393 510 c 256,23,24
 339 463 339 463 291 458 c 128,-1,25
 243 453 243 453 215.5 405.5 c 128,-1,26
 188 358 188 358 188 300 c 256,27,28
 224 255 224 255 233.5 201 c 128,-1,29
 243 147 243 147 289.5 118.5 c 128,-1,30
 336 90 336 90 393 90 c 256,15,16
EndSplineSet
EndChar

StartChar: c
Encoding: 99 99 272
Width: 600
GlyphClass: 1
Flags: W
LayerCount: 2
Fore
SplineSet
360 -20 m 0,0,1
 271 -20 271 -20 197 23 c 128,-1,2
 123 66 123 66 79.5 139 c 128,-1,3
 36 212 36 212 36 300 c 256,4,5
 36 389 36 389 79.5 461.5 c 128,-1,6
 123 534 123 534 197 577 c 128,-1,7
 271 620 271 620 360 620 c 0,8,9
 422 620 422 620 477.5 599.5 c 128,-1,10
 533 579 533 579 576 539 c 1,11,12
 577.5 460 577.5 460 531 362 c 1,13,14
 506 403 506 403 464.5 433.5 c 128,-1,15
 423 464 423 464 367 464 c 0,16,17
 320 464 320 464 283 442 c 128,-1,18
 246 420 246 420 225 383 c 128,-1,19
 204 346 204 346 204 300 c 0,20,21
 204 255 204 255 225 217.5 c 128,-1,22
 246 180 246 180 283 158 c 128,-1,23
 320 136 320 136 367 136 c 0,24,25
 423 136 423 136 464.5 166.5 c 128,-1,26
 506 197 506 197 531 238 c 1,27,28
 577.5 140 577.5 140 576 61 c 1,29,30
 533 21 533 21 477.5 0.5 c 128,-1,31
 422 -20 422 -20 360 -20 c 0,0,1
EndSplineSet
EndChar

StartChar: ccedilla
Encoding: 231 231 275
Width: 600
GlyphClass: 1
Flags: W
LayerCount: 2
Fore
SplineSet
97 -192 m 1,0,1
 225 -93 225 -93 284 -11 c 1,2,3
 213 6 213 6 157 50.5 c 128,-1,4
 101 95 101 95 68.5 160 c 128,-1,5
 36 225 36 225 36 300 c 0,6,7
 36 389 36 389 79.5 461.5 c 128,-1,8
 123 534 123 534 197 577 c 128,-1,9
 271 620 271 620 360 620 c 0,10,11
 422 620 422 620 477.5 599.5 c 128,-1,12
 533 579 533 579 576 539 c 1,13,14
 577.5 460 577.5 460 531 362 c 1,15,16
 506 403 506 403 464.5 433.5 c 128,-1,17
 423 464 423 464 367 464 c 0,18,19
 320 464 320 464 283 442 c 128,-1,20
 246 420 246 420 225 383 c 128,-1,21
 204 346 204 346 204 300 c 0,22,23
 204 255 204 255 225 217.5 c 128,-1,24
 246 180 246 180 283 158 c 128,-1,25
 320 136 320 136 367 136 c 0,26,27
 423 136 423 136 464.5 166.5 c 128,-1,28
 506 197 506 197 531 238 c 1,29,30
 577.5 140 577.5 140 576 61 c 1,31,32
 547 34 547 34 512 16 c 128,-1,33
 477 -2 477 -2 438 -11 c 1,34,35
 350 -94.5 350 -94.5 312 -192 c 1,36,37
 210.5 -180 210.5 -180 97 -192 c 1,0,1
EndSplineSet
EndChar

StartChar: d
Encoding: 100 100 278
Width: 760
GlyphClass: 1
Flags: W
LayerCount: 2
Fore
SplineSet
337 -16 m 0,0,1
 253 -16 253 -16 185 27 c 128,-1,2
 117 70 117 70 85.5 142.5 c 128,-1,3
 54 215 54 215 54 300 c 256,4,5
 36 387 36 387 85.5 456 c 128,-1,6
 135 525 135 525 194 570.5 c 128,-1,7
 253 616 253 616 337 616 c 0,8,9
 385 616 385 616 426 602 c 128,-1,10
 467 588 467 588 500 562 c 1,11,-1
 556 960 l 129,-1,-1
 674 960 l 129,-1,-1
 664 0 l 129,-1,-1
 524 0 l 129,-1,-1
 524 59 l 1,12,13
 490 24 490 24 442 4 c 128,-1,14
 394 -16 394 -16 337 -16 c 0,0,1
367 90 m 256,15,16
 401 137 401 137 459 142 c 128,-1,17
 517 147 517 147 544.5 194.5 c 128,-1,18
 572 242 572 242 572 300 c 256,19,20
 516 345 516 345 516.5 399 c 128,-1,21
 517 453 517 453 470.5 481.5 c 128,-1,22
 424 510 424 510 367 510 c 256,23,24
 313 463 313 463 265 458 c 128,-1,25
 217 453 217 453 189.5 405.5 c 128,-1,26
 162 358 162 358 162 300 c 256,27,28
 198 255 198 255 207.5 201 c 128,-1,29
 217 147 217 147 263.5 118.5 c 128,-1,30
 310 90 310 90 367 90 c 256,15,16
EndSplineSet
EndChar

StartChar: eth
Encoding: 240 240 279
Width: 740
GlyphClass: 1
Flags: W
LayerCount: 2
Fore
SplineSet
371 -12 m 256,0,1
 271 -20 271 -20 205 26 c 128,-1,2
 139 72 139 72 96.5 143 c 128,-1,3
 54 214 54 214 54 301 c 0,4,5
 36 388 36 388 77 459 c 128,-1,6
 118 530 118 530 186.5 572 c 128,-1,7
 255 614 255 614 339 614 c 0,8,9
 356 614 356 614 373 612.5 c 128,-1,10
 390 611 390 611 406 606 c 1,11,12
 383 638 383 638 358 670.5 c 128,-1,13
 333 703 333 703 307 735 c 1,14,-1
 168 645 l 129,-1,-1
 122 717 l 129,-1,-1
 253 802 l 1,15,16
 270 853 270 853 211.5 886.5 c 128,-1,17
 153 920 153 920 118 960 c 1,18,-1
 303 960 l 1,19,20
 320 938 320 938 337.5 918.5 c 128,-1,21
 355 899 355 899 372 879 c 1,22,-1
 497 960 l 129,-1,-1
 543 889 l 129,-1,-1
 425 812 l 1,23,24
 477 748 477 748 518.5 692 c 128,-1,25
 560 636 560 636 585 598 c 0,26,27
 635 522 635 522 659.5 450.5 c 128,-1,28
 684 379 684 379 684 310 c 0,29,30
 686 217 686 217 644 144.5 c 128,-1,31
 602 72 602 72 530.5 30 c 128,-1,32
 459 -12 459 -12 371 -12 c 256,0,1
369 90 m 0,33,34
 405 136 405 136 463.5 141.5 c 128,-1,35
 522 147 522 147 550 195 c 128,-1,36
 578 243 578 243 521 300 c 256,37,38
 578 359 578 359 528 389.5 c 128,-1,39
 478 420 478 420 452.5 465 c 128,-1,40
 427 510 427 510 360 464 c 0,41,42
 312 510 312 510 277 465 c 128,-1,43
 242 420 242 420 202 389.5 c 128,-1,44
 162 359 162 359 199 300 c 256,45,46
 162 243 162 243 190 195 c 128,-1,47
 218 147 218 147 266.5 141.5 c 128,-1,48
 315 136 315 136 369 90 c 0,33,34
EndSplineSet
EndChar

StartChar: dcroat
Encoding: 273 273 281
Width: 760
GlyphClass: 1
Flags: W
LayerCount: 2
Fore
SplineSet
337 -16 m 0,0,1
 253 -16 253 -16 185 27 c 128,-1,2
 117 70 117 70 85.5 142.5 c 128,-1,3
 54 215 54 215 54 300 c 256,4,5
 36 387 36 387 85.5 456 c 128,-1,6
 135 525 135 525 194 570.5 c 128,-1,7
 253 616 253 616 337 616 c 0,8,9
 390 616 390 616 434 599 c 128,-1,10
 478 582 478 582 512 552 c 1,11,-1
 562 746 l 129,-1,-1
 315 726 l 129,-1,-1
 350 814 l 129,-1,-1
 512 834 l 129,-1,-1
 562 960 l 129,-1,-1
 674 960 l 129,-1,-1
 664 814 l 129,-1,-1
 731 834 l 129,-1,-1
 730 746 l 129,-1,-1
 674 726 l 129,-1,-1
 664 0 l 129,-1,-1
 524 0 l 129,-1,-1
 524 59 l 1,12,13
 490 24 490 24 442 4 c 128,-1,14
 394 -16 394 -16 337 -16 c 0,0,1
367 90 m 256,15,16
 401 137 401 137 459 142 c 128,-1,17
 517 147 517 147 544.5 194.5 c 128,-1,18
 572 242 572 242 572 300 c 256,19,20
 516 345 516 345 516.5 399 c 128,-1,21
 517 453 517 453 470.5 481.5 c 128,-1,22
 424 510 424 510 367 510 c 256,23,24
 313 463 313 463 265 458 c 128,-1,25
 217 453 217 453 189.5 405.5 c 128,-1,26
 162 358 162 358 162 300 c 256,27,28
 198 255 198 255 207.5 201 c 128,-1,29
 217 147 217 147 263.5 118.5 c 128,-1,30
 310 90 310 90 367 90 c 256,15,16
EndSplineSet
EndChar

StartChar: e
Encoding: 101 101 283
Width: 690
GlyphClass: 1
Flags: W
LayerCount: 2
Fore
SplineSet
377 -20 m 0,0,1
 276 -20 276 -20 199 22 c 128,-1,2
 122 64 122 64 79 137.5 c 128,-1,3
 36 211 36 211 36 306 c 0,4,5
 36 397 36 397 78 467.5 c 128,-1,6
 120 538 120 538 191.5 579 c 128,-1,7
 263 620 263 620 350 620 c 0,8,9
 439 620 439 620 509 579.5 c 128,-1,10
 579 539 579 539 619.5 469 c 128,-1,11
 660 399 660 399 660 310 c 2,12,13
 662 292 662 292 660 249 c 1,14,15
 466 270 466 270 294 249 c 2,16,17
 269 249 269 249 246 252 c 128,-1,18
 223 255 223 255 200 259 c 1,19,20
 212 199 212 199 259.5 161.5 c 128,-1,21
 307 124 307 124 381 124 c 0,22,23
 438 124 438 124 483.5 147 c 128,-1,24
 529 170 529 170 558 204 c 1,25,26
 583 123.5 583 123.5 596 48 c 1,27,28
 551 14 551 14 494.5 -3 c 128,-1,29
 438 -20 438 -20 377 -20 c 0,0,1
196 364 m 1,30,31
 246 375 246 375 294 375 c 2,32,33
 369.5 360 369.5 360 400 375 c 2,34,35
 428 375 428 375 453 373 c 128,-1,36
 478 371 478 371 500 366 c 1,37,38
 485 420 485 420 445.5 451 c 128,-1,39
 406 482 406 482 348 482 c 0,40,41
 293 482 293 482 252.5 450.5 c 128,-1,42
 212 419 212 419 196 364 c 1,30,31
EndSplineSet
EndChar

StartChar: eogonek
Encoding: 281 281 301
Width: 690
GlyphClass: 1
Flags: W
LayerCount: 2
Fore
SplineSet
548 -318 m 1,0,1
 461 -318 461 -318 404 -278 c 128,-1,2
 347 -238 347 -238 347 -153 c 0,3,4
 347 -124 347 -124 359 -90 c 128,-1,5
 371 -56 371 -56 402 -19 c 1,6,7
 396 -20 396 -20 389.5 -20 c 128,-1,8
 383 -20 383 -20 377 -20 c 0,9,10
 276 -20 276 -20 199 22 c 128,-1,11
 122 64 122 64 79 137.5 c 128,-1,12
 36 211 36 211 36 306 c 0,13,14
 36 397 36 397 78 467.5 c 128,-1,15
 120 538 120 538 191.5 579 c 128,-1,16
 263 620 263 620 350 620 c 0,17,18
 439 620 439 620 509 579.5 c 128,-1,19
 579 539 579 539 619.5 469 c 128,-1,20
 660 399 660 399 660 310 c 2,21,22
 662 292 662 292 660 249 c 1,23,24
 466 270 466 270 294 249 c 2,25,26
 269 249 269 249 246 252 c 128,-1,27
 223 255 223 255 200 259 c 1,28,29
 212 199 212 199 259.5 161.5 c 128,-1,30
 307 124 307 124 381 124 c 0,31,32
 438 124 438 124 483.5 146 c 128,-1,33
 529 168 529 168 559 200 c 1,34,35
 584.5 117.5 584.5 117.5 596 48 c 1,36,37
 541 -15 541 -15 519 -49.5 c 128,-1,38
 497 -84 497 -84 497 -116 c 0,39,40
 497 -153 497 -153 520.5 -171 c 128,-1,41
 544 -189 544 -189 578 -190 c 1,42,43
 564 -265.5 564 -265.5 548 -318 c 1,0,1
196 364 m 1,44,45
 246 375 246 375 294 375 c 2,46,47
 369.5 360 369.5 360 400 375 c 2,48,49
 428 375 428 375 453 373 c 128,-1,50
 478 371 478 371 500 366 c 1,51,52
 485 420 485 420 445.5 451 c 128,-1,53
 406 482 406 482 348 482 c 0,54,55
 293 482 293 482 252.5 450.5 c 128,-1,56
 212 419 212 419 196 364 c 1,44,45
EndSplineSet
EndChar

StartChar: uni0259
Encoding: 601 601 303
Width: 690
GlyphClass: 1
Flags: W
LayerCount: 2
Fore
SplineSet
340 -20 m 0,0,1
 252 -20 252 -20 181.5 20.5 c 128,-1,2
 111 61 111 61 70.5 131.5 c 128,-1,3
 30 202 30 202 30 290 c 2,4,5
 48 308 48 308 30 351 c 1,6,7
 244 330 244 330 396 351 c 2,8,9
 421 351 421 351 444 348.5 c 128,-1,10
 467 346 467 346 490 341 c 1,11,12
 478 401 478 401 430.5 438.5 c 128,-1,13
 383 476 383 476 309 476 c 0,14,15
 252 476 252 476 206.5 453 c 128,-1,16
 161 430 161 430 132 396 c 1,17,18
 127 476.5 127 476.5 94 552 c 1,19,20
 139 586 139 586 195.5 603 c 128,-1,21
 252 620 252 620 313 620 c 0,22,23
 415 620 415 620 491.5 578 c 128,-1,24
 568 536 568 536 611 462.5 c 128,-1,25
 654 389 654 389 654 294 c 0,26,27
 654 204 654 204 612 133 c 128,-1,28
 570 62 570 62 499 21 c 128,-1,29
 428 -20 428 -20 340 -20 c 0,0,1
342 118 m 0,30,31
 398 118 398 118 438 149.5 c 128,-1,32
 478 181 478 181 494 236 c 1,33,34
 444 225 444 225 396 225 c 2,35,36
 340.5 240 340.5 240 290 225 c 2,37,38
 262 225 262 225 237.5 227.5 c 128,-1,39
 213 230 213 230 190 234 c 1,40,41
 205 180 205 180 244.5 149 c 128,-1,42
 284 118 284 118 342 118 c 0,30,31
EndSplineSet
EndChar

StartChar: uni0292
Encoding: 658 658 304
Width: 660
GlyphClass: 1
Flags: W
LayerCount: 2
Fore
SplineSet
290 -320 m 256,0,1
 205 -320 205 -320 133.5 -282.5 c 128,-1,2
 62 -245 62 -245 18 -184 c 1,3,4
 65 -96.5 65 -96.5 109 -5 c 1,5,6
 125 -68 125 -68 174.5 -113 c 128,-1,7
 224 -158 224 -158 292 -158 c 0,8,9
 338 -158 338 -158 374.5 -137 c 128,-1,10
 411 -116 411 -116 433 -80 c 128,-1,11
 455 -44 455 -44 455 1 c 256,12,13
 455 45 455 45 434 80.5 c 128,-1,14
 413 116 413 116 375.5 137 c 128,-1,15
 338 158 338 158 288 158 c 0,16,17
 258 158 258 158 231 150 c 128,-1,18
 204 142 204 142 175 127 c 1,19,20
 290.5 338.5 290.5 338.5 337 444 c 1,21,22
 237 504 237 504 78 444 c 1,23,24
 98 552 98 552 78 600 c 1,25,26
 320 600 320 600 594 600 c 1,27,28
 457.5 442.5 457.5 442.5 423 281 c 1,29,30
 481 260 481 260 526 218.5 c 128,-1,31
 571 177 571 177 597.5 120 c 128,-1,32
 624 63 624 63 624 -4 c 0,33,34
 624 -93 624 -93 578 -165 c 128,-1,35
 532 -237 532 -237 456 -278.5 c 128,-1,36
 380 -320 380 -320 290 -320 c 256,0,1
EndSplineSet
EndChar

StartChar: f
Encoding: 102 102 306
Width: 450
GlyphClass: 1
Flags: W
LayerCount: 2
Fore
SplineSet
136 0 m 1,0,1
 166 510 l 1,2,3
 24 462 l 129,-1,4
 30 600 l 1,5,-1
 139 600 l 129,-1,-1
 139 753 l 2,6,7
 169 870 169 870 216.5 921 c 128,-1,8
 264 972 264 972 365 972 c 0,9,10
 390 972 390 972 421.5 964.5 c 128,-1,11
 453 957 453 957 477 941 c 1,12,-1
 443 800 l 1,13,14
 418 882 418 882 362 882 c 0,15,16
 349 837 349 837 328 820 c 128,-1,17
 307 803 307 803 307 757 c 2,18,-1
 271 600 l 1,19,20
 426 600 l 129,-1,21
 420 510 l 1,22,23
 310 462 l 129,-1,24
 274 0 l 1,25,-1
 136 0 l 1,0,1
EndSplineSet
EndChar

StartChar: g
Encoding: 103 103 307
Width: 760
GlyphClass: 1
Flags: W
LayerCount: 2
Fore
SplineSet
328 -320 m 0,0,1
 258 -320 258 -320 194.5 -299.5 c 0,2,3
 131 -279 131 -279 85 -244 c 1,4,5
 127 -72 l 1,6,7
 159 -115 159 -115 211 -142.5 c 0,8,9
 263 -170 263 -170 328 -170 c 0,10,11
 420 -170 420 -170 492 -130 c 128,-1,12
 564 -90 564 -90 522 17 c 2,13,14
 522 59 l 1,15,16
 488 24 488 24 440.5 4 c 128,-1,17
 393 -16 393 -16 336 -16 c 0,18,19
 253 -16 253 -16 185 27 c 128,-1,20
 117 70 117 70 85.5 142.5 c 128,-1,21
 54 215 54 215 54 300 c 256,22,23
 36 387 36 387 85.5 456 c 128,-1,24
 135 525 135 525 194 570.5 c 0,25,26
 253 616 253 616 336 616 c 0,27,28
 394 616 394 616 442 595.5 c 128,-1,29
 490 575 490 575 524 539 c 1,30,31
 564 600 l 129,-1,32
 674 600 l 129,-1,33
 674 -8 l 2,34,35
 664 -98 664 -98 621 -172 c 128,-1,36
 578 -246 578 -246 501.5 -279 c 0,37,38
 425 -312 425 -312 328 -320 c 0,0,1
367 90 m 256,39,40
 401 137 401 137 459 142 c 128,-1,41
 517 147 517 147 544.5 194.5 c 128,-1,42
 572 242 572 242 572 300 c 256,43,44
 516 345 516 345 516.5 399 c 128,-1,45
 517 453 517 453 470.5 481.5 c 128,-1,46
 424 510 424 510 367 510 c 256,47,48
 313 463 313 463 265 458 c 128,-1,49
 217 453 217 453 189.5 405.5 c 128,-1,50
 162 358 162 358 162 300 c 256,51,52
 198 255 198 255 207.5 201 c 128,-1,53
 217 147 217 147 263.5 118.5 c 128,-1,54
 310 90 310 90 367 90 c 256,39,40
EndSplineSet
EndChar

StartChar: uni01E5
Encoding: 485 485 313
Width: 740
GlyphClass: 1
Flags: W
LayerCount: 2
Fore
SplineSet
328 -320 m 0,0,1
 258 -320 258 -320 194.5 -299.5 c 128,-1,2
 131 -279 131 -279 85 -244 c 1,3,4
 128 -176 128 -176 127 -72 c 1,5,6
 159 -115 159 -115 211 -142.5 c 128,-1,7
 263 -170 263 -170 328 -170 c 0,8,9
 420 -170 420 -170 471 -117.5 c 128,-1,10
 522 -65 522 -65 522 17 c 2,11,12
 564 42.5 564 42.5 522 59 c 1,13,14
 488 24 488 24 440.5 4 c 128,-1,15
 393 -16 393 -16 336 -16 c 0,16,17
 253 -16 253 -16 185 27 c 128,-1,18
 117 70 117 70 76.5 141.5 c 128,-1,19
 36 213 36 213 36 300 c 384,-1,20
 36 387 36 387 76.5 459 c 128,-1,21
 117 531 117 531 185 573.5 c 128,-1,22
 253 616 253 616 336 616 c 0,23,24
 394 616 394 616 442 595.5 c 128,-1,25
 490 575 490 575 524 539 c 1,26,27
 564 560.5 564 560.5 524 600 c 1,28,29
 614 600 614 600 674 600 c 1,30,31
 664 467 664 467 674 354 c 1,32,33
 699 334 699 334 737 354 c 1,34,35
 734 300 734 300 737 246 c 1,36,37
 699 266 699 266 674 246 c 1,38,39
 664 133 664 133 674 -8 c 2,40,41
 674 -106 674 -106 626 -176 c 128,-1,42
 578 -246 578 -246 499 -283 c 128,-1,43
 420 -320 420 -320 328 -320 c 0,0,1
357 137 m 0,44,45
 409 137 409 137 450 168 c 128,-1,46
 491 199 491 199 507 246 c 1,47,48
 461.5 266 461.5 266 321 246 c 1,49,50
 354 300 354 300 321 354 c 1,51,52
 461.5 334 461.5 334 507 354 c 1,53,54
 491 401 491 401 450 432 c 128,-1,55
 409 463 409 463 357 463 c 0,56,57
 313 463 313 463 277 441 c 128,-1,58
 241 419 241 419 219.5 382 c 128,-1,59
 198 345 198 345 198 300 c 384,-1,60
 198 255 198 255 219.5 218 c 128,-1,61
 241 181 241 181 277 159 c 128,-1,62
 313 137 313 137 357 137 c 0,44,45
EndSplineSet
EndChar

StartChar: h
Encoding: 104 104 314
Width: 700
GlyphClass: 1
Flags: W
LayerCount: 2
Fore
SplineSet
66 0 m 1,0,1
 96 480 96 480 66 960 c 1,2,3
 150 960 150 960 240 960 c 1,4,5
 204 737.5 204 737.5 240 555 c 1,6,7
 272 587 272 587 313.5 603.5 c 128,-1,8
 355 620 355 620 402 620 c 0,9,10
 466 620 466 620 521.5 589.5 c 128,-1,11
 577 559 577 559 611.5 500.5 c 128,-1,12
 646 442 646 442 646 359 c 2,13,14
 636 172.5 636 172.5 646 0 c 1,15,16
 582 0 582 0 472 0 c 1,17,18
 528 165 528 165 472 336 c 2,19,20
 472 386 472 386 442 425 c 128,-1,21
 412 464 412 464 356 464 c 0,22,23
 311 464 311 464 275.5 433.5 c 128,-1,24
 240 403 240 403 240 338 c 2,25,26
 204 166.5 204 166.5 240 0 c 1,27,28
 150 0 150 0 66 0 c 1,0,1
EndSplineSet
EndChar

StartChar: hbar
Encoding: 295 295 315
Width: 720
GlyphClass: 1
Flags: W
LayerCount: 2
Fore
SplineSet
66 0 m 1,0,-1
 96 746 l 129,-1,-1
 9 726 l 129,-1,-1
 30 814 l 129,-1,-1
 66 834 l 129,-1,-1
 96 960 l 129,-1,-1
 228 960 l 129,-1,-1
 198 814 l 129,-1,-1
 425 834 l 129,-1,-1
 410 746 l 129,-1,-1
 228 726 l 129,-1,-1
 228 542 l 1,1,2
 260 580 260 580 297.5 596 c 128,-1,3
 335 612 335 612 402 620 c 0,4,5
 466 620 466 620 521.5 589.5 c 128,-1,6
 577 559 577 559 606.5 494.5 c 128,-1,7
 636 430 636 430 646 359 c 2,8,-1
 636 0 l 129,-1,-1
 478 0 l 129,-1,-1
 478 329 l 2,9,10
 528 401 528 401 471.5 432.5 c 128,-1,11
 415 464 415 464 356 464 c 0,12,13
 303 510 303 510 253.5 464.5 c 128,-1,14
 204 419 204 419 234 331 c 2,15,-1
 204 0 l 129,-1,-1
 66 0 l 1,0,-1
EndSplineSet
EndChar

StartChar: dotlessi
Encoding: 305 305 318
Width: 310
GlyphClass: 1
Flags: W
LayerCount: 2
Fore
SplineSet
68 0 m 1,0,1
 96 300 96 300 68 600 c 1,2,3
 150 600 150 600 242 600 c 1,4,5
 204 300 204 300 242 0 c 1,6,7
 150 0 150 0 68 0 c 1,0,1
EndSplineSet
EndChar

StartChar: iogonek
Encoding: 303 303 331
Width: 300
GlyphClass: 1
Flags: W
LayerCount: 2
Fore
SplineSet
205 -312 m 1,0,1
 134 -318 134 -318 77 -278 c 128,-1,2
 20 -238 20 -238 20 -153 c 0,3,4
 40 -113 40 -113 55 -75 c 128,-1,5
 70 -37 70 -37 96 0 c 1,6,-1
 68 600 l 129,-1,-1
 204 600 l 129,-1,-1
 242 0 l 1,7,8
 211 -29 211 -29 190.5 -56.5 c 128,-1,9
 170 -84 170 -84 170 -116 c 0,10,11
 170 -153 170 -153 193.5 -171 c 128,-1,12
 217 -189 217 -189 251 -190 c 1,13,-1
 205 -312 l 1,0,1
150 708 m 0,14,15
 116 687 116 687 97 718.5 c 128,-1,16
 78 750 78 750 78 780 c 0,17,18
 62 820 62 820 91 836 c 128,-1,19
 120 852 120 852 150 852 c 0,20,21
 195 873 195 873 208.5 842 c 128,-1,22
 222 811 222 811 222 780 c 0,23,24
 248 741 248 741 214.5 724.5 c 128,-1,25
 181 708 181 708 150 708 c 0,14,15
EndSplineSet
EndChar

StartChar: uni0237
Encoding: 567 567 334
Width: 310
GlyphClass: 1
Flags: W
LayerCount: 2
Fore
SplineSet
37 -312 m 1,0,1
 20 -265.5 20 -265.5 4 -173 c 1,2,3
 37 -173 37 -173 54 -155.5 c 128,-1,4
 71 -138 71 -138 71 -99 c 2,5,6
 96 239 96 239 71 600 c 1,7,8
 150 600 150 600 245 600 c 1,9,10
 204 238 204 238 245 -99 c 2,11,12
 245 -200 245 -200 186.5 -256 c 128,-1,13
 128 -312 128 -312 37 -312 c 1,0,1
EndSplineSet
EndChar

StartChar: k
Encoding: 107 107 337
Width: 670
GlyphClass: 1
Flags: W
LayerCount: 2
Fore
SplineSet
465 0 m 1,0,1
 351.5 165 351.5 165 226 330 c 1,2,3
 327.5 465 327.5 465 423 600 c 1,4,5
 501.5 600 501.5 600 610 600 c 1,6,7
 454.5 469 454.5 469 416 345 c 1,8,9
 484.5 169 484.5 169 670 0 c 1,10,11
 555.5 0 555.5 0 465 0 c 1,0,1
66 0 m 1,12,13
 96 480 96 480 66 960 c 1,14,15
 150 960 150 960 240 960 c 1,16,17
 204 480 204 480 240 0 c 1,18,19
 150 0 150 0 66 0 c 1,12,13
EndSplineSet
EndChar

StartChar: kgreenlandic
Encoding: 312 312 340
Width: 670
GlyphClass: 1
Flags: W
LayerCount: 2
Fore
SplineSet
463 0 m 1,0,1
 351.5 165 351.5 165 222 330 c 1,2,3
 327.5 465 327.5 465 418 600 c 1,4,5
 501.5 600 501.5 600 605 600 c 1,6,7
 454.5 469 454.5 469 415 342 c 1,8,9
 484.5 169 484.5 169 668 0 c 1,10,11
 555.5 0 555.5 0 463 0 c 1,0,1
66 0 m 1,12,13
 96 300 96 300 66 600 c 1,14,15
 150 600 150 600 234 600 c 1,16,17
 204 300 204 300 234 0 c 1,18,19
 150 0 150 0 66 0 c 1,12,13
EndSplineSet
EndChar

StartChar: l
Encoding: 108 108 341
Width: 310
GlyphClass: 1
Flags: W
LayerCount: 2
Fore
SplineSet
68 0 m 1,0,1
 96 480 96 480 68 960 c 1,2,3
 150 960 150 960 242 960 c 1,4,5
 204 480 204 480 242 0 c 1,6,7
 150 0 150 0 68 0 c 1,0,1
EndSplineSet
EndChar

StartChar: lslash
Encoding: 322 322 347
Width: 370
GlyphClass: 1
Flags: W
LayerCount: 2
Fore
SplineSet
98 0 m 1,0,1
 126 202 126 202 98 368 c 1,2,3
 78 372.5 78 372.5 30 323 c 1,4,5
 11 371 11 371 -21 403 c 1,6,7
 59 445 59 445 98 481 c 1,8,9
 126 724.5 126 724.5 98 960 c 1,10,11
 180 960 180 960 272 960 c 1,12,13
 234 760 234 760 272 596 c 1,14,15
 279 589.5 279 589.5 334 637 c 1,16,17
 343 589 343 589 385 557 c 1,18,19
 298 517 298 517 272 483 c 1,20,21
 234 237.5 234 237.5 272 0 c 1,22,23
 180 0 180 0 98 0 c 1,0,1
EndSplineSet
EndChar

StartChar: l.ss03
Encoding: 65566 -1 348
Width: 330
GlyphClass: 1
Flags: W
LayerCount: 2
Fore
SplineSet
271 -12 m 1,0,1
 180 -12 180 -12 121.5 44 c 128,-1,2
 63 100 63 100 63 201 c 2,3,4
 96 568 96 568 63 960 c 1,5,6
 150 960 150 960 237 960 c 1,7,8
 204 569 204 569 237 201 c 2,9,10
 237 162 237 162 254 144.5 c 128,-1,11
 271 127 271 127 304 127 c 1,12,13
 280 34.5 280 34.5 271 -12 c 1,0,1
EndSplineSet
EndChar

StartChar: lslash.ss03
Encoding: 65571 -1 353
Width: 390
GlyphClass: 1
Flags: W
LayerCount: 2
Fore
SplineSet
301 -12 m 1,0,1
 210 -12 210 -12 151.5 44 c 128,-1,2
 93 100 93 100 93 201 c 2,3,4
 126 290 126 290 93 368 c 1,5,6
 78 372.5 78 372.5 25 323 c 1,7,8
 11 371 11 371 -26 403 c 1,9,10
 59 445 59 445 93 481 c 1,11,12
 126 724.5 126 724.5 93 960 c 1,13,14
 180 960 180 960 267 960 c 1,15,16
 234 760 234 760 267 596 c 1,17,18
 279 589.5 279 589.5 329 637 c 1,19,20
 343 589 343 589 380 557 c 1,21,22
 298 517 298 517 267 483 c 1,23,24
 234 326.5 234 326.5 267 201 c 2,25,26
 267 162 267 162 284 144.5 c 128,-1,27
 301 127 301 127 334 127 c 1,28,29
 310 34.5 310 34.5 301 -12 c 1,0,1
EndSplineSet
EndChar

StartChar: m
Encoding: 109 109 354
Width: 1080
GlyphClass: 1
Flags: W
LayerCount: 2
Fore
SplineSet
66 0 m 1,0,1
 96 300 96 300 66 600 c 1,2,3
 146 600 146 600 222 600 c 1,4,5
 196 557 196 557 222 534 c 1,6,7
 254 576 254 576 301.5 598 c 128,-1,8
 349 620 349 620 401 620 c 0,9,10
 454 620 454 620 501 598 c 128,-1,11
 548 576 548 576 580 534 c 1,12,13
 615 576 615 576 667 598 c 128,-1,14
 719 620 719 620 780 620 c 0,15,16
 844 620 844 620 900 590.5 c 128,-1,17
 956 561 956 561 991 504.5 c 128,-1,18
 1026 448 1026 448 1026 367 c 2,19,20
 1036 177.5 1036 177.5 1026 0 c 1,21,22
 982 0 982 0 852 0 c 1,23,24
 928 171 928 171 852 342 c 2,25,26
 852 390 852 390 824 427 c 128,-1,27
 796 464 796 464 743 464 c 0,28,29
 715 464 715 464 689.5 450.5 c 128,-1,30
 664 437 664 437 648.5 410.5 c 128,-1,31
 633 384 633 384 633 344 c 2,32,33
 620 172.5 620 172.5 633 0 c 1,34,35
 566 0 566 0 459 0 c 1,36,37
 512 171 512 171 459 342 c 2,38,39
 459 374 459 374 446.5 402 c 128,-1,40
 434 430 434 430 409.5 447 c 128,-1,41
 385 464 385 464 350 464 c 0,42,43
 322 464 322 464 296.5 450.5 c 128,-1,44
 271 437 271 437 255.5 410.5 c 128,-1,45
 240 384 240 384 240 344 c 2,46,47
 204 172.5 204 172.5 240 0 c 1,48,49
 150 0 150 0 66 0 c 1,0,1
EndSplineSet
EndChar

StartChar: n
Encoding: 110 110 355
Width: 700
GlyphClass: 1
Flags: W
LayerCount: 2
Fore
SplineSet
66 0 m 1,0,1
 96 300 96 300 66 600 c 1,2,3
 146 600 146 600 222 600 c 1,4,5
 196 551.5 196 551.5 222 534 c 1,6,7
 254 576 254 576 301 598 c 128,-1,8
 348 620 348 620 402 620 c 0,9,10
 466 620 466 620 521.5 589.5 c 128,-1,11
 577 559 577 559 611.5 500.5 c 128,-1,12
 646 442 646 442 646 359 c 2,13,14
 636 172.5 636 172.5 646 0 c 1,15,16
 582 0 582 0 472 0 c 1,17,18
 528 165 528 165 472 336 c 2,19,20
 472 386 472 386 442 425 c 128,-1,21
 412 464 412 464 356 464 c 0,22,23
 311 464 311 464 275.5 433.5 c 128,-1,24
 240 403 240 403 240 338 c 2,25,26
 204 166.5 204 166.5 240 0 c 1,27,28
 150 0 150 0 66 0 c 1,0,1
EndSplineSet
EndChar

StartChar: eng
Encoding: 331 331 361
Width: 700
GlyphClass: 1
Flags: W
LayerCount: 2
Fore
SplineSet
437 -312 m 1,0,1
 452 -265.5 452 -265.5 404 -173 c 1,2,3
 438 -173 438 -173 455 -155.5 c 128,-1,4
 472 -138 472 -138 472 -99 c 2,5,6
 528 104 528 104 472 336 c 2,7,8
 472 386 472 386 442 425 c 128,-1,9
 412 464 412 464 356 464 c 0,10,11
 311 464 311 464 275.5 433.5 c 128,-1,12
 240 403 240 403 240 338 c 2,13,14
 204 166.5 204 166.5 240 0 c 1,15,16
 150 0 150 0 66 0 c 1,17,18
 96 300 96 300 66 600 c 1,19,20
 146 600 146 600 222 600 c 1,21,22
 196 551.5 196 551.5 222 534 c 1,23,24
 254 576 254 576 301 598 c 128,-1,25
 348 620 348 620 402 620 c 0,26,27
 466 620 466 620 521.5 589.5 c 128,-1,28
 577 559 577 559 611.5 500.5 c 128,-1,29
 646 442 646 442 646 359 c 2,30,31
 636 110.5 636 110.5 646 -99 c 2,32,33
 646 -200 646 -200 586.5 -256 c 128,-1,34
 527 -312 527 -312 437 -312 c 1,0,1
EndSplineSet
EndChar

StartChar: o
Encoding: 111 111 362
Width: 740
GlyphClass: 1
Flags: W
LayerCount: 2
Fore
SplineSet
370 -12 m 0,0,1
 271 -20 271 -20 205 26 c 128,-1,2
 139 72 139 72 96.5 143 c 128,-1,3
 54 214 54 214 54 300 c 0,4,5
 36 389 36 389 87.5 458.5 c 128,-1,6
 139 528 139 528 211 570 c 128,-1,7
 283 612 283 612 370 612 c 0,8,9
 450 620 450 620 525.5 574 c 128,-1,10
 601 528 601 528 643.5 457.5 c 128,-1,11
 686 387 686 387 686 300 c 0,12,13
 684 212 684 212 642.5 142 c 128,-1,14
 601 72 601 72 529.5 30 c 128,-1,15
 458 -12 458 -12 370 -12 c 0,0,1
370 90 m 256,16,17
 405 136 405 136 441.5 158 c 128,-1,18
 478 180 478 180 528 211 c 128,-1,19
 578 242 578 242 578 300 c 256,20,21
 521 346 521 346 521.5 399.5 c 128,-1,22
 522 453 522 453 475 481.5 c 128,-1,23
 428 510 428 510 370 510 c 256,24,25
 315 464 315 464 266.5 458.5 c 128,-1,26
 218 453 218 453 208.5 399.5 c 128,-1,27
 199 346 199 346 162 300 c 256,28,29
 162 242 162 242 202 211 c 128,-1,30
 242 180 242 180 277 135 c 128,-1,31
 312 90 312 90 370 90 c 256,16,17
EndSplineSet
EndChar

StartChar: ohorn
Encoding: 417 417 378
Width: 770
GlyphClass: 1
Flags: W
LayerCount: 2
Fore
SplineSet
370 -12 m 0,0,1
 271 -20 271 -20 205 26 c 128,-1,2
 139 72 139 72 96.5 143 c 128,-1,3
 54 214 54 214 54 300 c 0,4,5
 36 389 36 389 87.5 458.5 c 128,-1,6
 139 528 139 528 211 570 c 128,-1,7
 283 612 283 612 360 620 c 0,8,9
 447 612 447 612 504.5 586 c 128,-1,10
 562 560 562 560 606 508 c 1,11,12
 614 519 614 519 618 534 c 128,-1,13
 622 549 622 549 622 568 c 0,14,15
 656 586 656 586 651 610.5 c 128,-1,16
 646 635 646 635 632 660 c 1,17,-1
 742 660 l 1,18,19
 736 636 736 636 741 613 c 128,-1,20
 746 590 746 590 766 568 c 0,21,22
 766 504 766 504 737 462.5 c 128,-1,23
 708 421 708 421 666 406 c 1,24,25
 684 357 684 357 684 300 c 0,26,27
 686 214 686 214 643.5 143 c 128,-1,28
 601 72 601 72 529.5 30 c 128,-1,29
 458 -12 458 -12 370 -12 c 0,0,1
162 300 m 256,30,31
 162 242 162 242 202 211 c 128,-1,32
 242 180 242 180 277 135 c 128,-1,33
 312 90 312 90 370 90 c 256,34,35
 405 136 405 136 441.5 158 c 128,-1,36
 478 180 478 180 528 211 c 128,-1,37
 578 242 578 242 578 300 c 256,38,39
 521 346 521 346 521.5 399.5 c 128,-1,40
 522 453 522 453 475 481.5 c 128,-1,41
 428 510 428 510 370 510 c 256,42,43
 315 464 315 464 266.5 458.5 c 128,-1,44
 218 453 218 453 208.5 399.5 c 128,-1,45
 199 346 199 346 162 300 c 256,30,31
EndSplineSet
EndChar

StartChar: uni01EB
Encoding: 491 491 387
Width: 740
GlyphClass: 1
Flags: W
LayerCount: 2
Fore
SplineSet
455 -312 m 1,0,1
 369 -318 369 -318 312 -278 c 128,-1,2
 255 -238 255 -238 255 -153 c 0,3,4
 290 -116 290 -116 285.5 -82.5 c 128,-1,5
 281 -49 281 -49 304 -15 c 1,6,7
 228 -2 228 -2 167.5 43 c 128,-1,8
 107 88 107 88 71.5 154.5 c 128,-1,9
 36 221 36 221 36 300 c 0,10,11
 54 387 54 387 96.5 457.5 c 128,-1,12
 139 528 139 528 211 570 c 128,-1,13
 283 612 283 612 370 612 c 0,14,15
 450 620 450 620 525.5 574 c 128,-1,16
 601 528 601 528 643.5 457.5 c 128,-1,17
 686 387 686 387 684 300 c 0,18,19
 684 229 684 229 655.5 167.5 c 128,-1,20
 627 106 627 106 576.5 61.5 c 128,-1,21
 526 17 526 17 461 -4 c 1,22,23
 436 -32 436 -32 420.5 -58.5 c 128,-1,24
 405 -85 405 -85 390 -134 c 0,25,26
 405 -153 405 -153 428.5 -171 c 128,-1,27
 452 -189 452 -189 486 -190 c 1,28,-1
 455 -312 l 1,0,1
370 90 m 256,29,30
 405 136 405 136 441.5 158 c 128,-1,31
 478 180 478 180 528 211 c 128,-1,32
 578 242 578 242 578 300 c 256,33,34
 521 346 521 346 521.5 399.5 c 128,-1,35
 522 453 522 453 475 481.5 c 128,-1,36
 428 510 428 510 370 510 c 256,37,38
 315 464 315 464 266.5 458.5 c 128,-1,39
 218 453 218 453 208.5 399.5 c 128,-1,40
 199 346 199 346 162 300 c 256,41,42
 162 242 162 242 202 211 c 128,-1,43
 242 180 242 180 277 135 c 128,-1,44
 312 90 312 90 370 90 c 256,29,30
EndSplineSet
EndChar

StartChar: oslash
Encoding: 248 248 388
Width: 720
GlyphClass: 1
Flags: W
LayerCount: 2
Fore
SplineSet
151 -25 m 1,0,1
 122.5 8.5 122.5 8.5 74 42 c 1,2,3
 114.5 62 114.5 62 115 91 c 1,4,5
 78 133 78 133 57 186.5 c 128,-1,6
 36 240 36 240 36 300 c 0,7,8
 36 389 36 389 79.5 461.5 c 128,-1,9
 123 534 123 534 197 577 c 128,-1,10
 271 620 271 620 360 620 c 0,11,12
 405 620 405 620 446 608.5 c 128,-1,13
 487 597 487 597 523 577 c 1,14,15
 559 591 559 591 563 624 c 1,16,17
 611.5 590.5 611.5 590.5 640 557 c 1,18,19
 621 539 621 539 602 512 c 1,20,21
 640 470 640 470 662 416 c 128,-1,22
 684 362 684 362 684 300 c 0,23,24
 684 212 684 212 640.5 139 c 128,-1,25
 597 66 597 66 523.5 23 c 128,-1,26
 450 -20 450 -20 360 -20 c 0,27,28
 314 -20 314 -20 272 -8 c 128,-1,29
 230 4 230 4 193 25 c 1,30,31
 176 9.5 176 9.5 151 -25 c 1,0,1
217 212 m 1,32,33
 337.5 327.5 337.5 327.5 423 457 c 1,34,35
 396 470 396 470 360 470 c 0,36,37
 314 470 314 470 276 447 c 128,-1,38
 238 424 238 424 215.5 385.5 c 128,-1,39
 193 347 193 347 193 300 c 0,40,41
 193 254 193 254 217 212 c 1,32,33
360 130 m 0,42,43
 406 130 406 130 444 153 c 128,-1,44
 482 176 482 176 504.5 214.5 c 128,-1,45
 527 253 527 253 527 300 c 0,46,47
 527 326 527 326 520 349 c 128,-1,48
 513 372 513 372 501 391 c 1,49,50
 399 275 399 275 293 144 c 1,51,52
 324 130 324 130 360 130 c 0,42,43
EndSplineSet
EndChar

StartChar: oe
Encoding: 339 339 392
Width: 1140
GlyphClass: 1
Flags: W
LayerCount: 2
Fore
SplineSet
360 -20 m 0,0,1
 271 -20 271 -20 197 23 c 128,-1,2
 123 66 123 66 79.5 139 c 128,-1,3
 36 212 36 212 36 300 c 0,4,5
 36 389 36 389 79.5 461.5 c 128,-1,6
 123 534 123 534 197 577 c 128,-1,7
 271 620 271 620 360 620 c 0,8,9
 425 620 425 620 481.5 597 c 128,-1,10
 538 574 538 574 581 534 c 1,11,12
 624 575 624 575 680 597.5 c 128,-1,13
 736 620 736 620 800 620 c 0,14,15
 889 620 889 620 959 579.5 c 128,-1,16
 1029 539 1029 539 1069.5 469 c 128,-1,17
 1110 399 1110 399 1110 310 c 2,18,19
 1162 292 1162 292 1110 249 c 1,20,21
 966 270 966 270 714 249 c 2,22,23
 698 249 698 249 682.5 250.5 c 128,-1,24
 667 252 667 252 651 254 c 1,25,26
 665 196 665 196 711.5 160 c 128,-1,27
 758 124 758 124 831 124 c 0,28,29
 888 124 888 124 933.5 147 c 128,-1,30
 979 170 979 170 1008 204 c 1,31,32
 1083 123.5 1083 123.5 1046 48 c 1,33,34
 1001 14 1001 14 944.5 -3 c 128,-1,35
 888 -20 888 -20 827 -20 c 0,36,37
 752 -20 752 -20 690.5 3.5 c 128,-1,38
 629 27 629 27 584 68 c 1,39,40
 541 28 541 28 483 4 c 128,-1,41
 425 -20 425 -20 360 -20 c 0,0,1
360 136 m 256,42,43
 405 136 405 136 441.5 158 c 128,-1,44
 478 180 478 180 499.5 217.5 c 128,-1,45
 521 255 521 255 521 300 c 256,46,47
 521 346 521 346 499.5 383 c 128,-1,48
 478 420 478 420 441.5 442 c 128,-1,49
 405 464 405 464 360 464 c 384,-1,50
 315 464 315 464 278.5 442 c 128,-1,51
 242 420 242 420 220.5 383 c 128,-1,52
 199 346 199 346 199 300 c 256,53,54
 199 255 199 255 220.5 217.5 c 128,-1,55
 242 180 242 180 278.5 158 c 128,-1,56
 315 136 315 136 360 136 c 256,42,43
647 370 m 1,57,58
 664 372 664 372 680.5 373.5 c 128,-1,59
 697 375 697 375 714 375 c 2,60,61
 869.5 360 869.5 360 850 375 c 2,62,63
 878 375 878 375 903 373 c 128,-1,64
 928 371 928 371 950 366 c 1,65,66
 935 420 935 420 895.5 451 c 128,-1,67
 856 482 856 482 798 482 c 0,68,69
 744 482 744 482 704 452 c 128,-1,70
 664 422 664 422 647 370 c 1,57,58
EndSplineSet
EndChar

StartChar: p
Encoding: 112 112 393
Width: 760
GlyphClass: 1
Flags: W
LayerCount: 2
Fore
SplineSet
66 -300 m 1,0,-1
 96 600 l 129,-1,-1
 216 600 l 129,-1,-1
 216 541 l 1,1,2
 251 576 251 576 298.5 596 c 128,-1,3
 346 616 346 616 403 616 c 0,4,5
 490 608 490 608 556.5 569.5 c 128,-1,6
 623 531 623 531 664.5 458 c 128,-1,7
 706 385 706 385 706 300 c 256,8,9
 704 213 704 213 663.5 141.5 c 128,-1,10
 623 70 623 70 556.5 31 c 128,-1,11
 490 -8 490 -8 403 -16 c 0,12,13
 355 -16 355 -16 314 -1.5 c 128,-1,14
 273 13 273 13 240 38 c 1,15,-1
 204 -300 l 129,-1,-1
 66 -300 l 1,0,-1
393 90 m 256,16,17
 427 137 427 137 485 142 c 128,-1,18
 543 147 543 147 570.5 194.5 c 128,-1,19
 598 242 598 242 598 300 c 256,20,21
 542 345 542 345 542.5 399 c 128,-1,22
 543 453 543 453 496.5 481.5 c 128,-1,23
 450 510 450 510 393 510 c 256,24,25
 339 463 339 463 291 458 c 128,-1,26
 243 453 243 453 215.5 405.5 c 128,-1,27
 188 358 188 358 188 300 c 256,28,29
 224 255 224 255 233.5 201 c 128,-1,30
 243 147 243 147 289.5 118.5 c 128,-1,31
 336 90 336 90 393 90 c 256,16,17
EndSplineSet
EndChar

StartChar: thorn
Encoding: 254 254 394
Width: 760
GlyphClass: 1
Flags: W
LayerCount: 2
Fore
SplineSet
66 -300 m 1,0,-1
 96 960 l 129,-1,-1
 240 960 l 129,-1,-1
 240 562 l 1,1,2
 273 588 273 588 314 602 c 128,-1,3
 355 616 355 616 403 616 c 0,4,5
 490 608 490 608 556.5 569.5 c 128,-1,6
 623 531 623 531 664.5 458 c 128,-1,7
 706 385 706 385 706 300 c 256,8,9
 704 213 704 213 663.5 141.5 c 128,-1,10
 623 70 623 70 556.5 31 c 128,-1,11
 490 -8 490 -8 403 -16 c 0,12,13
 355 -16 355 -16 314 -1.5 c 128,-1,14
 273 13 273 13 240 38 c 1,15,-1
 204 -300 l 129,-1,-1
 66 -300 l 1,0,-1
393 90 m 256,16,17
 427 137 427 137 485 142 c 128,-1,18
 543 147 543 147 570.5 194.5 c 128,-1,19
 598 242 598 242 598 300 c 256,20,21
 542 345 542 345 542.5 399 c 128,-1,22
 543 453 543 453 496.5 481.5 c 128,-1,23
 450 510 450 510 393 510 c 256,24,25
 339 463 339 463 291 458 c 128,-1,26
 243 453 243 453 215.5 405.5 c 128,-1,27
 188 358 188 358 188 300 c 256,28,29
 224 255 224 255 233.5 201 c 128,-1,30
 243 147 243 147 289.5 118.5 c 128,-1,31
 336 90 336 90 393 90 c 256,16,17
EndSplineSet
EndChar

StartChar: q
Encoding: 113 113 395
Width: 760
GlyphClass: 1
Flags: W
LayerCount: 2
Fore
SplineSet
500 -300 m 1,0,-1
 500 38 l 1,1,2
 467 13 467 13 426 -1.5 c 128,-1,3
 385 -16 385 -16 337 -16 c 0,4,5
 253 -16 253 -16 185 27 c 128,-1,6
 117 70 117 70 85.5 142.5 c 128,-1,7
 54 215 54 215 54 300 c 256,8,9
 36 387 36 387 85.5 456 c 128,-1,10
 135 525 135 525 194 570.5 c 128,-1,11
 253 616 253 616 337 616 c 0,12,13
 394 616 394 616 442 596 c 128,-1,14
 490 576 490 576 524 541 c 1,15,-1
 564 600 l 129,-1,-1
 674 600 l 129,-1,-1
 664 -300 l 129,-1,-1
 500 -300 l 1,0,-1
367 90 m 256,16,17
 401 137 401 137 459 142 c 128,-1,18
 517 147 517 147 544.5 194.5 c 128,-1,19
 572 242 572 242 572 300 c 256,20,21
 516 345 516 345 516.5 399 c 128,-1,22
 517 453 517 453 470.5 481.5 c 128,-1,23
 424 510 424 510 367 510 c 256,24,25
 313 463 313 463 265 458 c 128,-1,26
 217 453 217 453 189.5 405.5 c 128,-1,27
 162 358 162 358 162 300 c 256,28,29
 198 255 198 255 207.5 201 c 128,-1,30
 217 147 217 147 263.5 118.5 c 128,-1,31
 310 90 310 90 367 90 c 256,16,17
EndSplineSet
EndChar

StartChar: r
Encoding: 114 114 396
Width: 720
GlyphClass: 1
Flags: W
LayerCount: 2
Fore
SplineSet
96 0 m 1,0,1
 96 600 l 1,2,3
 196 600 l 1,4,5
 196 503 l 1,6,7
 229 556 229 556 281.5 584 c 0,8,9
 334 612 334 612 395 612 c 0,10,11
 459 612 459 612 513.5 580.5 c 128,-1,12
 568 549 568 549 602 489.5 c 128,-1,13
 636 430 636 430 636 345 c 2,14,-1
 636 0 l 1,15,16
 528 0 l 129,-1,17
 528 330 l 2,18,19
 528 401 528 401 485.5 455.5 c 0,20,21
 443 510 443 510 366 510 c 0,22,23
 303 510 303 510 253.5 464.5 c 128,-1,18
 204 419 204 419 204 333 c 2,19,-1
 204 0 l 1,20,-1
 96 0 l 1,0,1
EndSplineSet
EndChar

StartChar: s
Encoding: 115 115 402
Width: 530
GlyphClass: 1
Flags: W
LayerCount: 2
Fore
SplineSet
263 -20 m 0,0,1
 202 -20 202 -20 139.5 0 c 128,-1,2
 77 20 77 20 42 54 c 1,3,-1
 77 123 77 123 85 218 c 1,4,5
 114 178 114 178 165.5 148 c 128,-1,6
 217 118 217 118 272 118 c 0,7,8
 309 118 309 118 325.5 132 c 128,-1,9
 342 146 342 146 342 166 c 0,10,11
 342 189 342 189 325 199.5 c 128,-1,12
 308 210 308 210 290 217 c 2,13,-1
 242.5 258.5 242.5 258.5 206 249 c 2,14,15
 178 260 178 260 142 279 c 128,-1,16
 106 298 106 298 79.5 333 c 128,-1,17
 53 368 53 368 53 425 c 0,18,19
 53 477 53 477 79 521 c 128,-1,20
 105 565 105 565 154.5 592.5 c 128,-1,21
 204 620 204 620 274 620 c 0,22,23
 339 620 339 620 395.5 598 c 128,-1,24
 452 576 452 576 478 549 c 1,25,-1
 421 483 421 483 438 391 c 1,26,27
 404 435 404 435 357.5 458.5 c 128,-1,28
 311 482 311 482 269 482 c 0,29,30
 237 482 237 482 222 469 c 128,-1,31
 207 456 207 456 207 439 c 0,32,33
 207 426 207 426 217.5 413.5 c 128,-1,34
 228 401 228 401 253 391 c 2,35,-1
 272.5 354.5 272.5 354.5 331 362 c 2,36,37
 365 350 365 350 403.5 330 c 128,-1,38
 442 310 442 310 469 274.5 c 128,-1,39
 496 239 496 239 496 177 c 0,40,41
 496 90 496 90 431.5 35 c 128,-1,42
 367 -20 367 -20 263 -20 c 0,0,1
EndSplineSet
EndChar

StartChar: scedilla
Encoding: 351 351 405
Width: 530
GlyphClass: 1
Flags: W
LayerCount: 2
Fore
SplineSet
-9 -192 m 1,0,-1
 109 -93 109 -93 179 -11 c 1,1,2
 138 -2 138 -2 101.5 15 c 128,-1,3
 65 32 65 32 42 54 c 1,4,-1
 77 123 77 123 85 218 c 1,5,6
 114 178 114 178 165.5 148 c 128,-1,7
 217 118 217 118 272 118 c 0,8,9
 309 118 309 118 325.5 132 c 128,-1,10
 342 146 342 146 342 166 c 0,11,12
 342 189 342 189 325 199.5 c 128,-1,13
 308 210 308 210 290 217 c 2,14,-1
 242.5 258.5 242.5 258.5 206 249 c 2,15,16
 178 260 178 260 142 279 c 128,-1,17
 106 298 106 298 79.5 333 c 128,-1,18
 53 368 53 368 53 425 c 0,19,20
 53 477 53 477 79 521 c 128,-1,21
 105 565 105 565 154.5 592.5 c 128,-1,22
 204 620 204 620 274 620 c 0,23,24
 339 620 339 620 395.5 598 c 128,-1,25
 452 576 452 576 478 549 c 1,26,-1
 421 483 421 483 438 391 c 1,27,28
 404 435 404 435 357.5 458.5 c 128,-1,29
 311 482 311 482 269 482 c 0,30,31
 237 482 237 482 222 469 c 128,-1,32
 207 456 207 456 207 439 c 0,33,34
 207 426 207 426 217.5 413.5 c 128,-1,35
 228 401 228 401 253 391 c 2,36,-1
 272.5 354.5 272.5 354.5 331 362 c 2,37,38
 365 350 365 350 403.5 330 c 128,-1,39
 442 310 442 310 469 274.5 c 128,-1,40
 496 239 496 239 496 177 c 0,41,42
 496 105 496 105 451 54.5 c 128,-1,43
 406 4 406 4 331 -13 c 1,44,-1
 235 -93 235 -93 206 -192 c 1,45,-1
 94.5 -180 94.5 -180 -9 -192 c 1,0,-1
EndSplineSet
EndChar

StartChar: germandbls
Encoding: 223 223 408
Width: 750
GlyphClass: 1
Flags: W
LayerCount: 2
Fore
SplineSet
364 -17 m 1,0,-1
 349 36 349 36 327 139 c 1,1,2
 376 142 376 142 416 164 c 128,-1,3
 456 186 456 186 480 225.5 c 128,-1,4
 504 265 504 265 504 319 c 0,5,6
 504 402 504 402 449 460.5 c 128,-1,7
 394 519 394 519 303 552 c 1,8,9
 368 588 368 588 400.5 632 c 128,-1,10
 433 676 433 676 433 721 c 256,11,12
 433 766 433 766 405.5 795 c 128,-1,13
 378 824 378 824 337 824 c 0,14,15
 295 824 295 824 267.5 794.5 c 128,-1,16
 240 765 240 765 240 718 c 2,17,-1
 204 363.5 204 363.5 240 0 c 1,18,-1
 150 0 150 0 66 0 c 1,19,-1
 96 363.5 96 363.5 66 719 c 2,20,21
 66 798 66 798 103 856.5 c 128,-1,22
 140 915 140 915 201 947.5 c 128,-1,23
 262 980 262 980 335 980 c 0,24,25
 409 980 409 980 467.5 949 c 128,-1,26
 526 918 526 918 560.5 863.5 c 128,-1,27
 595 809 595 809 595 740 c 0,28,29
 595 697 595 697 580 660 c 128,-1,30
 565 623 565 623 538 594 c 1,31,32
 605 551 605 551 644.5 480 c 128,-1,33
 684 409 684 409 684 321 c 0,34,35
 684 225 684 225 638 148.5 c 128,-1,36
 592 72 592 72 519 27.5 c 128,-1,37
 446 -17 446 -17 364 -17 c 1,0,-1
EndSplineSet
EndChar

StartChar: t
Encoding: 116 116 409
Width: 450
GlyphClass: 1
Flags: W
LayerCount: 2
Fore
SplineSet
166 0 m 1,0,-1
 136 462 l 1,1,-1
 30 510 l 1,2,-1
 24 600 l 1,3,-1
 169 600 l 1,4,-1
 139 800 l 1,5,-1
 271 800 l 1,6,-1
 307 600 l 1,7,-1
 420 600 l 1,8,-1
 426 462 l 1,9,-1
 274 510 l 1,10,-1
 310 0 l 1,11,-1
 166 0 l 1,0,-1
EndSplineSet
EndChar

StartChar: tbar
Encoding: 359 359 410
Width: 450
GlyphClass: 1
Flags: W
LayerCount: 2
Fore
SplineSet
166 0 m 1,0,-1
 136 246 l 1,1,-1
 40 266 l 1,2,-1
 34 354 l 1,3,-1
 166 334 l 1,4,-1
 136 462 l 1,5,-1
 30 510 l 1,6,-1
 24 600 l 1,7,-1
 169 600 l 1,8,-1
 139 800 l 1,9,-1
 271 800 l 1,10,-1
 307 600 l 1,11,-1
 420 600 l 1,12,-1
 426 462 l 1,13,-1
 274 510 l 1,14,-1
 310 354 l 1,15,-1
 410 334 l 1,16,-1
 416 246 l 1,17,-1
 274 266 l 1,18,-1
 310 0 l 1,19,-1
 166 0 l 1,0,-1
EndSplineSet
EndChar

StartChar: uni0163
Encoding: 355 355 412
Width: 450
GlyphClass: 1
Flags: W
LayerCount: 2
Fore
SplineSet
-51 -192 m 1,0,-1
 136 0 l 1,1,-1
 166 510 l 1,2,-1
 24 462 l 1,3,-1
 30 600 l 1,4,-1
 139 600 l 1,5,-1
 169 800 l 1,6,-1
 271 800 l 1,7,-1
 307 600 l 1,8,-1
 420 600 l 1,9,-1
 426 462 l 1,10,-1
 274 510 l 1,11,-1
 310 0 l 1,12,-1
 164 -192 l 1,13,-1
 -51 -192 l 1,0,-1
EndSplineSet
EndChar

StartChar: u
Encoding: 117 117 414
Width: 720
GlyphClass: 1
Flags: W
LayerCount: 2
Fore
SplineSet
298 -20 m 0,0,1
 235 -20 235 -20 193.5 15.5 c 128,-1,2
 152 51 152 51 103 104.5 c 128,-1,3
 54 158 54 158 54 241 c 2,4,-1
 84 600 l 1,5,-1
 228 600 l 1,6,-1
 228 264 l 2,7,8
 192 199 192 199 234.5 144.5 c 128,-1,9
 277 90 277 90 354 90 c 0,10,11
 389 136 389 136 452.5 158.5 c 128,-1,12
 516 181 516 181 460 262 c 2,13,-1
 516 600 l 1,14,-1
 634 600 l 1,15,-1
 624 0 l 1,16,-1
 476 0 l 1,17,-1
 476 63 l 1,18,19
 444 23 444 23 397.5 1.5 c 128,-1,20
 351 -20 351 -20 298 -20 c 0,0,1
EndSplineSet
EndChar

StartChar: uhorn
Encoding: 432 432 423
Width: 840
GlyphClass: 1
Flags: W
LayerCount: 2
Fore
SplineSet
298 -20 m 0,0,1
 235 -20 235 -20 193.5 15.5 c 128,-1,2
 152 51 152 51 103 104.5 c 128,-1,3
 54 158 54 158 54 241 c 2,4,-1
 84 600 l 1,5,-1
 228 600 l 1,6,-1
 228 264 l 2,7,8
 228 214 228 214 258.5 175 c 128,-1,9
 289 136 289 136 344 136 c 0,10,11
 389 136 389 136 452.5 158.5 c 128,-1,12
 516 181 516 181 460 262 c 2,13,-1
 516 600 l 1,14,-1
 622 600 l 1,15,-1
 622 494 l 1,16,17
 625 479 625 479 633 477.5 c 128,-1,18
 641 476 641 476 631 494 c 0,19,20
 678 476 678 476 702 497.5 c 128,-1,21
 726 519 726 519 692 568 c 0,22,23
 726 586 726 586 721 610.5 c 128,-1,24
 716 635 716 635 702 660 c 1,25,-1
 812 660 l 1,26,27
 806 636 806 636 811 613 c 128,-1,28
 816 590 816 590 836 568 c 0,29,30
 816 486 816 486 777.5 436 c 128,-1,31
 739 386 739 386 675 386 c 0,32,33
 656 386 656 386 634 391 c 1,34,-1
 624 0 l 1,35,-1
 476 0 l 1,36,-1
 476 63 l 1,37,38
 444 23 444 23 397.5 1.5 c 128,-1,39
 351 -20 351 -20 298 -20 c 0,0,1
EndSplineSet
EndChar

StartChar: uogonek
Encoding: 371 371 432
Width: 700
GlyphClass: 1
Flags: W
LayerCount: 2
Fore
SplineSet
621 -318 m 1,0,1
 534 -318 534 -318 477 -278 c 128,-1,2
 420 -238 420 -238 420 -153 c 0,3,4
 420 -113 420 -113 435.5 -75 c 128,-1,5
 451 -37 451 -37 476 0 c 1,6,-1
 524 48.5 524 48.5 476 63 c 1,7,8
 444 23 444 23 397.5 1.5 c 128,-1,9
 351 -20 351 -20 298 -20 c 0,10,11
 235 -20 235 -20 179 10.5 c 128,-1,12
 123 41 123 41 88.5 99.5 c 128,-1,13
 54 158 54 158 54 241 c 2,14,-1
 84 427.5 84 427.5 54 600 c 1,15,-1
 138 600 138 600 228 600 c 1,16,-1
 192 435 192 435 228 264 c 2,17,18
 228 214 228 214 258.5 175 c 128,-1,19
 289 136 289 136 344 136 c 0,20,21
 389 136 389 136 424.5 168.5 c 128,-1,22
 460 201 460 201 460 262 c 2,23,-1
 516 433.5 516 433.5 460 600 c 1,24,-1
 570 600 570 600 634 600 c 1,25,-1
 624 300 624 300 634 0 c 1,26,27
 605 -29 605 -29 587.5 -56.5 c 128,-1,28
 570 -84 570 -84 570 -116 c 0,29,30
 570 -153 570 -153 593.5 -171 c 128,-1,31
 617 -189 617 -189 651 -190 c 1,32,-1
 640 -265.5 640 -265.5 621 -318 c 1,0,1
EndSplineSet
EndChar

StartChar: v
Encoding: 118 118 435
Width: 670
GlyphClass: 1
Flags: W
LayerCount: 2
Fore
SplineSet
335 -30 m 1,0,-1
 163.5 285 163.5 285 6 600 c 1,1,-1
 73.5 600 73.5 600 199 600 c 1,2,-1
 196 470 196 470 293 407 c 2,3,4
 306 382 306 382 317 357.5 c 128,-1,5
 328 333 328 333 339 302 c 1,6,7
 350 333 350 333 361 357.5 c 128,-1,8
 372 382 372 382 385 407 c 2,9,-1
 441.5 470 441.5 470 479 600 c 1,10,-1
 560.5 600 560.5 600 664 600 c 1,11,-1
 466.5 285 466.5 285 335 -30 c 1,0,-1
EndSplineSet
EndChar

StartChar: w
Encoding: 119 119 436
Width: 1000
GlyphClass: 1
Flags: W
LayerCount: 2
Fore
SplineSet
305 -30 m 1,0,-1
 163.5 285 163.5 285 6 600 c 1,1,-1
 73.5 600 73.5 600 193 600 c 1,2,-1
 195.5 470 195.5 470 285 407 c 2,3,4
 298 382 298 382 311 352.5 c 128,-1,5
 324 323 324 323 337 286 c 1,6,7
 351 321 351 321 364.5 347.5 c 128,-1,8
 378 374 378 374 391 399 c 2,9,-1
 443.5 484 443.5 484 504 620 c 1,10,-1
 564 484 564 484 621 399 c 2,11,12
 633 377 633 377 646.5 350 c 128,-1,13
 660 323 660 323 673 286 c 1,14,15
 686 326 686 326 698.5 354 c 128,-1,16
 711 382 711 382 723 407 c 2,17,-1
 811.5 470 811.5 470 815 600 c 1,18,-1
 930.5 600 930.5 600 994 600 c 1,19,-1
 836.5 285 836.5 285 695 -30 c 1,20,-1
 624 104 624 104 558 201 c 2,21,22
 542 227 542 227 528 254 c 128,-1,23
 514 281 514 281 500 311 c 1,24,25
 487 281 487 281 472.5 254 c 128,-1,26
 458 227 458 227 442 201 c 2,27,-1
 375.5 104 375.5 104 305 -30 c 1,0,-1
EndSplineSet
EndChar

StartChar: x
Encoding: 120 120 441
Width: 640
GlyphClass: 1
Flags: W
LayerCount: 2
Fore
SplineSet
12 0 m 1,0,-1
 129.5 159 129.5 159 219 313 c 1,1,-1
 141 459 141 459 29 600 c 1,2,-1
 110 600 110 600 221 600 c 1,3,-1
 202 554 202 554 279 508 c 2,4,5
 290 491 290 491 300.5 472 c 128,-1,6
 311 453 311 453 321 433 c 1,7,8
 332 453 332 453 342.5 471.5 c 128,-1,9
 353 490 353 490 364 508 c 2,10,-1
 400.5 554 400.5 554 421 600 c 1,11,-1
 491 600 491 600 611 600 c 1,12,-1
 459 459 459 459 420 313 c 1,13,-1
 470.5 159 470.5 159 628 0 c 1,14,-1
 512 0 512 0 434 0 c 1,15,-1
 407 65.5 407 65.5 353 131 c 2,16,17
 344 145 344 145 335 160.5 c 128,-1,18
 326 176 326 176 318 191 c 1,19,20
 310 176 310 176 301 160.5 c 128,-1,21
 292 145 292 145 283 131 c 2,22,-1
 189 65.5 189 65.5 202 0 c 1,23,-1
 86 0 86 0 12 0 c 1,0,-1
EndSplineSet
EndChar

StartChar: y
Encoding: 121 121 442
Width: 690
GlyphClass: 1
Flags: W
LayerCount: 2
Fore
SplineSet
51 -300 m 1,0,-1
 168.5 -106 168.5 -106 251 102 c 1,1,-1
 139 344 139 344 6 600 c 1,2,-1
 73 600 73 600 198 600 c 1,3,-1
 198 470 198 470 304 380 c 2,4,5
 318 350 318 350 328.5 325.5 c 128,-1,6
 339 301 339 301 346 278 c 1,7,8
 354 301 354 301 365 325.5 c 128,-1,9
 376 350 376 350 391 380 c 2,10,-1
 458 470 458 470 499 600 c 1,11,-1
 580.5 600 580.5 600 684 600 c 1,12,-1
 413 150 413 150 238 -300 c 1,13,-1
 129.5 -300 129.5 -300 51 -300 c 1,0,-1
EndSplineSet
EndChar

StartChar: z
Encoding: 122 122 451
Width: 530
GlyphClass: 1
Flags: W
LayerCount: 2
Fore
SplineSet
22 0 m 1,0,-1
 182 252 182 252 265 456 c 1,1,-1
 191 504 191 504 42 456 c 1,2,-1
 58 552 58 552 42 600 c 1,3,-1
 274 600 274 600 508 600 c 1,4,-1
 348 348 348 348 265 144 c 1,5,-1
 340 96 340 96 490 144 c 1,6,-1
 474 48 474 48 490 0 c 1,7,-1
 257 0 257 0 22 0 c 1,0,-1
EndSplineSet
EndChar

StartChar: ordfeminine
Encoding: 170 170 455
Width: 480
GlyphClass: 1
Flags: W
LayerCount: 2
Fore
SplineSet
214 412 m 0,0,1
 172 412 172 412 131 437.5 c 128,-1,2
 90 463 90 463 66 505.5 c 128,-1,3
 42 548 42 548 42 600 c 256,4,5
 42 652 42 652 66.5 694.5 c 128,-1,6
 91 737 91 737 128 762.5 c 128,-1,7
 165 788 165 788 214 788 c 0,8,9
 269 788 269 788 309 756 c 1,10,-1
 336 780 l 1,11,-1
 435 780 l 1,12,-1
 420 420 l 1,13,-1
 309 420 l 1,14,-1
 309 444 l 1,15,16
 269 412 269 412 214 412 c 0,0,1
234 490 m 256,17,18
 267 520 267 520 304.5 537 c 128,-1,19
 342 554 342 554 313 600 c 256,20,21
 342 646 342 646 310.5 678 c 128,-1,22
 279 710 279 710 234 710 c 256,23,24
 201 680 201 680 163.5 663 c 128,-1,25
 126 646 126 646 155 600 c 256,26,27
 126 554 126 554 157.5 522 c 128,-1,28
 189 490 189 490 234 490 c 256,17,18
EndSplineSet
EndChar

StartChar: ordfeminine.ss02
Encoding: 65572 -1 456
Width: 480
GlyphClass: 1
Flags: W
LayerCount: 2
Fore
SplineSet
177 410 m 0,0,1
 117 410 117 410 79.5 441.5 c 128,-1,2
 42 473 42 473 42 524 c 0,3,4
 42 580 42 580 87 613 c 128,-1,5
 132 646 132 646 210 646 c 0,6,7
 259 646 259 646 294 633 c 1,8,-1
 324 629 324 629 294 638 c 2,9,10
 294 661 294 661 271 673.5 c 128,-1,11
 248 686 248 686 208 686 c 0,12,13
 142 686 142 686 93 655 c 1,14,-1
 87.5 712.5 87.5 712.5 69 755 c 1,15,16
 107 772 107 772 144 780 c 128,-1,17
 181 788 181 788 223 788 c 0,18,19
 316 788 316 788 365 749 c 128,-1,20
 414 710 414 710 414 636 c 2,21,-1
 408 528 408 528 414 420 c 1,22,-1
 366 420 366 420 294 420 c 1,23,-1
 324 445 324 445 294 449 c 1,24,25
 242 410 242 410 177 410 c 0,0,1
207 500 m 0,26,27
 236 500 236 500 262.5 514 c 128,-1,28
 289 528 289 528 293 545 c 1,29,30
 280 553 280 553 261.5 557.5 c 128,-1,31
 243 562 243 562 220 562 c 0,32,33
 192 562 192 562 177.5 554 c 128,-1,34
 163 546 163 546 163 530 c 0,35,36
 163 516 163 516 174.5 508 c 128,-1,37
 186 500 186 500 207 500 c 0,26,27
EndSplineSet
EndChar

StartChar: ordmasculine
Encoding: 186 186 457
Width: 480
GlyphClass: 1
Flags: W
LayerCount: 2
Fore
SplineSet
240 408 m 256,0,1
 183 402 183 402 136.5 429 c 128,-1,2
 90 456 90 456 66 501.5 c 128,-1,3
 42 547 42 547 42 600 c 256,4,5
 34 655 34 655 62 699.5 c 128,-1,6
 90 744 90 744 137.5 768 c 128,-1,7
 185 792 185 792 240 792 c 256,8,9
 297 798 297 798 341 769 c 128,-1,10
 385 740 385 740 411.5 696.5 c 128,-1,11
 438 653 438 653 446 600 c 256,12,13
 446 546 446 546 415.5 503 c 128,-1,14
 385 460 385 460 340 434 c 128,-1,15
 295 408 295 408 240 408 c 256,0,1
240 519 m 0,16,17
 275 519 275 519 314.5 536.5 c 128,-1,18
 354 554 354 554 323 600 c 256,19,20
 354 646 354 646 314.5 663.5 c 128,-1,21
 275 681 275 681 240 711 c 0,22,23
 205 681 205 681 165.5 663.5 c 128,-1,24
 126 646 126 646 157 600 c 256,25,26
 126 554 126 554 159 521.5 c 128,-1,27
 192 489 192 489 240 519 c 0,16,17
EndSplineSet
EndChar

StartChar: f_f
Encoding: 65573 -1 458
Width: 840
GlyphClass: 1
Flags: W
LayerCount: 2
Fore
SplineSet
136 0 m 1,0,-1
 166 255 166 255 136 462 c 1,1,-1
 98 510 98 510 24 462 c 1,2,-1
 30 555 30 555 24 600 c 1,3,-1
 99.5 600 99.5 600 139 600 c 1,4,-1
 169 658 169 658 139 706 c 2,5,6
 139 785 139 785 176.5 845 c 128,-1,7
 214 905 214 905 279.5 938.5 c 128,-1,8
 345 972 345 972 429 972 c 0,9,10
 477 972 477 972 522.5 960 c 128,-1,11
 568 948 568 948 602 926 c 1,12,13
 631 949 631 949 670 960.5 c 128,-1,14
 709 972 709 972 756 972 c 0,15,16
 785 972 785 972 815 964 c 128,-1,17
 845 956 845 956 867 941 c 1,18,-1
 863 888.5 863 888.5 833 800 c 1,19,20
 803 837 803 837 763 837 c 0,21,22
 732 837 732 837 714.5 816 c 128,-1,23
 697 795 697 795 697 757 c 2,24,-1
 661 685 661 685 697 600 c 1,25,-1
 735.5 600 735.5 600 816 600 c 1,26,-1
 810 555 810 555 816 462 c 1,27,-1
 737 510 737 510 700 462 c 1,28,-1
 664 255 664 255 700 0 c 1,29,-1
 610 0 610 0 526 0 c 1,30,-1
 556 255 556 255 526 462 c 1,31,-1
 415 510 415 510 310 462 c 1,32,-1
 274 255 274 255 310 0 c 1,33,-1
 220 0 220 0 136 0 c 1,0,-1
307 600 m 1,34,-1
 415 600 415 600 529 600 c 1,35,-1
 559 688.5 559 688.5 529 753 c 2,36,37
 529 764 529 764 530 776.5 c 128,-1,38
 531 789 531 789 534 808 c 1,39,40
 493 837 493 837 438 837 c 0,41,42
 378 837 378 837 342.5 799 c 128,-1,43
 307 761 307 761 307 697 c 2,44,-1
 271 658.5 271 658.5 307 600 c 1,34,-1
EndSplineSet
EndChar

StartChar: f_f_b
Encoding: 65574 -1 459
Width: 1610
GlyphClass: 1
Flags: W
LayerCount: 2
Fore
SplineSet
1253 -16 m 0,0,1
 1196 -16 1196 -16 1148.5 4 c 128,-1,2
 1101 24 1101 24 1066 59 c 1,3,-1
 1046 0 l 1,4,-1
 916 0 l 1,5,-1
 946 510 l 1,6,-1
 700 462 l 1,7,-1
 664 0 l 1,8,-1
 526 0 l 1,9,-1
 556 510 l 1,10,-1
 310 462 l 1,11,-1
 274 0 l 1,12,-1
 136 0 l 1,13,-1
 166 510 l 1,14,-1
 24 462 l 1,15,-1
 30 600 l 1,16,-1
 139 600 l 1,17,-1
 139 706 l 2,18,19
 139 785 139 785 176.5 845 c 128,-1,20
 214 905 214 905 279.5 938.5 c 128,-1,21
 345 972 345 972 429 972 c 0,22,23
 477 972 477 972 522.5 960 c 128,-1,24
 568 948 568 948 602 926 c 1,25,26
 631 949 631 949 670 960.5 c 128,-1,27
 709 972 709 972 756 972 c 0,28,29
 785 972 785 972 815 964 c 128,-1,30
 845 956 845 956 867 941 c 1,31,-1
 833 800 l 1,32,33
 808 882 808 882 763 837 c 0,34,35
 732 837 732 837 714.5 816 c 128,-1,36
 697 795 697 795 697 757 c 2,37,-1
 661 600 l 1,38,-1
 916 600 l 1,39,-1
 946 960 l 1,40,-1
 1054 960 l 1,41,-1
 1090 562 l 1,42,43
 1123 588 1123 588 1164 602 c 128,-1,44
 1205 616 1205 616 1253 616 c 0,45,46
 1340 608 1340 608 1406.5 569.5 c 128,-1,47
 1473 531 1473 531 1514.5 458 c 128,-1,48
 1556 385 1556 385 1556 300 c 256,49,50
 1554 213 1554 213 1513.5 141.5 c 128,-1,51
 1473 70 1473 70 1406.5 31 c 128,-1,52
 1340 -8 1340 -8 1253 -16 c 0,0,1
271 600 m 1,53,-1
 529 600 l 1,54,-1
 559 777 l 2,55,56
 529 764 529 764 530 776.5 c 128,-1,57
 531 789 531 789 534 808 c 1,58,59
 493 837 493 837 438 837 c 0,60,61
 378 837 378 837 342.5 799 c 128,-1,62
 307 761 307 761 307 697 c 2,63,-1
 271 600 l 1,53,-1
1243 90 m 256,64,65
 1277 137 1277 137 1335 142 c 128,-1,66
 1393 147 1393 147 1420.5 194.5 c 128,-1,67
 1448 242 1448 242 1448 300 c 256,68,69
 1392 345 1392 345 1392.5 399 c 128,-1,70
 1393 453 1393 453 1346.5 481.5 c 128,-1,71
 1300 510 1300 510 1243 510 c 256,72,73
 1189 463 1189 463 1141 458 c 128,-1,74
 1093 453 1093 453 1065.5 405.5 c 128,-1,75
 1038 358 1038 358 1038 300 c 256,76,77
 1074 255 1074 255 1083.5 201 c 128,-1,78
 1093 147 1093 147 1139.5 118.5 c 128,-1,79
 1186 90 1186 90 1243 90 c 256,64,65
EndSplineSet
EndChar

StartChar: f_f_h
Encoding: 65575 -1 460
Width: 1550
GlyphClass: 1
Flags: W
LayerCount: 2
Fore
SplineSet
136 0 m 1,0,-1
 166 255 166 255 136 462 c 1,1,-1
 98 510 98 510 24 462 c 1,2,-1
 30 555 30 555 24 600 c 1,3,-1
 99.5 600 99.5 600 139 600 c 1,4,-1
 169 658 169 658 139 706 c 2,5,6
 139 785 139 785 176.5 845 c 128,-1,7
 214 905 214 905 279.5 938.5 c 128,-1,8
 345 972 345 972 429 972 c 0,9,10
 477 972 477 972 522.5 960 c 128,-1,11
 568 948 568 948 602 926 c 1,12,13
 631 949 631 949 670 960.5 c 128,-1,14
 709 972 709 972 756 972 c 0,15,16
 785 972 785 972 815 964 c 128,-1,17
 845 956 845 956 867 941 c 1,18,-1
 863 888.5 863 888.5 833 800 c 1,19,20
 803 837 803 837 763 837 c 0,21,22
 732 837 732 837 714.5 816 c 128,-1,23
 697 795 697 795 697 757 c 2,24,-1
 661 685 661 685 697 600 c 1,25,-1
 803.5 600 803.5 600 916 600 c 1,26,-1
 946 780 946 780 916 960 c 1,27,-1
 1000 960 1000 960 1090 960 c 1,28,-1
 1054 737.5 1054 737.5 1090 555 c 1,29,30
 1122 587 1122 587 1163.5 603.5 c 128,-1,31
 1205 620 1205 620 1252 620 c 0,32,33
 1316 620 1316 620 1371.5 589.5 c 128,-1,34
 1427 559 1427 559 1461.5 500.5 c 128,-1,35
 1496 442 1496 442 1496 359 c 2,36,-1
 1486 172.5 1486 172.5 1496 0 c 1,37,-1
 1432 0 1432 0 1322 0 c 1,38,-1
 1378 165 1378 165 1322 336 c 2,39,40
 1322 386 1322 386 1292 425 c 128,-1,41
 1262 464 1262 464 1206 464 c 0,42,43
 1161 464 1161 464 1125.5 433.5 c 128,-1,44
 1090 403 1090 403 1090 338 c 2,45,-1
 1054 166.5 1054 166.5 1090 0 c 1,46,-1
 1000 0 1000 0 916 0 c 1,47,-1
 946 255 946 255 916 462 c 1,48,-1
 805 510 805 510 700 462 c 1,49,-1
 664 255 664 255 700 0 c 1,50,-1
 610 0 610 0 526 0 c 1,51,-1
 556 255 556 255 526 462 c 1,52,-1
 415 510 415 510 310 462 c 1,53,-1
 274 255 274 255 310 0 c 1,54,-1
 220 0 220 0 136 0 c 1,0,-1
307 600 m 1,55,-1
 415 600 415 600 529 600 c 1,56,-1
 559 688.5 559 688.5 529 753 c 2,57,58
 529 764 529 764 530 776.5 c 128,-1,59
 531 789 531 789 534 808 c 1,60,61
 493 837 493 837 438 837 c 0,62,63
 378 837 378 837 342.5 799 c 128,-1,64
 307 761 307 761 307 697 c 2,65,-1
 271 658.5 271 658.5 307 600 c 1,55,-1
EndSplineSet
EndChar

StartChar: f_f_i
Encoding: 65576 -1 461
Width: 1150
GlyphClass: 1
Flags: W
LayerCount: 2
Fore
SplineSet
136 0 m 1,0,-1
 166 255 166 255 136 462 c 1,1,-1
 98 510 98 510 24 462 c 1,2,-1
 30 555 30 555 24 600 c 1,3,-1
 99.5 600 99.5 600 139 600 c 1,4,-1
 169 651.5 169 651.5 139 706 c 2,5,6
 139 791 139 791 177.5 850.5 c 128,-1,7
 216 910 216 910 281 941 c 128,-1,8
 346 972 346 972 423 972 c 0,9,10
 476 972 476 972 527.5 956.5 c 128,-1,11
 579 941 579 941 627 906 c 1,12,13
 712 972 712 972 829 972 c 0,14,15
 949 972 949 972 1030 912 c 1,16,-1
 979 862.5 979 862.5 991 753 c 1,17,18
 966 791 966 791 927 814 c 128,-1,19
 888 837 888 837 840 837 c 0,20,21
 776 837 776 837 736.5 798 c 128,-1,22
 697 759 697 759 697 688 c 2,23,-1
 661 658.5 661 658.5 697 600 c 1,24,-1
 857.5 600 857.5 600 1084 600 c 1,25,-1
 1054 300 1054 300 1084 0 c 1,26,-1
 1000 0 1000 0 910 0 c 1,27,-1
 946 255 946 255 910 462 c 1,28,-1
 805 510 805 510 700 462 c 1,29,-1
 664 255 664 255 700 0 c 1,30,-1
 610 0 610 0 526 0 c 1,31,-1
 556 255 556 255 526 462 c 1,32,-1
 415 510 415 510 310 462 c 1,33,-1
 274 255 274 255 310 0 c 1,34,-1
 220 0 220 0 136 0 c 1,0,-1
307 600 m 1,35,-1
 415 600 415 600 529 600 c 1,36,-1
 559 660.5 559 660.5 529 694 c 2,37,38
 529 722 529 722 533.5 748.5 c 128,-1,39
 538 775 538 775 547 798 c 1,40,41
 522 817 522 817 494.5 827 c 128,-1,42
 467 837 467 837 435 837 c 0,43,44
 378 837 378 837 342.5 800.5 c 128,-1,45
 307 764 307 764 307 697 c 2,46,-1
 271 652 271 652 307 600 c 1,35,-1
EndSplineSet
EndChar

StartChar: f_f_j
Encoding: 65577 -1 462
Width: 1150
GlyphClass: 1
Flags: W
LayerCount: 2
Fore
SplineSet
876 -312 m 1,0,-1
 870 -265.5 870 -265.5 843 -173 c 1,1,2
 876 -173 876 -173 893 -155.5 c 128,-1,3
 910 -138 910 -138 910 -99 c 2,4,-1
 946 194 946 194 910 462 c 1,5,-1
 805 510 805 510 700 462 c 1,6,-1
 664 255 664 255 700 0 c 1,7,-1
 610 0 610 0 526 0 c 1,8,-1
 556 255 556 255 526 462 c 1,9,-1
 415 510 415 510 310 462 c 1,10,-1
 274 255 274 255 310 0 c 1,11,-1
 220 0 220 0 136 0 c 1,12,-1
 166 255 166 255 136 462 c 1,13,-1
 98 510 98 510 24 462 c 1,14,-1
 30 555 30 555 24 600 c 1,15,-1
 99.5 600 99.5 600 139 600 c 1,16,-1
 169 651.5 169 651.5 139 706 c 2,17,18
 139 791 139 791 177.5 850.5 c 128,-1,19
 216 910 216 910 281 941 c 128,-1,20
 346 972 346 972 423 972 c 0,21,22
 476 972 476 972 527.5 956.5 c 128,-1,23
 579 941 579 941 627 906 c 1,24,25
 712 972 712 972 829 972 c 0,26,27
 949 972 949 972 1030 912 c 1,28,-1
 979 862.5 979 862.5 991 753 c 1,29,30
 966 791 966 791 927 814 c 128,-1,31
 888 837 888 837 840 837 c 0,32,33
 776 837 776 837 736.5 798 c 128,-1,34
 697 759 697 759 697 688 c 2,35,-1
 661 658.5 661 658.5 697 600 c 1,36,-1
 857.5 600 857.5 600 1084 600 c 1,37,-1
 1054 238 1054 238 1084 -99 c 2,38,39
 1084 -200 1084 -200 1025.5 -256 c 128,-1,40
 967 -312 967 -312 876 -312 c 1,0,-1
307 600 m 1,41,-1
 415 600 415 600 529 600 c 1,42,-1
 559 660.5 559 660.5 529 694 c 2,43,44
 529 722 529 722 533.5 748.5 c 128,-1,45
 538 775 538 775 547 798 c 1,46,47
 522 817 522 817 494.5 827 c 128,-1,48
 467 837 467 837 435 837 c 0,49,50
 378 837 378 837 342.5 800.5 c 128,-1,51
 307 764 307 764 307 697 c 2,52,-1
 271 652 271 652 307 600 c 1,41,-1
EndSplineSet
EndChar

StartChar: f_f_k
Encoding: 65578 -1 463
Width: 1520
GlyphClass: 1
Flags: W
LayerCount: 2
Fore
SplineSet
136 0 m 1,0,-1
 166 255 166 255 136 462 c 1,1,-1
 98 510 98 510 24 462 c 1,2,-1
 30 555 30 555 24 600 c 1,3,-1
 99.5 600 99.5 600 139 600 c 1,4,-1
 169 658 169 658 139 706 c 2,5,6
 139 785 139 785 175 845 c 128,-1,7
 211 905 211 905 275 938.5 c 128,-1,8
 339 972 339 972 423 972 c 0,9,10
 473 972 473 972 519 959 c 128,-1,11
 565 946 565 946 599 923 c 1,12,13
 628 947 628 947 665.5 959.5 c 128,-1,14
 703 972 703 972 746 972 c 0,15,16
 782 972 782 972 813.5 964 c 128,-1,17
 845 956 845 956 867 941 c 1,18,-1
 863 888.5 863 888.5 833 800 c 1,19,20
 803 837 803 837 763 837 c 0,21,22
 732 837 732 837 714.5 816 c 128,-1,23
 697 795 697 795 697 757 c 2,24,-1
 661 685 661 685 697 600 c 1,25,-1
 803.5 600 803.5 600 916 600 c 1,26,-1
 946 780 946 780 916 960 c 1,27,-1
 1000 960 1000 960 1090 960 c 1,28,-1
 1054 480 1054 480 1090 0 c 1,29,-1
 1000 0 1000 0 916 0 c 1,30,-1
 946 255 946 255 916 462 c 1,31,-1
 805 510 805 510 700 462 c 1,32,-1
 664 255 664 255 700 0 c 1,33,-1
 610 0 610 0 526 0 c 1,34,-1
 556 255 556 255 526 462 c 1,35,-1
 415 510 415 510 310 462 c 1,36,-1
 274 255 274 255 310 0 c 1,37,-1
 220 0 220 0 136 0 c 1,0,-1
307 600 m 1,38,-1
 415 600 415 600 529 600 c 1,39,-1
 559 688.5 559 688.5 529 753 c 2,40,41
 529 764 529 764 530 776.5 c 128,-1,42
 531 789 531 789 534 808 c 1,43,44
 493 837 493 837 438 837 c 0,45,46
 378 837 378 837 342.5 799 c 128,-1,47
 307 761 307 761 307 697 c 2,48,-1
 271 658.5 271 658.5 307 600 c 1,38,-1
1315 0 m 1,49,-1
 1201.5 165 1201.5 165 1076 330 c 1,50,-1
 1177.5 465 1177.5 465 1273 600 c 1,51,-1
 1351.5 600 1351.5 600 1460 600 c 1,52,-1
 1304.5 469 1304.5 469 1266 345 c 1,53,-1
 1334.5 169 1334.5 169 1520 0 c 1,54,-1
 1405.5 0 1405.5 0 1315 0 c 1,49,-1
EndSplineSet
EndChar

StartChar: f_f_l
Encoding: 65579 -1 464
Width: 1160
GlyphClass: 1
Flags: W
LayerCount: 2
Fore
SplineSet
136 0 m 1,0,-1
 166 255 166 255 136 462 c 1,1,-1
 98 510 98 510 24 462 c 1,2,-1
 30 555 30 555 24 600 c 1,3,-1
 99.5 600 99.5 600 139 600 c 1,4,-1
 169 658 169 658 139 706 c 2,5,6
 139 785 139 785 175 845 c 128,-1,7
 211 905 211 905 275 938.5 c 128,-1,8
 339 972 339 972 423 972 c 0,9,10
 473 972 473 972 519 959 c 128,-1,11
 565 946 565 946 599 923 c 1,12,13
 628 947 628 947 665.5 959.5 c 128,-1,14
 703 972 703 972 746 972 c 0,15,16
 782 972 782 972 813.5 964 c 128,-1,17
 845 956 845 956 867 941 c 1,18,-1
 863 888.5 863 888.5 833 800 c 1,19,20
 803 837 803 837 763 837 c 0,21,22
 732 837 732 837 714.5 816 c 128,-1,23
 697 795 697 795 697 757 c 2,24,-1
 661 685 661 685 697 600 c 1,25,-1
 803.5 600 803.5 600 918 600 c 1,26,-1
 946 780 946 780 918 960 c 1,27,-1
 1000 960 1000 960 1092 960 c 1,28,-1
 1054 480 1054 480 1092 0 c 1,29,-1
 1000 0 1000 0 918 0 c 1,30,-1
 946 255 946 255 918 462 c 1,31,-1
 805 510 805 510 700 462 c 1,32,-1
 664 255 664 255 700 0 c 1,33,-1
 610 0 610 0 526 0 c 1,34,-1
 556 255 556 255 526 462 c 1,35,-1
 415 510 415 510 310 462 c 1,36,-1
 274 255 274 255 310 0 c 1,37,-1
 220 0 220 0 136 0 c 1,0,-1
307 600 m 1,38,-1
 415 600 415 600 529 600 c 1,39,-1
 559 688.5 559 688.5 529 753 c 2,40,41
 529 764 529 764 530 776.5 c 128,-1,42
 531 789 531 789 534 808 c 1,43,44
 493 837 493 837 438 837 c 0,45,46
 378 837 378 837 342.5 799 c 128,-1,47
 307 761 307 761 307 697 c 2,48,-1
 271 658.5 271 658.5 307 600 c 1,38,-1
EndSplineSet
EndChar

StartChar: f_f_l.ss03
Encoding: 65580 -1 465
Width: 1180
GlyphClass: 1
Flags: W
LayerCount: 2
Fore
SplineSet
136 0 m 1,0,-1
 166 255 166 255 136 462 c 1,1,-1
 98 510 98 510 24 462 c 1,2,-1
 30 555 30 555 24 600 c 1,3,-1
 99.5 600 99.5 600 139 600 c 1,4,-1
 169 658 169 658 139 706 c 2,5,6
 139 785 139 785 175 845 c 128,-1,7
 211 905 211 905 275 938.5 c 128,-1,8
 339 972 339 972 423 972 c 0,9,10
 473 972 473 972 519 959 c 128,-1,11
 565 946 565 946 599 923 c 1,12,13
 628 947 628 947 665.5 959.5 c 128,-1,14
 703 972 703 972 746 972 c 0,15,16
 782 972 782 972 813.5 964 c 128,-1,17
 845 956 845 956 867 941 c 1,18,-1
 863 888.5 863 888.5 833 800 c 1,19,20
 803 837 803 837 763 837 c 0,21,22
 732 837 732 837 714.5 816 c 128,-1,23
 697 795 697 795 697 757 c 2,24,-1
 661 685 661 685 697 600 c 1,25,-1
 803.5 600 803.5 600 913 600 c 1,26,-1
 946 780 946 780 913 960 c 1,27,-1
 1000 960 1000 960 1087 960 c 1,28,-1
 1054 569 1054 569 1087 201 c 2,29,30
 1087 162 1087 162 1104 144.5 c 128,-1,31
 1121 127 1121 127 1154 127 c 1,32,-1
 1130 34.5 1130 34.5 1121 -12 c 1,33,34
 1030 -12 1030 -12 971.5 44 c 128,-1,35
 913 100 913 100 913 201 c 2,36,-1
 946 343 946 343 913 462 c 1,37,-1
 805 510 805 510 700 462 c 1,38,-1
 664 255 664 255 700 0 c 1,39,-1
 610 0 610 0 526 0 c 1,40,-1
 556 255 556 255 526 462 c 1,41,-1
 415 510 415 510 310 462 c 1,42,-1
 274 255 274 255 310 0 c 1,43,-1
 220 0 220 0 136 0 c 1,0,-1
307 600 m 1,44,-1
 415 600 415 600 529 600 c 1,45,-1
 559 688.5 559 688.5 529 753 c 2,46,47
 529 764 529 764 530 776.5 c 128,-1,48
 531 789 531 789 534 808 c 1,49,50
 493 837 493 837 438 837 c 0,51,52
 378 837 378 837 342.5 799 c 128,-1,53
 307 761 307 761 307 697 c 2,54,-1
 271 658.5 271 658.5 307 600 c 1,44,-1
EndSplineSet
EndChar

StartChar: f_b
Encoding: 65581 -1 466
Width: 1220
GlyphClass: 1
Flags: W
LayerCount: 2
Fore
SplineSet
863 -16 m 0,0,1
 806 -16 806 -16 758.5 4 c 128,-1,2
 711 24 711 24 676 59 c 1,3,-1
 656 0 l 1,4,-1
 526 0 l 1,5,-1
 556 510 l 1,6,-1
 310 462 l 1,7,-1
 274 0 l 1,8,-1
 136 0 l 1,9,-1
 166 510 l 1,10,-1
 24 462 l 1,11,-1
 30 600 l 1,12,-1
 139 600 l 1,13,-1
 139 753 l 2,14,15
 169 870 169 870 216.5 921 c 128,-1,16
 264 972 264 972 365 972 c 0,17,18
 390 972 390 972 421.5 964.5 c 128,-1,19
 453 957 453 957 477 941 c 1,20,-1
 443 800 l 1,21,22
 418 882 418 882 362 882 c 0,23,24
 349 837 349 837 328 820 c 128,-1,25
 307 803 307 803 307 757 c 2,26,-1
 271 600 l 1,27,-1
 526 600 l 1,28,-1
 556 960 l 1,29,-1
 664 960 l 1,30,-1
 700 562 l 1,31,32
 733 588 733 588 774 602 c 128,-1,33
 815 616 815 616 863 616 c 0,34,35
 950 608 950 608 1016.5 569.5 c 128,-1,36
 1083 531 1083 531 1124.5 458 c 128,-1,37
 1166 385 1166 385 1166 300 c 256,38,39
 1164 213 1164 213 1123.5 141.5 c 128,-1,40
 1083 70 1083 70 1016.5 31 c 128,-1,41
 950 -8 950 -8 863 -16 c 0,0,1
853 90 m 256,42,43
 887 137 887 137 945 142 c 128,-1,44
 1003 147 1003 147 1030.5 194.5 c 128,-1,45
 1058 242 1058 242 1058 300 c 256,46,47
 1002 345 1002 345 1002.5 399 c 128,-1,48
 1003 453 1003 453 956.5 481.5 c 128,-1,49
 910 510 910 510 853 510 c 256,50,51
 799 463 799 463 751 458 c 128,-1,52
 703 453 703 453 675.5 405.5 c 128,-1,53
 648 358 648 358 648 300 c 256,54,55
 684 255 684 255 693.5 201 c 128,-1,56
 703 147 703 147 749.5 118.5 c 128,-1,57
 796 90 796 90 853 90 c 256,42,43
EndSplineSet
EndChar

StartChar: f_h
Encoding: 65582 -1 467
Width: 1180
GlyphClass: 1
Flags: W
LayerCount: 2
Fore
SplineSet
136 0 m 1,0,-1
 166 510 l 1,1,-1
 24 462 l 1,2,-1
 30 600 l 1,3,-1
 139 600 l 1,4,-1
 139 753 l 2,5,6
 169 870 169 870 216.5 921 c 128,-1,7
 264 972 264 972 365 972 c 0,8,9
 390 972 390 972 421.5 964.5 c 128,-1,10
 453 957 453 957 477 941 c 1,11,-1
 443 800 l 1,12,13
 418 882 418 882 362 882 c 0,14,15
 349 837 349 837 328 820 c 128,-1,16
 307 803 307 803 307 757 c 2,17,-1
 271 600 l 1,18,-1
 526 600 l 1,19,-1
 556 960 l 1,20,-1
 664 960 l 1,21,-1
 700 555 l 1,22,23
 732 587 732 587 765 599.5 c 128,-1,24
 798 612 798 612 862 620 c 0,25,26
 926 620 926 620 981.5 589.5 c 128,-1,27
 1037 559 1037 559 1066.5 494.5 c 128,-1,28
 1096 430 1096 430 1106 359 c 2,29,-1
 1096 0 l 1,30,-1
 932 0 l 1,31,-1
 932 336 l 2,32,33
 988 401 988 401 930 432.5 c 128,-1,34
 872 464 872 464 826 510 c 0,35,36
 771 464 771 464 735.5 433.5 c 128,-1,37
 700 403 700 403 700 338 c 2,38,-1
 664 0 l 1,39,-1
 526 0 l 1,40,-1
 556 510 l 1,41,-1
 310 462 l 1,42,-1
 274 0 l 1,43,-1
 136 0 l 1,0,-1
EndSplineSet
EndChar

StartChar: fi
Encoding: 64257 64257 468
Width: 760
GlyphClass: 1
Flags: W
LayerCount: 2
Fore
SplineSet
136 0 m 1,0,-1
 166 255 166 255 136 462 c 1,1,-1
 98 510 98 510 24 462 c 1,2,-1
 30 555 30 555 24 600 c 1,3,-1
 99.5 600 99.5 600 139 600 c 1,4,-1
 169 658 169 658 139 694 c 2,5,6
 139 783 139 783 180.5 845 c 128,-1,7
 222 907 222 907 290.5 939.5 c 128,-1,8
 359 972 359 972 440 972 c 0,9,10
 559 972 559 972 640 912 c 1,11,-1
 589 862.5 589 862.5 601 753 c 1,12,13
 576 787 576 787 537 807.5 c 128,-1,14
 498 828 498 828 451 828 c 0,15,16
 386 828 386 828 346.5 789 c 128,-1,17
 307 750 307 750 307 682 c 2,18,-1
 271 655.5 271 655.5 307 600 c 1,19,-1
 467.5 600 467.5 600 694 600 c 1,20,-1
 664 300 664 300 694 0 c 1,21,-1
 610 0 610 0 520 0 c 1,22,-1
 556 255 556 255 520 462 c 1,23,-1
 415 510 415 510 310 462 c 1,24,-1
 274 255 274 255 310 0 c 1,25,-1
 220 0 220 0 136 0 c 1,0,-1
EndSplineSet
EndChar

StartChar: f_j
Encoding: 65583 -1 469
Width: 760
GlyphClass: 1
Flags: W
LayerCount: 2
Fore
SplineSet
486 -312 m 1,0,-1
 480 -265.5 480 -265.5 453 -173 c 1,1,2
 486 -173 486 -173 503 -155.5 c 128,-1,3
 520 -138 520 -138 520 -99 c 2,4,-1
 556 194 556 194 520 462 c 1,5,-1
 415 510 415 510 310 462 c 1,6,-1
 274 255 274 255 310 0 c 1,7,-1
 220 0 220 0 136 0 c 1,8,-1
 166 255 166 255 136 462 c 1,9,-1
 98 510 98 510 24 462 c 1,10,-1
 30 555 30 555 24 600 c 1,11,-1
 99.5 600 99.5 600 139 600 c 1,12,-1
 169 658 169 658 139 694 c 2,13,14
 139 783 139 783 180.5 845 c 128,-1,15
 222 907 222 907 290.5 939.5 c 128,-1,16
 359 972 359 972 440 972 c 0,17,18
 559 972 559 972 640 912 c 1,19,-1
 589 862.5 589 862.5 601 753 c 1,20,21
 576 787 576 787 537 807.5 c 128,-1,22
 498 828 498 828 451 828 c 0,23,24
 386 828 386 828 346.5 789 c 128,-1,25
 307 750 307 750 307 682 c 2,26,-1
 271 655.5 271 655.5 307 600 c 1,27,-1
 467.5 600 467.5 600 694 600 c 1,28,-1
 664 238 664 238 694 -99 c 2,29,30
 694 -200 694 -200 635.5 -256 c 128,-1,31
 577 -312 577 -312 486 -312 c 1,0,-1
EndSplineSet
EndChar

StartChar: f_k
Encoding: 65584 -1 470
Width: 1130
GlyphClass: 1
Flags: W
LayerCount: 2
Fore
SplineSet
136 0 m 1,0,-1
 166 255 166 255 136 462 c 1,1,-1
 98 510 98 510 24 462 c 1,2,-1
 30 555 30 555 24 600 c 1,3,-1
 99.5 600 99.5 600 139 600 c 1,4,-1
 169 686 169 686 139 753 c 2,5,6
 139 860 139 860 201.5 916 c 128,-1,7
 264 972 264 972 356 972 c 0,8,9
 390 972 390 972 421.5 964.5 c 128,-1,10
 453 957 453 957 477 941 c 1,11,-1
 473 888.5 473 888.5 443 800 c 1,12,13
 413 837 413 837 373 837 c 0,14,15
 349 837 349 837 328 820 c 128,-1,16
 307 803 307 803 307 757 c 2,17,-1
 271 685 271 685 307 600 c 1,18,-1
 413.5 600 413.5 600 526 600 c 1,19,-1
 556 780 556 780 526 960 c 1,20,-1
 610 960 610 960 700 960 c 1,21,-1
 664 480 664 480 700 0 c 1,22,-1
 610 0 610 0 526 0 c 1,23,-1
 556 255 556 255 526 462 c 1,24,-1
 415 510 415 510 310 462 c 1,25,-1
 274 255 274 255 310 0 c 1,26,-1
 220 0 220 0 136 0 c 1,0,-1
925 0 m 1,27,-1
 811.5 165 811.5 165 686 330 c 1,28,-1
 787.5 465 787.5 465 883 600 c 1,29,-1
 961.5 600 961.5 600 1070 600 c 1,30,-1
 914.5 469 914.5 469 876 345 c 1,31,-1
 944.5 169 944.5 169 1130 0 c 1,32,-1
 1015.5 0 1015.5 0 925 0 c 1,27,-1
EndSplineSet
EndChar

StartChar: fl
Encoding: 64258 64258 471
Width: 760
GlyphClass: 1
Flags: W
LayerCount: 2
Fore
SplineSet
166 0 m 1,0,-1
 136 462 l 1,1,-1
 30 510 l 1,2,-1
 24 600 l 1,3,-1
 169 600 l 1,4,-1
 139 753 l 2,5,6
 169 870 169 870 216.5 921 c 128,-1,7
 264 972 264 972 365 972 c 0,8,9
 390 972 390 972 421.5 964.5 c 128,-1,10
 453 957 453 957 477 941 c 1,11,-1
 443 800 l 1,12,13
 418 882 418 882 362 882 c 0,14,15
 349 837 349 837 328 820 c 128,-1,16
 307 803 307 803 307 757 c 2,17,-1
 271 600 l 1,18,-1
 528 600 l 1,19,-1
 556 960 l 1,20,-1
 664 960 l 1,21,-1
 702 0 l 1,22,-1
 556 0 l 1,23,-1
 528 462 l 1,24,-1
 274 510 l 1,25,-1
 310 0 l 1,26,-1
 166 0 l 1,0,-1
EndSplineSet
EndChar

StartChar: fl.ss03
Encoding: 65585 -1 472
Width: 790
GlyphClass: 1
Flags: W
LayerCount: 2
Fore
SplineSet
136 0 m 1,0,-1
 166 255 166 255 136 462 c 1,1,-1
 98 510 98 510 24 462 c 1,2,-1
 30 555 30 555 24 600 c 1,3,-1
 99.5 600 99.5 600 139 600 c 1,4,-1
 169 686 169 686 139 753 c 2,5,6
 139 860 139 860 201.5 916 c 128,-1,7
 264 972 264 972 356 972 c 0,8,9
 390 972 390 972 421.5 964.5 c 128,-1,10
 453 957 453 957 477 941 c 1,11,-1
 473 888.5 473 888.5 443 800 c 1,12,13
 413 837 413 837 373 837 c 0,14,15
 349 837 349 837 328 820 c 128,-1,16
 307 803 307 803 307 757 c 2,17,-1
 271 685 271 685 307 600 c 1,18,-1
 413.5 600 413.5 600 523 600 c 1,19,-1
 556 780 556 780 523 960 c 1,20,-1
 610 960 610 960 697 960 c 1,21,-1
 664 569 664 569 697 201 c 2,22,23
 697 162 697 162 714 144.5 c 128,-1,24
 731 127 731 127 764 127 c 1,25,-1
 740 34.5 740 34.5 731 -12 c 1,26,27
 640 -12 640 -12 581.5 44 c 128,-1,28
 523 100 523 100 523 201 c 2,29,-1
 556 343 556 343 523 462 c 1,30,-1
 415 510 415 510 310 462 c 1,31,-1
 274 255 274 255 310 0 c 1,32,-1
 220 0 220 0 136 0 c 1,0,-1
EndSplineSet
EndChar

StartChar: f_t
Encoding: 65586 -1 473
Width: 840
GlyphClass: 1
Flags: W
LayerCount: 2
Fore
SplineSet
136 0 m 1,0,-1
 166 255 166 255 136 462 c 1,1,-1
 98 510 98 510 24 462 c 1,2,-1
 30 555 30 555 24 600 c 1,3,-1
 99.5 600 99.5 600 139 600 c 1,4,-1
 169 686 169 686 139 746 c 2,5,6
 139 856 139 856 205 914 c 128,-1,7
 271 972 271 972 367 972 c 0,8,9
 404 972 404 972 438 963.5 c 128,-1,10
 472 955 472 955 498 938 c 1,11,-1
 473 888.5 473 888.5 463 794 c 1,12,13
 430 836 430 836 383 836 c 0,14,15
 354 836 354 836 330.5 816.5 c 128,-1,16
 307 797 307 797 307 748 c 2,17,-1
 271 685 271 685 307 600 c 1,18,-1
 415 600 415 600 529 600 c 1,19,-1
 559 700 559 700 529 800 c 1,20,-1
 610 800 610 800 697 800 c 1,21,-1
 661 700 661 700 697 600 c 1,22,-1
 735.5 600 735.5 600 816 600 c 1,23,-1
 810 555 810 555 816 462 c 1,24,-1
 737 510 737 510 700 462 c 1,25,-1
 664 255 664 255 700 0 c 1,26,-1
 610 0 610 0 526 0 c 1,27,-1
 556 255 556 255 526 462 c 1,28,-1
 415 510 415 510 310 462 c 1,29,-1
 274 255 274 255 310 0 c 1,30,-1
 220 0 220 0 136 0 c 1,0,-1
EndSplineSet
EndChar

StartChar: t_t
Encoding: 65587 -1 474
Width: 840
GlyphClass: 1
Flags: W
LayerCount: 2
Fore
SplineSet
556 0 m 1,0,-1
 526 462 l 1,1,-1
 274 510 l 1,2,-1
 310 0 l 1,3,-1
 166 0 l 1,4,-1
 136 462 l 1,5,-1
 30 510 l 1,6,-1
 24 600 l 1,7,-1
 169 600 l 1,8,-1
 139 800 l 1,9,-1
 271 800 l 1,10,-1
 307 600 l 1,11,-1
 559 600 l 1,12,-1
 529 800 l 1,13,-1
 661 800 l 1,14,-1
 697 600 l 1,15,-1
 810 600 l 1,16,-1
 816 462 l 1,17,-1
 664 510 l 1,18,-1
 700 0 l 1,19,-1
 556 0 l 1,0,-1
EndSplineSet
EndChar

StartChar: zero
Encoding: 48 48 475
Width: 750
GlyphClass: 1
Flags: W
LayerCount: 2
Fore
SplineSet
375 -20 m 256,0,1
 288 -20 288 -20 225.5 21 c 128,-1,2
 163 62 163 62 122 130 c 128,-1,3
 81 198 81 198 61.5 281.5 c 128,-1,4
 42 365 42 365 42 450 c 256,5,6
 42 535 42 535 61.5 618.5 c 128,-1,7
 81 702 81 702 122 770 c 128,-1,8
 163 838 163 838 225.5 879 c 128,-1,9
 288 920 288 920 375 920 c 256,10,11
 462 920 462 920 524.5 879 c 128,-1,12
 587 838 587 838 628 770 c 128,-1,13
 669 702 669 702 688.5 618.5 c 128,-1,14
 708 535 708 535 708 450 c 256,15,16
 708 365 708 365 688.5 281.5 c 128,-1,17
 669 198 669 198 628 130 c 128,-1,18
 587 62 587 62 524.5 21 c 128,-1,19
 462 -20 462 -20 375 -20 c 256,0,1
375 142 m 0,20,21
 417 142 417 142 446.5 170 c 128,-1,22
 476 198 476 198 494 243.5 c 128,-1,23
 512 289 512 289 520 343.5 c 128,-1,24
 528 398 528 398 528 450 c 256,25,26
 528 503 528 503 520 557 c 128,-1,27
 512 611 512 611 494 656.5 c 128,-1,28
 476 702 476 702 446.5 730 c 128,-1,29
 417 758 417 758 375 758 c 0,30,31
 333 758 333 758 303.5 730 c 128,-1,32
 274 702 274 702 256 656.5 c 128,-1,33
 238 611 238 611 230 557 c 128,-1,34
 222 503 222 503 222 450 c 256,35,36
 222 398 222 398 230 343.5 c 128,-1,37
 238 289 238 289 256 243.5 c 128,-1,38
 274 198 274 198 303.5 170 c 128,-1,39
 333 142 333 142 375 142 c 0,20,21
EndSplineSet
EndChar

StartChar: zero.zero
Encoding: 65588 -1 476
Width: 750
GlyphClass: 1
Flags: W
LayerCount: 2
Fore
SplineSet
375 -20 m 0,0,1
 277 -20 277 -20 209 43.5 c 128,-1,2
 141 107 141 107 91.5 209.5 c 128,-1,3
 42 312 42 312 60 450 c 256,4,5
 42 589 42 589 91.5 691 c 128,-1,6
 141 793 141 793 209 856.5 c 128,-1,7
 277 920 277 920 375 920 c 0,8,9
 467 912 467 912 545 856 c 128,-1,10
 623 800 623 800 665.5 694.5 c 128,-1,11
 708 589 708 589 690 450 c 256,12,13
 708 312 708 312 665.5 206 c 128,-1,14
 623 100 623 100 545 44 c 128,-1,15
 467 -12 467 -12 375 -20 c 0,0,1
375 88 m 0,16,17
 421 136 421 136 458 175 c 128,-1,18
 495 214 495 214 517.5 284.5 c 128,-1,19
 540 355 540 355 582 450 c 0,20,21
 540 545 540 545 517.5 615.5 c 128,-1,22
 495 686 495 686 458 725 c 128,-1,23
 421 764 421 764 375 812 c 0,24,25
 330 764 330 764 292.5 725 c 128,-1,26
 255 686 255 686 232.5 615.5 c 128,-1,27
 210 545 210 545 168 450 c 0,28,29
 210 355 210 355 232.5 284.5 c 128,-1,30
 255 214 255 214 292.5 175 c 128,-1,31
 330 136 330 136 375 88 c 0,16,17
375 375 m 0,32,33
 345 390 345 390 324 411 c 128,-1,34
 303 432 303 432 303 462 c 0,35,36
 288 499 288 499 313 524 c 128,-1,37
 338 549 338 549 375 534 c 0,38,39
 413 549 413 549 437.5 524.5 c 128,-1,40
 462 500 462 500 447 462 c 0,41,42
 462 425 462 425 434 407.5 c 128,-1,43
 406 390 406 390 375 375 c 0,32,33
EndSplineSet
EndChar

StartChar: one
Encoding: 49 49 477
Width: 750
GlyphClass: 1
Flags: W
LayerCount: 2
Fore
SplineSet
150 0 m 1,0,-1
 162 45 162 45 150 144 c 1,1,-1
 266 90 266 90 340 144 c 1,2,-1
 370 424 370 424 340 678 c 1,3,-1
 266 705 266 705 150 582 c 1,4,-1
 162 706 162 706 150 752 c 1,5,-1
 321 840 321 840 510 932 c 1,6,-1
 480 505 480 505 510 144 c 1,7,-1
 564 90 564 90 660 144 c 1,8,-1
 648 45 648 45 660 0 c 1,9,-1
 405 0 405 0 150 0 c 1,0,-1
EndSplineSet
EndChar

StartChar: two
Encoding: 50 50 478
Width: 750
GlyphClass: 1
Flags: W
LayerCount: 2
Fore
SplineSet
86 0 m 1,0,-1
 299.5 268.5 299.5 268.5 452 537 c 2,1,2
 475 572 475 572 483 594.5 c 128,-1,3
 491 617 491 617 491 636 c 0,4,5
 491 687 491 687 455 722.5 c 128,-1,6
 419 758 419 758 366 758 c 256,7,8
 313 758 313 758 277.5 722.5 c 128,-1,9
 242 687 242 687 242 636 c 0,10,11
 242 568 242 568 301 518 c 1,12,-1
 201.5 534 201.5 534 105 518 c 1,13,14
 74 574 74 574 74 637 c 0,15,16
 74 713 74 713 112.5 777 c 128,-1,17
 151 841 151 841 217.5 880.5 c 128,-1,18
 284 920 284 920 367 920 c 256,19,20
 448 920 448 920 516 881.5 c 128,-1,21
 584 843 584 843 624.5 779 c 128,-1,22
 665 715 665 715 665 636 c 0,23,24
 665 588 665 588 647.5 544.5 c 128,-1,25
 630 501 630 501 592 448 c 2,26,-1
 439 290.5 439 290.5 389 162 c 1,27,-1
 479 102 479 102 676 162 c 1,28,-1
 649 51 649 51 676 0 c 1,29,-1
 384 0 384 0 86 0 c 1,0,-1
EndSplineSet
EndChar

StartChar: three
Encoding: 51 51 479
Width: 750
GlyphClass: 1
Flags: W
LayerCount: 2
Fore
SplineSet
320 -20 m 256,0,1
 235 -20 235 -20 163.5 17.5 c 128,-1,2
 92 55 92 55 48 116 c 1,3,-1
 105 203.5 105 203.5 139 295 c 1,4,5
 155 232 155 232 204.5 187 c 128,-1,6
 254 142 254 142 322 142 c 0,7,8
 368 142 368 142 404.5 163 c 128,-1,9
 441 184 441 184 462.5 220 c 128,-1,10
 484 256 484 256 484 301 c 0,11,12
 484 345 484 345 463.5 380.5 c 128,-1,13
 443 416 443 416 405.5 437 c 128,-1,14
 368 458 368 458 318 458 c 0,15,16
 288 458 288 458 261 450.5 c 128,-1,17
 234 443 234 443 205 428 c 1,18,-1
 330.5 638.5 330.5 638.5 367 744 c 1,19,-1
 277 804 277 804 108 744 c 1,20,-1
 138 852 138 852 108 900 c 1,21,-1
 360 900 360 900 624 900 c 1,22,-1
 497.5 742.5 497.5 742.5 453 581 c 1,23,24
 511 560 511 560 556 518.5 c 128,-1,25
 601 477 601 477 627.5 420 c 128,-1,26
 654 363 654 363 654 296 c 0,27,28
 654 207 654 207 608 135 c 128,-1,29
 562 63 562 63 486 21.5 c 128,-1,30
 410 -20 410 -20 320 -20 c 256,0,1
EndSplineSet
EndChar

StartChar: four
Encoding: 52 52 480
Width: 750
GlyphClass: 1
Flags: W
LayerCount: 2
Fore
SplineSet
438 0 m 1,0,-1
 456 242 l 1,1,-1
 2 212 l 1,2,-1
 354 900 l 1,3,-1
 534 900 l 1,4,-1
 252 356 l 1,5,-1
 459 338 l 1,6,-1
 442 536 l 1,7,-1
 602 622 l 1,8,-1
 561 338 l 1,9,-1
 708 356 l 1,10,-1
 696 242 l 1,11,-1
 606 212 l 1,12,-1
 564 0 l 1,13,-1
 438 0 l 1,0,-1
EndSplineSet
EndChar

StartChar: five
Encoding: 53 53 481
Width: 750
GlyphClass: 1
Flags: W
LayerCount: 2
Fore
SplineSet
324 -20 m 0,0,1
 237 -20 237 -20 164.5 17.5 c 128,-1,2
 92 55 92 55 48 116 c 1,3,-1
 105 203.5 105 203.5 139 295 c 1,4,5
 155 232 155 232 204.5 187 c 128,-1,6
 254 142 254 142 322 142 c 0,7,8
 367 142 367 142 403.5 163 c 128,-1,9
 440 184 440 184 462 220 c 128,-1,10
 484 256 484 256 484 302 c 256,11,12
 484 350 484 350 461 385 c 128,-1,13
 438 420 438 420 399.5 439 c 128,-1,14
 361 458 361 458 315 458 c 0,15,16
 270 458 270 458 230.5 439.5 c 128,-1,17
 191 421 191 421 162 390 c 1,18,-1
 174 656.5 174 656.5 162 900 c 1,19,-1
 377 900 377 900 594 900 c 1,20,-1
 580 849 580 849 594 744 c 1,21,-1
 426 798 426 798 306 744 c 1,22,-1
 272 687 272 687 306 601 c 1,23,24
 317 604 317 604 328 605 c 128,-1,25
 339 606 339 606 352 606 c 0,26,27
 432 606 432 606 500.5 566.5 c 128,-1,28
 569 527 569 527 611.5 458 c 128,-1,29
 654 389 654 389 654 300 c 256,30,31
 654 210 654 210 609 137.5 c 128,-1,32
 564 65 564 65 489.5 22.5 c 128,-1,33
 415 -20 415 -20 324 -20 c 0,0,1
EndSplineSet
EndChar

StartChar: six
Encoding: 54 54 482
Width: 750
GlyphClass: 1
Flags: W
LayerCount: 2
Fore
SplineSet
381 -12 m 256,0,1
 290 -20 290 -20 215.5 22 c 128,-1,2
 141 64 141 64 103.5 135.5 c 128,-1,3
 66 207 66 207 54 294 c 0,4,5
 54 336 54 336 65 374.5 c 128,-1,6
 76 413 76 413 96 452 c 2,7,-1
 332 900 l 1,8,-1
 516 900 l 1,9,-1
 354 602 l 1,10,11
 310 579 310 579 349 592.5 c 128,-1,12
 388 606 388 606 399 606 c 0,13,14
 480 594 480 594 552 558.5 c 128,-1,15
 624 523 624 523 666 453 c 128,-1,16
 708 383 708 383 708 296 c 256,17,18
 696 208 696 208 654 138.5 c 128,-1,19
 612 69 612 69 540.5 28.5 c 128,-1,20
 469 -12 469 -12 381 -12 c 256,0,1
382 90 m 0,21,22
 440 90 440 90 468 137.5 c 128,-1,23
 496 185 496 185 542 211.5 c 128,-1,24
 588 238 588 238 588 295 c 0,25,26
 538 342 538 342 517.5 377.5 c 128,-1,27
 497 413 497 413 468.5 456.5 c 128,-1,28
 440 500 440 500 381 456 c 0,29,30
 337 456 337 456 284 450 c 128,-1,31
 231 444 231 444 203.5 397.5 c 128,-1,32
 176 351 176 351 224 299 c 0,33,34
 176 238 176 238 221 211.5 c 128,-1,35
 266 185 266 185 301.5 163.5 c 128,-1,36
 337 142 337 142 382 90 c 0,21,22
EndSplineSet
EndChar

StartChar: seven
Encoding: 55 55 483
Width: 750
GlyphClass: 1
Flags: W
LayerCount: 2
Fore
SplineSet
104 0 m 1,0,-1
 327 399 327 399 456 738 c 1,1,-1
 311 798 311 798 72 738 c 1,2,-1
 96 849 96 849 72 900 c 1,3,-1
 395.5 900 395.5 900 725 900 c 1,4,-1
 472.5 450 472.5 450 302 0 c 1,5,-1
 189 0 189 0 104 0 c 1,0,-1
EndSplineSet
EndChar

StartChar: eight
Encoding: 56 56 484
Width: 750
GlyphClass: 1
Flags: W
LayerCount: 2
Fore
SplineSet
375 -20 m 256,0,1
 288 -20 288 -20 214.5 21.5 c 128,-1,2
 141 63 141 63 97 134.5 c 128,-1,3
 53 206 53 206 53 294 c 0,4,5
 53 374 53 374 89.5 439.5 c 128,-1,6
 126 505 126 505 185 547 c 1,7,8
 162 575 162 575 163 617.5 c 128,-1,9
 164 660 164 660 135 687 c 0,10,11
 164 764 164 764 192.5 810.5 c 128,-1,12
 221 857 221 857 269 884.5 c 128,-1,13
 317 912 317 912 375 920 c 256,14,15
 442 920 442 920 496 889 c 128,-1,16
 550 858 550 858 568 811 c 128,-1,17
 586 764 586 764 615 687 c 0,18,19
 615 645 615 645 601.5 610 c 128,-1,20
 588 575 588 575 565 547 c 1,21,22
 624 505 624 505 660.5 439.5 c 128,-1,23
 697 374 697 374 697 294 c 0,24,25
 697 208 697 208 652 136.5 c 128,-1,26
 607 65 607 65 533.5 22.5 c 128,-1,27
 460 -20 460 -20 375 -20 c 256,0,1
375 90 m 256,28,29
 419 138 419 138 454 159 c 128,-1,30
 489 180 489 180 534 208.5 c 128,-1,31
 579 237 579 237 579 294 c 256,32,33
 531 338 531 338 510 373 c 128,-1,34
 489 408 489 408 454 429 c 128,-1,35
 419 450 419 450 375 498 c 256,36,37
 318 498 318 498 289.5 453 c 128,-1,38
 261 408 261 408 240 373 c 128,-1,39
 219 338 219 338 171 294 c 256,40,41
 171 237 171 237 198.5 191 c 128,-1,42
 226 145 226 145 272 117.5 c 128,-1,43
 318 90 318 90 375 90 c 256,28,29
375 586 m 256,44,45
 413 590 413 590 451.5 621.5 c 128,-1,46
 490 653 490 653 490 701 c 256,47,48
 465 718 465 718 444 767 c 128,-1,49
 423 816 423 816 375 816 c 256,50,51
 338 770 338 770 299 759.5 c 128,-1,52
 260 749 260 749 260 701 c 256,53,54
 285 643 285 643 306 614.5 c 128,-1,55
 327 586 327 586 375 586 c 256,44,45
EndSplineSet
EndChar

StartChar: nine
Encoding: 57 57 485
Width: 750
GlyphClass: 1
Flags: W
LayerCount: 2
Fore
SplineSet
228 0 m 1,0,-1
 390 309 l 1,1,2
 380 308 380 308 382 314 c 128,-1,3
 384 320 384 320 351 306 c 0,4,5
 266 306 266 306 197 346.5 c 128,-1,6
 128 387 128 387 88 456 c 128,-1,7
 48 525 48 525 48 610 c 0,8,9
 66 698 66 698 100 768 c 128,-1,10
 134 838 134 838 211 875 c 128,-1,11
 288 912 288 912 369 920 c 0,12,13
 457 912 457 912 530.5 875 c 128,-1,14
 604 838 604 838 647 768.5 c 128,-1,15
 690 699 690 699 690 613 c 0,16,17
 678 574 678 574 673.5 535.5 c 128,-1,18
 669 497 669 497 649 459 c 2,19,-1
 408 0 l 1,20,-1
 228 0 l 1,0,-1
372 414 m 256,21,22
 411 456 411 456 464 461.5 c 128,-1,23
 517 467 517 467 518.5 516.5 c 128,-1,24
 520 566 520 566 570 612 c 256,25,26
 520 649 520 649 500 683 c 128,-1,27
 480 717 480 717 453.5 763.5 c 128,-1,28
 427 810 427 810 372 810 c 256,29,30
 327 758 327 758 293 737.5 c 128,-1,31
 259 717 259 717 216.5 692 c 128,-1,32
 174 667 174 667 218 607 c 256,33,34
 218 566 218 566 222.5 516.5 c 128,-1,35
 227 467 227 467 272 440.5 c 128,-1,36
 317 414 317 414 372 414 c 256,21,22
EndSplineSet
EndChar

StartChar: dek
Encoding: 8586 8586 486
Width: 750
GlyphClass: 1
Flags: W
LayerCount: 2
Fore
SplineSet
383 -20 m 0,0,1
 302 -20 302 -20 234.5 18.5 c 128,-1,2
 167 57 167 57 126 121.5 c 128,-1,3
 85 186 85 186 85 264 c 0,4,5
 85 312 85 312 103 355.5 c 128,-1,6
 121 399 121 399 158 452 c 2,7,-1
 311 609.5 311 609.5 361 738 c 1,8,-1
 271 798 271 798 74 738 c 1,9,-1
 101 849 101 849 74 900 c 1,10,-1
 366 900 366 900 664 900 c 1,11,-1
 450.5 631.5 450.5 631.5 298 363 c 2,12,13
 275 329 275 329 267 306.5 c 128,-1,14
 259 284 259 284 259 264 c 0,15,16
 259 213 259 213 295 177.5 c 128,-1,17
 331 142 331 142 384 142 c 256,18,19
 437 142 437 142 472.5 177.5 c 128,-1,20
 508 213 508 213 508 264 c 0,21,22
 508 332 508 332 449 382 c 1,23,-1
 548.5 366 548.5 366 645 382 c 1,24,25
 676 326 676 326 676 263 c 0,26,27
 676 188 676 188 637.5 123.5 c 128,-1,28
 599 59 599 59 532.5 19.5 c 128,-1,29
 466 -20 466 -20 383 -20 c 0,0,1
EndSplineSet
EndChar

StartChar: el
Encoding: 8587 8587 487
Width: 750
GlyphClass: 1
Flags: W
LayerCount: 2
Fore
SplineSet
114 0 m 1,0,-1
 243.5 180 243.5 180 295 338 c 1,1,2
 243 360 243 360 202 399.5 c 128,-1,3
 161 439 161 439 137.5 492.5 c 128,-1,4
 114 546 114 546 114 609 c 0,5,6
 114 696 114 696 158.5 766.5 c 128,-1,7
 203 837 203 837 276.5 878.5 c 128,-1,8
 350 920 350 920 437 920 c 0,9,10
 519 920 519 920 587 884.5 c 128,-1,11
 655 849 655 849 696 791 c 1,12,-1
 634.5 723.5 634.5 723.5 606 614 c 1,13,14
 591 674 591 674 546.5 717 c 128,-1,15
 502 760 502 760 437 760 c 0,16,17
 394 760 394 760 359.5 740 c 128,-1,18
 325 720 325 720 304.5 686 c 128,-1,19
 284 652 284 652 284 609 c 256,20,21
 284 568 284 568 303 533.5 c 128,-1,22
 322 499 322 499 356.5 479 c 128,-1,23
 391 459 391 459 435 459 c 0,24,25
 490 459 490 459 539 483 c 1,26,-1
 407.5 281.5 407.5 281.5 371 156 c 1,27,-1
 481.5 102 481.5 102 676 156 c 1,28,-1
 649 51 649 51 676 0 c 1,29,-1
 398 0 398 0 114 0 c 1,0,-1
EndSplineSet
EndChar

StartChar: zero.lf
Encoding: 65589 -1 488
Width: 750
GlyphClass: 1
Flags: W
LayerCount: 2
Fore
SplineSet
375 -20 m 256,0,1
 288 -20 288 -20 225.5 21 c 128,-1,2
 163 62 163 62 122 130 c 128,-1,3
 81 198 81 198 61.5 281.5 c 128,-1,4
 42 365 42 365 42 450 c 256,5,6
 42 535 42 535 61.5 618.5 c 128,-1,7
 81 702 81 702 122 770 c 128,-1,8
 163 838 163 838 225.5 879 c 128,-1,9
 288 920 288 920 375 920 c 256,10,11
 462 920 462 920 524.5 879 c 128,-1,12
 587 838 587 838 628 770 c 128,-1,13
 669 702 669 702 688.5 618.5 c 128,-1,14
 708 535 708 535 708 450 c 256,15,16
 708 365 708 365 688.5 281.5 c 128,-1,17
 669 198 669 198 628 130 c 128,-1,18
 587 62 587 62 524.5 21 c 128,-1,19
 462 -20 462 -20 375 -20 c 256,0,1
375 142 m 0,20,21
 417 142 417 142 446.5 170 c 128,-1,22
 476 198 476 198 494 243.5 c 128,-1,23
 512 289 512 289 520 343.5 c 128,-1,24
 528 398 528 398 528 450 c 256,25,26
 528 503 528 503 520 557 c 128,-1,27
 512 611 512 611 494 656.5 c 128,-1,28
 476 702 476 702 446.5 730 c 128,-1,29
 417 758 417 758 375 758 c 0,30,31
 333 758 333 758 303.5 730 c 128,-1,32
 274 702 274 702 256 656.5 c 128,-1,33
 238 611 238 611 230 557 c 128,-1,34
 222 503 222 503 222 450 c 256,35,36
 222 398 222 398 230 343.5 c 128,-1,37
 238 289 238 289 256 243.5 c 128,-1,38
 274 198 274 198 303.5 170 c 128,-1,39
 333 142 333 142 375 142 c 0,20,21
EndSplineSet
EndChar

StartChar: zero.lf.ss01
Encoding: 65590 -1 489
Width: 1060
GlyphClass: 1
Flags: W
LayerCount: 2
Fore
SplineSet
530 -18 m 0,0,1
 431 -18 431 -18 345 18.5 c 128,-1,2
 259 55 259 55 196 119 c 128,-1,3
 133 183 133 183 96.5 268 c 128,-1,4
 60 353 60 353 60 450 c 256,5,6
 54 547 54 547 93.5 632 c 128,-1,7
 133 717 133 717 196 781 c 128,-1,8
 259 845 259 845 345 881.5 c 128,-1,9
 431 918 431 918 530 918 c 0,10,11
 628 918 628 918 713 881.5 c 128,-1,12
 798 845 798 845 862.5 781 c 128,-1,13
 927 717 927 717 963.5 632 c 128,-1,14
 1000 547 1000 547 1000 450 c 256,15,16
 1006 353 1006 353 966.5 268 c 128,-1,17
 927 183 927 183 862.5 119 c 128,-1,18
 798 55 798 55 713 18.5 c 128,-1,19
 628 -18 628 -18 530 -18 c 0,0,1
530 156 m 256,20,21
 629 90 629 90 685 162.5 c 128,-1,22
 741 235 741 235 811.5 293 c 128,-1,23
 882 351 882 351 882 450 c 0,24,25
 818 532 818 532 779.5 598.5 c 128,-1,26
 741 665 741 665 685 737.5 c 128,-1,27
 629 810 629 810 530 744 c 256,28,29
 431 810 431 810 374.5 737.5 c 128,-1,30
 318 665 318 665 248 607.5 c 128,-1,31
 178 550 178 550 178 450 c 0,32,33
 242 369 242 369 280 302 c 128,-1,34
 318 235 318 235 374.5 162.5 c 128,-1,35
 431 90 431 90 530 156 c 256,20,21
EndSplineSet
EndChar

StartChar: zero.lf.zero.ss01
Encoding: 65592 -1 491
Width: 1060
GlyphClass: 1
Flags: W
LayerCount: 2
Fore
SplineSet
530 -18 m 0,0,1
 431 -18 431 -18 345 18.5 c 128,-1,2
 259 55 259 55 196 119 c 128,-1,3
 133 183 133 183 96.5 268 c 128,-1,4
 60 353 60 353 60 450 c 256,5,6
 54 547 54 547 93.5 632 c 128,-1,7
 133 717 133 717 196 781 c 128,-1,8
 259 845 259 845 345 881.5 c 128,-1,9
 431 918 431 918 530 918 c 0,10,11
 628 918 628 918 713 881.5 c 128,-1,12
 798 845 798 845 862.5 781 c 128,-1,13
 927 717 927 717 963.5 632 c 128,-1,14
 1000 547 1000 547 1000 450 c 256,15,16
 1006 353 1006 353 966.5 268 c 128,-1,17
 927 183 927 183 862.5 119 c 128,-1,18
 798 55 798 55 713 18.5 c 128,-1,19
 628 -18 628 -18 530 -18 c 0,0,1
530 156 m 256,20,21
 629 90 629 90 685 162.5 c 128,-1,22
 741 235 741 235 811.5 293 c 128,-1,23
 882 351 882 351 882 450 c 0,24,25
 818 532 818 532 779.5 598.5 c 128,-1,26
 741 665 741 665 685 737.5 c 128,-1,27
 629 810 629 810 530 744 c 256,28,29
 431 810 431 810 374.5 737.5 c 128,-1,30
 318 665 318 665 248 607.5 c 128,-1,31
 178 550 178 550 178 450 c 0,32,33
 242 369 242 369 280 302 c 128,-1,34
 318 235 318 235 374.5 162.5 c 128,-1,35
 431 90 431 90 530 156 c 256,20,21
530 375 m 0,36,37
 500 390 500 390 479 411 c 128,-1,38
 458 432 458 432 458 462 c 0,39,40
 443 499 443 499 468 524 c 128,-1,41
 493 549 493 549 530 534 c 0,42,43
 568 549 568 549 592.5 524.5 c 128,-1,44
 617 500 617 500 602 462 c 0,45,46
 617 425 617 425 589 407.5 c 128,-1,47
 561 390 561 390 530 375 c 0,36,37
EndSplineSet
EndChar

StartChar: one.lf
Encoding: 65593 -1 492
Width: 480
GlyphClass: 1
Flags: W
LayerCount: 2
Fore
SplineSet
198 0 m 1,0,-1
 222 377.5 222 377.5 198 673 c 1,1,-1
 147 717.5 147 717.5 60 606 c 1,2,-1
 72 734 72 734 60 776 c 1,3,-1
 204 854 204 854 372 932 c 1,4,-1
 336 460 336 460 372 0 c 1,5,-1
 279 0 279 0 198 0 c 1,0,-1
EndSplineSet
EndChar

StartChar: two.lf
Encoding: 65594 -1 493
Width: 690
GlyphClass: 1
Flags: W
LayerCount: 2
Fore
SplineSet
56 0 m 1,0,-1
 269.5 268.5 269.5 268.5 422 537 c 2,1,2
 445 572 445 572 453 594.5 c 128,-1,3
 461 617 461 617 461 636 c 0,4,5
 461 687 461 687 425 722.5 c 128,-1,6
 389 758 389 758 336 758 c 256,7,8
 283 758 283 758 247.5 722.5 c 128,-1,9
 212 687 212 687 212 636 c 0,10,11
 212 568 212 568 271 518 c 1,12,-1
 171.5 534 171.5 534 75 518 c 1,13,14
 44 574 44 574 44 637 c 0,15,16
 44 713 44 713 82.5 777 c 128,-1,17
 121 841 121 841 187.5 880.5 c 128,-1,18
 254 920 254 920 337 920 c 256,19,20
 418 920 418 920 486 881.5 c 128,-1,21
 554 843 554 843 594.5 779 c 128,-1,22
 635 715 635 715 635 636 c 0,23,24
 635 588 635 588 617.5 544.5 c 128,-1,25
 600 501 600 501 562 448 c 2,26,-1
 409 290.5 409 290.5 359 162 c 1,27,-1
 449 102 449 102 646 162 c 1,28,-1
 619 51 619 51 646 0 c 1,29,-1
 354 0 354 0 56 0 c 1,0,-1
EndSplineSet
EndChar

StartChar: three.lf
Encoding: 65595 -1 494
Width: 690
GlyphClass: 1
Flags: W
LayerCount: 2
Fore
SplineSet
290 -20 m 256,0,1
 205 -20 205 -20 133.5 17.5 c 128,-1,2
 62 55 62 55 18 116 c 1,3,-1
 75 203.5 75 203.5 109 295 c 1,4,5
 125 232 125 232 174.5 187 c 128,-1,6
 224 142 224 142 292 142 c 0,7,8
 338 142 338 142 374.5 163 c 128,-1,9
 411 184 411 184 432.5 220 c 128,-1,10
 454 256 454 256 454 301 c 0,11,12
 454 345 454 345 433.5 380.5 c 128,-1,13
 413 416 413 416 375.5 437 c 128,-1,14
 338 458 338 458 288 458 c 0,15,16
 258 458 258 458 231 450.5 c 128,-1,17
 204 443 204 443 175 428 c 1,18,-1
 300.5 638.5 300.5 638.5 337 744 c 1,19,-1
 247 804 247 804 78 744 c 1,20,-1
 108 852 108 852 78 900 c 1,21,-1
 330 900 330 900 594 900 c 1,22,-1
 467.5 742.5 467.5 742.5 423 581 c 1,23,24
 481 560 481 560 526 518.5 c 128,-1,25
 571 477 571 477 597.5 420 c 128,-1,26
 624 363 624 363 624 296 c 0,27,28
 624 207 624 207 578 135 c 128,-1,29
 532 63 532 63 456 21.5 c 128,-1,30
 380 -20 380 -20 290 -20 c 256,0,1
EndSplineSet
EndChar

StartChar: four.lf
Encoding: 65596 -1 495
Width: 750
GlyphClass: 1
Flags: W
LayerCount: 2
Fore
SplineSet
438 0 m 1,0,-1
 456 242 l 1,1,-1
 2 212 l 1,2,-1
 354 900 l 1,3,-1
 534 900 l 1,4,-1
 252 356 l 1,5,-1
 459 338 l 1,6,-1
 442 536 l 1,7,-1
 602 622 l 1,8,-1
 561 338 l 1,9,-1
 708 356 l 1,10,-1
 696 242 l 1,11,-1
 606 212 l 1,12,-1
 564 0 l 1,13,-1
 438 0 l 1,0,-1
EndSplineSet
EndChar

StartChar: five.lf
Encoding: 65597 -1 496
Width: 690
GlyphClass: 1
Flags: W
LayerCount: 2
Fore
SplineSet
294 -20 m 0,0,1
 207 -20 207 -20 134.5 17.5 c 128,-1,2
 62 55 62 55 18 116 c 1,3,-1
 75 203.5 75 203.5 109 295 c 1,4,5
 125 232 125 232 174.5 187 c 128,-1,6
 224 142 224 142 292 142 c 0,7,8
 337 142 337 142 373.5 163 c 128,-1,9
 410 184 410 184 432 220 c 128,-1,10
 454 256 454 256 454 302 c 256,11,12
 454 350 454 350 431 385 c 128,-1,13
 408 420 408 420 369.5 439 c 128,-1,14
 331 458 331 458 285 458 c 0,15,16
 240 458 240 458 200.5 439.5 c 128,-1,17
 161 421 161 421 132 390 c 1,18,-1
 144 656.5 144 656.5 132 900 c 1,19,-1
 341 900 341 900 564 900 c 1,20,-1
 538 849 538 849 564 744 c 1,21,-1
 390 798 390 798 276 744 c 1,22,-1
 242 687 242 687 276 601 c 1,23,24
 287 604 287 604 298 605 c 128,-1,25
 309 606 309 606 322 606 c 0,26,27
 402 606 402 606 470.5 566.5 c 128,-1,28
 539 527 539 527 581.5 458 c 128,-1,29
 624 389 624 389 624 300 c 256,30,31
 624 210 624 210 579 137.5 c 128,-1,32
 534 65 534 65 459.5 22.5 c 128,-1,33
 385 -20 385 -20 294 -20 c 0,0,1
EndSplineSet
EndChar

StartChar: six.lf
Encoding: 65598 -1 497
Width: 750
GlyphClass: 1
Flags: W
LayerCount: 2
Fore
SplineSet
375 -12 m 256,0,1
 290 -20 290 -20 215.5 22 c 128,-1,2
 141 64 141 64 100.5 135.5 c 128,-1,3
 60 207 60 207 54 294 c 0,4,5
 54 336 54 336 65 374.5 c 128,-1,6
 76 413 76 413 96 452 c 2,7,-1
 332 900 l 1,8,-1
 516 900 l 1,9,-1
 354 602 l 1,10,11
 304 579 304 579 346 592.5 c 128,-1,12
 388 606 388 606 399 606 c 0,13,14
 474 594 474 594 549 558.5 c 128,-1,15
 624 523 624 523 666 453 c 128,-1,16
 708 383 708 383 708 296 c 256,17,18
 690 208 690 208 648 138.5 c 128,-1,19
 606 69 606 69 534.5 28.5 c 128,-1,20
 463 -12 463 -12 375 -12 c 256,0,1
376 90 m 0,21,22
 434 90 434 90 465 137.5 c 128,-1,23
 496 185 496 185 539 211.5 c 128,-1,24
 582 238 582 238 582 295 c 0,25,26
 538 342 538 342 517.5 377.5 c 128,-1,27
 497 413 497 413 465.5 456.5 c 128,-1,28
 434 500 434 500 381 456 c 0,29,30
 337 456 337 456 281 450 c 128,-1,31
 225 444 225 444 197.5 397.5 c 128,-1,32
 170 351 170 351 224 299 c 0,33,34
 170 238 170 238 218 211.5 c 128,-1,35
 266 185 266 185 301.5 163.5 c 128,-1,36
 337 142 337 142 376 90 c 0,21,22
EndSplineSet
EndChar

StartChar: seven.lf
Encoding: 65599 -1 498
Width: 690
GlyphClass: 1
Flags: W
LayerCount: 2
Fore
SplineSet
54 0 m 1,0,-1
 282 399 282 399 406 738 c 1,1,-1
 266 798 266 798 42 738 c 1,2,-1
 51 849 51 849 42 900 c 1,3,-1
 350.5 900 350.5 900 675 900 c 1,4,-1
 427.5 450 427.5 450 252 0 c 1,5,-1
 144 0 144 0 54 0 c 1,0,-1
EndSplineSet
EndChar

StartChar: eight.lf
Encoding: 65600 -1 499
Width: 750
GlyphClass: 1
Flags: W
LayerCount: 2
Fore
SplineSet
375 -20 m 256,0,1
 288 -20 288 -20 214.5 21.5 c 128,-1,2
 141 63 141 63 97 134.5 c 128,-1,3
 53 206 53 206 53 294 c 0,4,5
 53 374 53 374 89.5 439.5 c 128,-1,6
 126 505 126 505 185 547 c 1,7,8
 162 575 162 575 163 617.5 c 128,-1,9
 164 660 164 660 135 687 c 0,10,11
 164 764 164 764 192.5 810.5 c 128,-1,12
 221 857 221 857 269 884.5 c 128,-1,13
 317 912 317 912 375 920 c 256,14,15
 442 920 442 920 496 889 c 128,-1,16
 550 858 550 858 568 811 c 128,-1,17
 586 764 586 764 615 687 c 0,18,19
 615 645 615 645 601.5 610 c 128,-1,20
 588 575 588 575 565 547 c 1,21,22
 624 505 624 505 660.5 439.5 c 128,-1,23
 697 374 697 374 697 294 c 0,24,25
 697 208 697 208 652 136.5 c 128,-1,26
 607 65 607 65 533.5 22.5 c 128,-1,27
 460 -20 460 -20 375 -20 c 256,0,1
375 90 m 256,28,29
 419 138 419 138 454 159 c 128,-1,30
 489 180 489 180 534 208.5 c 128,-1,31
 579 237 579 237 579 294 c 256,32,33
 531 338 531 338 510 373 c 128,-1,34
 489 408 489 408 454 429 c 128,-1,35
 419 450 419 450 375 498 c 256,36,37
 318 498 318 498 289.5 453 c 128,-1,38
 261 408 261 408 240 373 c 128,-1,39
 219 338 219 338 171 294 c 256,40,41
 171 237 171 237 198.5 191 c 128,-1,42
 226 145 226 145 272 117.5 c 128,-1,43
 318 90 318 90 375 90 c 256,28,29
375 586 m 256,44,45
 413 590 413 590 451.5 621.5 c 128,-1,46
 490 653 490 653 490 701 c 256,47,48
 465 718 465 718 444 767 c 128,-1,49
 423 816 423 816 375 816 c 256,50,51
 338 770 338 770 299 759.5 c 128,-1,52
 260 749 260 749 260 701 c 256,53,54
 285 643 285 643 306 614.5 c 128,-1,55
 327 586 327 586 375 586 c 256,44,45
EndSplineSet
EndChar

StartChar: nine.lf
Encoding: 65601 -1 500
Width: 750
GlyphClass: 1
Flags: W
LayerCount: 2
Fore
SplineSet
228 0 m 1,0,-1
 390 309 l 1,1,2
 380 308 380 308 381.5 314 c 128,-1,3
 383 320 383 320 351 306 c 0,4,5
 266 306 266 306 197 346.5 c 128,-1,6
 128 387 128 387 88 456 c 128,-1,7
 48 525 48 525 48 610 c 0,8,9
 66 698 66 698 100 768 c 128,-1,10
 134 838 134 838 211 875 c 128,-1,11
 288 912 288 912 369 920 c 0,12,13
 457 912 457 912 530.5 875 c 128,-1,14
 604 838 604 838 647 768.5 c 128,-1,15
 690 699 690 699 690 613 c 0,16,17
 678 574 678 574 673.5 535.5 c 128,-1,18
 669 497 669 497 649 459 c 2,19,-1
 408 0 l 1,20,-1
 228 0 l 1,0,-1
372 414 m 256,21,22
 411 456 411 456 464 461.5 c 128,-1,23
 517 467 517 467 518.5 516.5 c 128,-1,24
 520 566 520 566 570 612 c 256,25,26
 520 649 520 649 500 683 c 128,-1,27
 480 717 480 717 453.5 763.5 c 128,-1,28
 427 810 427 810 372 810 c 256,29,30
 327 758 327 758 293 737.5 c 128,-1,31
 259 717 259 717 216.5 692 c 128,-1,32
 174 667 174 667 218 607 c 256,33,34
 218 566 218 566 222.5 516.5 c 128,-1,35
 227 467 227 467 272 440.5 c 128,-1,36
 317 414 317 414 372 414 c 256,21,22
EndSplineSet
EndChar

StartChar: dek.lf
Encoding: 65602 -1 501
Width: 690
GlyphClass: 1
Flags: W
LayerCount: 2
Fore
SplineSet
353 -20 m 0,0,1
 272 -20 272 -20 204.5 18.5 c 128,-1,2
 137 57 137 57 96 121.5 c 128,-1,3
 55 186 55 186 55 264 c 0,4,5
 55 312 55 312 73 355.5 c 128,-1,6
 91 399 91 399 128 452 c 2,7,-1
 281 609.5 281 609.5 331 738 c 1,8,-1
 241 798 241 798 44 738 c 1,9,-1
 71 849 71 849 44 900 c 1,10,-1
 336 900 336 900 634 900 c 1,11,-1
 420.5 631.5 420.5 631.5 268 363 c 2,12,13
 245 329 245 329 237 306.5 c 128,-1,14
 229 284 229 284 229 264 c 0,15,16
 229 213 229 213 265 177.5 c 128,-1,17
 301 142 301 142 354 142 c 256,18,19
 407 142 407 142 442.5 177.5 c 128,-1,20
 478 213 478 213 478 264 c 0,21,22
 478 332 478 332 419 382 c 1,23,-1
 518.5 366 518.5 366 615 382 c 1,24,25
 646 326 646 326 646 263 c 0,26,27
 646 188 646 188 607.5 123.5 c 128,-1,28
 569 59 569 59 502.5 19.5 c 128,-1,29
 436 -20 436 -20 353 -20 c 0,0,1
EndSplineSet
EndChar

StartChar: el.lf
Encoding: 65603 -1 502
Width: 690
GlyphClass: 1
Flags: W
LayerCount: 2
Fore
SplineSet
84 0 m 1,0,-1
 213.5 180 213.5 180 265 338 c 1,1,2
 213 360 213 360 172 399.5 c 128,-1,3
 131 439 131 439 107.5 492.5 c 128,-1,4
 84 546 84 546 84 609 c 0,5,6
 84 696 84 696 128.5 766.5 c 128,-1,7
 173 837 173 837 246.5 878.5 c 128,-1,8
 320 920 320 920 407 920 c 0,9,10
 489 920 489 920 557 884.5 c 128,-1,11
 625 849 625 849 666 791 c 1,12,-1
 604.5 723.5 604.5 723.5 576 614 c 1,13,14
 561 674 561 674 516.5 717 c 128,-1,15
 472 760 472 760 407 760 c 0,16,17
 364 760 364 760 329.5 740 c 128,-1,18
 295 720 295 720 274.5 686 c 128,-1,19
 254 652 254 652 254 609 c 256,20,21
 254 568 254 568 273 533.5 c 128,-1,22
 292 499 292 499 326.5 479 c 128,-1,23
 361 459 361 459 405 459 c 0,24,25
 460 459 460 459 509 483 c 1,26,-1
 377.5 281.5 377.5 281.5 341 156 c 1,27,-1
 451.5 102 451.5 102 646 156 c 1,28,-1
 619 51 619 51 646 0 c 1,29,-1
 368 0 368 0 84 0 c 1,0,-1
EndSplineSet
EndChar

StartChar: zero.dnom
Encoding: 65617 -1 516
Width: 480
GlyphClass: 1
Flags: W
LayerCount: 2
Fore
SplineSet
240 -12 m 0,0,1
 172 -12 172 -12 126.5 24 c 128,-1,2
 81 60 81 60 58.5 118 c 128,-1,3
 36 176 36 176 48 240 c 256,4,5
 36 305 36 305 58.5 362.5 c 128,-1,6
 81 420 81 420 128.5 456 c 128,-1,7
 176 492 176 492 240 492 c 0,8,9
 309 492 309 492 354 456 c 128,-1,10
 399 420 399 420 421.5 362.5 c 128,-1,11
 444 305 444 305 432 240 c 256,12,13
 444 176 444 176 421.5 118 c 128,-1,14
 399 60 399 60 352 24 c 128,-1,15
 305 -12 305 -12 240 -12 c 0,0,1
240 68 m 0,16,17
 267 108 267 108 282.5 126.5 c 128,-1,18
 298 145 298 145 305 175.5 c 128,-1,19
 312 206 312 206 342 240 c 0,20,21
 312 275 312 275 305 305 c 128,-1,22
 298 335 298 335 282.5 353.5 c 128,-1,23
 267 372 267 372 240 412 c 0,24,25
 204 412 204 412 193 373.5 c 128,-1,26
 182 335 182 335 175 305 c 128,-1,27
 168 275 168 275 138 240 c 0,28,29
 168 206 168 206 175 175.5 c 128,-1,30
 182 145 182 145 193 106.5 c 128,-1,31
 204 68 204 68 240 68 c 0,16,17
EndSplineSet
EndChar

StartChar: one.dnom
Encoding: 65618 -1 517
Width: 480
GlyphClass: 1
Flags: W
LayerCount: 2
Fore
SplineSet
210 0 m 1,0,-1
 228 185.5 228 185.5 210 305 c 1,1,-1
 171 342.5 171 342.5 96 248 c 1,2,-1
 114 356 114 356 96 386 c 1,3,-1
 216 449 216 449 348 512 c 1,4,-1
 318 250 318 250 348 0 c 1,5,-1
 273 0 273 0 210 0 c 1,0,-1
EndSplineSet
EndChar

StartChar: two.dnom
Encoding: 65619 -1 518
Width: 480
GlyphClass: 1
Flags: W
LayerCount: 2
Fore
SplineSet
45 0 m 1,0,-1
 169 131 169 131 246 249 c 2,1,2
 266 275 266 275 274 290.5 c 128,-1,3
 282 306 282 306 282 322 c 0,4,5
 282 348 282 348 266.5 363 c 128,-1,6
 251 378 251 378 228 378 c 0,7,8
 202 378 202 378 187.5 361.5 c 128,-1,9
 173 345 173 345 173 321 c 0,10,11
 173 296 173 296 193 270 c 1,12,-1
 125 282 125 282 55 270 c 1,13,14
 51 284 51 284 48 296 c 128,-1,15
 45 308 45 308 45 327 c 0,16,17
 45 400 45 400 97.5 449 c 128,-1,18
 150 498 150 498 229 498 c 0,19,20
 282 498 282 498 324 475 c 128,-1,21
 366 452 366 452 390 413 c 128,-1,22
 414 374 414 374 414 327 c 0,23,24
 414 266 414 266 351 192 c 0,25,26
 335 172 335 172 314.5 152 c 128,-1,27
 294 132 294 132 269 112 c 1,28,29
 284 113 284 113 300 113.5 c 128,-1,30
 316 114 316 114 333 114 c 2,31,-1
 357 80 357 80 435 114 c 1,32,-1
 414 40 414 40 435 0 c 1,33,-1
 242 0 242 0 45 0 c 1,0,-1
EndSplineSet
EndChar

StartChar: three.dnom
Encoding: 65620 -1 519
Width: 480
GlyphClass: 1
Flags: W
LayerCount: 2
Fore
SplineSet
208 -18 m 0,0,1
 153 -18 153 -18 109.5 3 c 128,-1,2
 66 24 66 24 42 54 c 1,3,-1
 86 114.5 86 114.5 107 172 c 1,4,5
 115 146 115 146 139.5 124 c 128,-1,6
 164 102 164 102 202 102 c 0,7,8
 238 102 238 102 260 121 c 128,-1,9
 282 140 282 140 282 169 c 256,10,11
 282 193 282 193 264 214.5 c 128,-1,12
 246 236 246 236 202 236 c 0,13,14
 182 236 182 236 164 230.5 c 128,-1,15
 146 225 146 225 131 217 c 1,16,-1
 195 321.5 195 321.5 211 366 c 1,17,-1
 161 400 161 400 66 366 c 1,18,-1
 85 440 85 440 66 480 c 1,19,-1
 225.5 480 225.5 480 405 480 c 1,20,-1
 322.5 402.5 322.5 402.5 314 317 c 1,21,22
 361 295 361 295 387.5 254 c 128,-1,23
 414 213 414 213 414 163 c 0,24,25
 414 84 414 84 355 33 c 128,-1,26
 296 -18 296 -18 208 -18 c 0,0,1
EndSplineSet
EndChar

StartChar: four.dnom
Encoding: 65621 -1 520
Width: 480
GlyphClass: 1
Flags: W
LayerCount: 2
Fore
SplineSet
272 0 m 1,0,-1
 272 102 l 1,1,-1
 148 114 148 114 0 102 c 1,2,-1
 117.5 297 117.5 297 199 480 c 1,3,-1
 257 480 257 480 337 480 c 1,4,-1
 226.5 332.5 226.5 332.5 188 203 c 1,5,-1
 212 185 212 185 278 203 c 1,6,-1
 274 234.5 274 234.5 278 285 c 1,7,-1
 314 306 314 306 392 348 c 1,8,-1
 354 256.5 354 256.5 392 209 c 1,9,-1
 390 185 390 185 450 209 c 1,10,-1
 426 149.5 426 149.5 450 102 c 1,11,-1
 391 114 391 114 392 102 c 1,12,-1
 356 57 356 57 392 0 c 1,13,-1
 272 0 l 1,0,-1
EndSplineSet
EndChar

StartChar: five.dnom
Encoding: 65622 -1 521
Width: 480
GlyphClass: 1
Flags: W
LayerCount: 2
Fore
SplineSet
209 -18 m 0,0,1
 154 -18 154 -18 110 3 c 128,-1,2
 66 24 66 24 42 54 c 1,3,-1
 86 114.5 86 114.5 107 172 c 1,4,5
 115 146 115 146 139.5 124 c 128,-1,6
 164 102 164 102 202 102 c 0,7,8
 240 102 240 102 261 121.5 c 128,-1,9
 282 141 282 141 282 169 c 256,10,11
 282 197 282 197 261 216.5 c 128,-1,12
 240 236 240 236 202 236 c 0,13,14
 175 236 175 236 153 227 c 128,-1,15
 131 218 131 218 113 201 c 1,16,-1
 125 343.5 125 343.5 113 480 c 1,17,-1
 244 480 244 480 390 480 c 1,18,-1
 363 440 363 440 390 372 c 1,19,-1
 279 400 279 400 227 372 c 1,20,-1
 195 361.5 195 361.5 227 326 c 1,21,22
 233 327 233 327 246 327 c 0,23,24
 324 327 324 327 369 280 c 128,-1,25
 414 233 414 233 414 165 c 0,26,27
 414 112 414 112 387 70.5 c 128,-1,28
 360 29 360 29 313.5 5.5 c 128,-1,29
 267 -18 267 -18 209 -18 c 0,0,1
EndSplineSet
EndChar

StartChar: six.dnom
Encoding: 65623 -1 522
Width: 480
GlyphClass: 1
Flags: W
LayerCount: 2
Fore
SplineSet
240 -12 m 256,0,1
 185 -18 185 -18 139.5 6.5 c 128,-1,2
 94 31 94 31 76 72 c 128,-1,3
 58 113 58 113 39 168 c 0,4,5
 39 214 39 214 62 258 c 2,6,-1
 182 480 l 1,7,-1
 317 480 l 1,8,-1
 238 342 l 1,9,10
 244 343 244 343 254 343 c 0,11,12
 299 331 299 331 337.5 309 c 128,-1,13
 376 287 376 287 399 249.5 c 128,-1,14
 422 212 422 212 422 163 c 256,15,16
 441 114 441 114 413.5 72.5 c 128,-1,17
 386 31 386 31 338 9.5 c 128,-1,18
 290 -12 290 -12 240 -12 c 256,0,1
144 163 m 0,19,20
 165 136 165 136 182.5 102 c 128,-1,21
 200 68 200 68 240 68 c 256,22,23
 271 92 271 92 293 114 c 128,-1,24
 315 136 315 136 336 163 c 0,25,26
 336 203 336 203 308.5 231.5 c 128,-1,27
 281 260 281 260 240 260 c 0,28,29
 209 242 209 242 176.5 222.5 c 128,-1,30
 144 203 144 203 144 163 c 0,19,20
EndSplineSet
EndChar

StartChar: seven.dnom
Encoding: 65624 -1 523
Width: 480
GlyphClass: 1
Flags: W
LayerCount: 2
Fore
SplineSet
72 0 m 1,0,-1
 202 200 202 200 250 360 c 1,1,-1
 194 400 194 400 68 360 c 1,2,-1
 86 440 86 440 68 480 c 1,3,-1
 260.5 480 260.5 480 453 480 c 1,4,-1
 316.5 240 316.5 240 216 0 c 1,5,-1
 150 0 150 0 72 0 c 1,0,-1
EndSplineSet
EndChar

StartChar: eight.dnom
Encoding: 65625 -1 524
Width: 480
GlyphClass: 1
Flags: W
LayerCount: 2
Fore
SplineSet
240 -18 m 0,0,1
 190 -18 190 -18 143.5 1.5 c 128,-1,2
 97 21 97 21 68 58 c 128,-1,3
 39 95 39 95 39 147 c 0,4,5
 39 188 39 188 57 221.5 c 128,-1,6
 75 255 75 255 106 277 c 1,7,8
 92 292 92 292 83.5 312 c 128,-1,9
 75 332 75 332 75 356 c 0,10,11
 75 415 75 415 120 456.5 c 128,-1,12
 165 498 165 498 240 498 c 0,13,14
 315 498 315 498 360 462 c 128,-1,15
 405 426 405 426 405 356 c 0,16,17
 405 332 405 332 396.5 312 c 128,-1,18
 388 292 388 292 374 277 c 1,19,20
 405 255 405 255 423 221.5 c 128,-1,21
 441 188 441 188 441 147 c 0,22,23
 441 95 441 95 413.5 58 c 128,-1,24
 386 21 386 21 340.5 1.5 c 128,-1,25
 295 -18 295 -18 240 -18 c 0,0,1
240 90 m 256,26,27
 271 90 271 90 291.5 110.5 c 128,-1,28
 312 131 312 131 312 162 c 256,29,30
 312 193 312 193 291.5 213.5 c 128,-1,31
 271 234 271 234 240 234 c 256,32,33
 209 234 209 234 188.5 213.5 c 128,-1,34
 168 193 168 193 168 162 c 256,35,36
 168 131 168 131 188.5 110.5 c 128,-1,37
 209 90 209 90 240 90 c 256,26,27
240 300 m 0,38,39
 261 300 261 300 276 315 c 128,-1,40
 291 330 291 330 291 351 c 0,41,42
 291 372 291 372 276 387 c 128,-1,43
 261 402 261 402 240 402 c 0,44,45
 219 402 219 402 204 387 c 128,-1,46
 189 372 189 372 189 351 c 0,47,48
 189 330 189 330 204 315 c 128,-1,49
 219 300 219 300 240 300 c 0,38,39
EndSplineSet
EndChar

StartChar: nine.dnom
Encoding: 65626 -1 525
Width: 480
GlyphClass: 1
Flags: W
LayerCount: 2
Fore
SplineSet
163 0 m 1,0,-1
 242 138 l 1,1,2
 262 159 262 159 250 157 c 128,-1,3
 238 155 238 155 226 137 c 0,4,5
 175 137 175 137 132.5 160 c 128,-1,6
 90 183 90 183 77 228 c 128,-1,7
 64 273 64 273 64 320 c 0,8,9
 39 366 39 366 75.5 406 c 128,-1,10
 112 446 112 446 152 469 c 128,-1,11
 192 492 192 492 240 498 c 0,12,13
 295 498 295 498 331.5 472.5 c 128,-1,14
 368 447 368 447 404.5 406 c 128,-1,15
 441 365 441 365 416 321 c 0,16,17
 416 279 416 279 418 222 c 2,18,-1
 298 0 l 1,19,-1
 163 0 l 1,0,-1
240 232 m 256,20,21
 278 232 278 232 304 259 c 128,-1,22
 330 286 330 286 330 323 c 256,23,24
 315 345 315 345 296.5 378.5 c 128,-1,25
 278 412 278 412 240 412 c 0,26,27
 209 388 209 388 179.5 374 c 128,-1,28
 150 360 150 360 150 323 c 256,29,30
 165 283 165 283 187 260.5 c 128,-1,31
 209 238 209 238 240 232 c 256,20,21
EndSplineSet
EndChar

StartChar: dek.dnom
Encoding: 65627 -1 526
Width: 480
GlyphClass: 1
Flags: W
LayerCount: 2
Fore
SplineSet
251 -18 m 0,0,1
 198 -18 198 -18 156 5 c 128,-1,2
 114 28 114 28 90 67 c 128,-1,3
 66 106 66 106 66 153 c 0,4,5
 66 214 66 214 129 288 c 0,6,7
 146 308 146 308 166 328 c 128,-1,8
 186 348 186 348 211 368 c 1,9,10
 196 367 196 367 180 366.5 c 128,-1,11
 164 366 164 366 147 366 c 2,12,-1
 123 400 123 400 45 366 c 1,13,-1
 66 440 66 440 45 480 c 1,14,-1
 238 480 238 480 435 480 c 1,15,-1
 311 349 311 349 234 231 c 2,16,17
 214 206 214 206 206 190 c 128,-1,18
 198 174 198 174 198 158 c 0,19,20
 198 132 198 132 213.5 117 c 128,-1,21
 229 102 229 102 252 102 c 0,22,23
 278 102 278 102 292.5 118.5 c 128,-1,24
 307 135 307 135 307 159 c 0,25,26
 307 184 307 184 287 210 c 1,27,-1
 355 198 355 198 425 210 c 1,28,29
 430 196 430 196 432.5 184 c 128,-1,30
 435 172 435 172 435 153 c 0,31,32
 435 80 435 80 382.5 31 c 128,-1,33
 330 -18 330 -18 251 -18 c 0,0,1
EndSplineSet
EndChar

StartChar: el.dnom
Encoding: 65628 -1 527
Width: 480
GlyphClass: 1
Flags: W
LayerCount: 2
Fore
SplineSet
55 0 m 1,0,-1
 134 95 134 95 158 178 c 1,1,2
 117 201 117 201 94.5 239 c 128,-1,3
 72 277 72 277 72 323 c 0,4,5
 72 374 72 374 99 413.5 c 128,-1,6
 126 453 126 453 172 475.5 c 128,-1,7
 218 498 218 498 274 498 c 0,8,9
 327 498 327 498 369.5 477.5 c 128,-1,10
 412 457 412 457 435 428 c 1,11,-1
 384 377.5 384 377.5 369 316 c 1,12,13
 359 342 359 342 335.5 363 c 128,-1,14
 312 384 312 384 277 384 c 256,15,16
 243 384 243 384 223.5 365.5 c 128,-1,17
 204 347 204 347 204 318 c 0,18,19
 204 294 204 294 221 273 c 128,-1,20
 238 252 238 252 277 252 c 0,21,22
 296 252 296 252 312 257.5 c 128,-1,23
 328 263 328 263 343 270 c 1,24,-1
 264 171.5 264 171.5 253 114 c 1,25,-1
 312 80 312 80 435 114 c 1,26,-1
 414 40 414 40 435 0 c 1,27,-1
 246 0 246 0 55 0 c 1,0,-1
EndSplineSet
EndChar

StartChar: zero.numr
Encoding: 65629 -1 528
Width: 480
GlyphClass: 1
Flags: W
LayerCount: 2
Fore
SplineSet
240 408 m 0,0,1
 172 408 172 408 126.5 444 c 128,-1,2
 81 480 81 480 58.5 538 c 128,-1,3
 36 596 36 596 48 660 c 256,4,5
 36 725 36 725 58.5 782.5 c 128,-1,6
 81 840 81 840 128.5 876 c 128,-1,7
 176 912 176 912 240 912 c 0,8,9
 309 912 309 912 354 876 c 128,-1,10
 399 840 399 840 421.5 782.5 c 128,-1,11
 444 725 444 725 432 660 c 256,12,13
 444 596 444 596 421.5 538 c 128,-1,14
 399 480 399 480 352 444 c 128,-1,15
 305 408 305 408 240 408 c 0,0,1
240 488 m 0,16,17
 267 528 267 528 282.5 546.5 c 128,-1,18
 298 565 298 565 305 595.5 c 128,-1,19
 312 626 312 626 342 660 c 0,20,21
 312 695 312 695 305 725 c 128,-1,22
 298 755 298 755 282.5 773.5 c 128,-1,23
 267 792 267 792 240 832 c 0,24,25
 204 832 204 832 193 793.5 c 128,-1,26
 182 755 182 755 175 725 c 128,-1,27
 168 695 168 695 138 660 c 0,28,29
 168 626 168 626 175 595.5 c 128,-1,30
 182 565 182 565 193 526.5 c 128,-1,31
 204 488 204 488 240 488 c 0,16,17
EndSplineSet
EndChar

StartChar: one.numr
Encoding: 65630 -1 529
Width: 480
GlyphClass: 1
Flags: W
LayerCount: 2
Fore
SplineSet
210 420 m 1,0,-1
 228 605.5 228 605.5 210 725 c 1,1,-1
 171 762.5 171 762.5 96 668 c 1,2,-1
 114 776 114 776 96 806 c 1,3,-1
 216 869 216 869 348 932 c 1,4,-1
 318 670 318 670 348 420 c 1,5,-1
 273 420 273 420 210 420 c 1,0,-1
EndSplineSet
EndChar

StartChar: two.numr
Encoding: 65631 -1 530
Width: 480
GlyphClass: 1
Flags: W
LayerCount: 2
Fore
SplineSet
45 420 m 1,0,-1
 169 551 169 551 246 669 c 2,1,2
 266 695 266 695 274 710.5 c 128,-1,3
 282 726 282 726 282 742 c 0,4,5
 282 768 282 768 266.5 783 c 128,-1,6
 251 798 251 798 228 798 c 0,7,8
 202 798 202 798 187.5 781.5 c 128,-1,9
 173 765 173 765 173 741 c 0,10,11
 173 716 173 716 193 690 c 1,12,-1
 125 702 125 702 55 690 c 1,13,14
 51 704 51 704 48 716 c 128,-1,15
 45 728 45 728 45 747 c 0,16,17
 45 820 45 820 97.5 869 c 128,-1,18
 150 918 150 918 229 918 c 0,19,20
 282 918 282 918 324 895 c 128,-1,21
 366 872 366 872 390 833 c 128,-1,22
 414 794 414 794 414 747 c 0,23,24
 414 686 414 686 351 612 c 0,25,26
 335 592 335 592 314.5 572 c 128,-1,27
 294 552 294 552 269 532 c 1,28,29
 284 533 284 533 300 533.5 c 128,-1,30
 316 534 316 534 333 534 c 2,31,-1
 351 500 351 500 423 534 c 1,32,-1
 402 460 402 460 423 420 c 1,33,-1
 236 420 236 420 45 420 c 1,0,-1
EndSplineSet
EndChar

StartChar: three.numr
Encoding: 65632 -1 531
Width: 480
GlyphClass: 1
Flags: W
LayerCount: 2
Fore
SplineSet
208 402 m 0,0,1
 153 402 153 402 109.5 423 c 128,-1,2
 66 444 66 444 42 474 c 1,3,-1
 86 534.5 86 534.5 107 592 c 1,4,5
 115 566 115 566 139.5 544 c 128,-1,6
 164 522 164 522 202 522 c 0,7,8
 238 522 238 522 260 541 c 128,-1,9
 282 560 282 560 282 589 c 256,10,11
 282 613 282 613 264 634.5 c 128,-1,12
 246 656 246 656 202 656 c 0,13,14
 182 656 182 656 164 650.5 c 128,-1,15
 146 645 146 645 131 637 c 1,16,-1
 195 741.5 195 741.5 211 786 c 1,17,-1
 161 820 161 820 66 786 c 1,18,-1
 85 860 85 860 66 900 c 1,19,-1
 225.5 900 225.5 900 405 900 c 1,20,-1
 322.5 822.5 322.5 822.5 314 737 c 1,21,22
 361 715 361 715 387.5 674 c 128,-1,23
 414 633 414 633 414 583 c 0,24,25
 414 504 414 504 355 453 c 128,-1,26
 296 402 296 402 208 402 c 0,0,1
EndSplineSet
EndChar

StartChar: four.numr
Encoding: 65633 -1 532
Width: 480
GlyphClass: 1
Flags: W
LayerCount: 2
Fore
SplineSet
272 420 m 1,0,-1
 272 522 l 1,1,-1
 148 534 148 534 0 522 c 1,2,-1
 117.5 717 117.5 717 199 900 c 1,3,-1
 257 900 257 900 337 900 c 1,4,-1
 226.5 752.5 226.5 752.5 188 623 c 1,5,-1
 212 605 212 605 278 623 c 1,6,-1
 274 654.5 274 654.5 278 705 c 1,7,-1
 314 726 314 726 392 768 c 1,8,-1
 354 676.5 354 676.5 392 629 c 1,9,-1
 390 605 390 605 450 629 c 1,10,-1
 426 569.5 426 569.5 450 522 c 1,11,-1
 391 534 391 534 392 522 c 1,12,-1
 356 477 356 477 392 420 c 1,13,-1
 272 420 l 1,0,-1
EndSplineSet
EndChar

StartChar: five.numr
Encoding: 65634 -1 533
Width: 480
GlyphClass: 1
Flags: W
LayerCount: 2
Fore
SplineSet
209 402 m 0,0,1
 154 402 154 402 110 423 c 128,-1,2
 66 444 66 444 42 474 c 1,3,-1
 86 534.5 86 534.5 107 592 c 1,4,5
 115 566 115 566 139.5 544 c 128,-1,6
 164 522 164 522 202 522 c 0,7,8
 240 522 240 522 261 541.5 c 128,-1,9
 282 561 282 561 282 589 c 256,10,11
 282 617 282 617 261 636.5 c 128,-1,12
 240 656 240 656 202 656 c 0,13,14
 175 656 175 656 153 647 c 128,-1,15
 131 638 131 638 113 621 c 1,16,-1
 125 763.5 125 763.5 113 900 c 1,17,-1
 244 900 244 900 390 900 c 1,18,-1
 363 860 363 860 390 792 c 1,19,-1
 279 820 279 820 227 792 c 1,20,-1
 195 781.5 195 781.5 227 746 c 1,21,22
 233 747 233 747 246 747 c 0,23,24
 324 747 324 747 369 700 c 128,-1,25
 414 653 414 653 414 585 c 0,26,27
 414 532 414 532 387 490.5 c 128,-1,28
 360 449 360 449 313.5 425.5 c 128,-1,29
 267 402 267 402 209 402 c 0,0,1
EndSplineSet
EndChar

StartChar: six.numr
Encoding: 65635 -1 534
Width: 480
GlyphClass: 1
Flags: W
LayerCount: 2
Fore
SplineSet
240 408 m 256,0,1
 185 402 185 402 139.5 426.5 c 128,-1,2
 94 451 94 451 76 492 c 128,-1,3
 58 533 58 533 39 588 c 0,4,5
 39 634 39 634 62 678 c 2,6,-1
 182 900 l 1,7,-1
 317 900 l 1,8,-1
 238 762 l 1,9,10
 244 763 244 763 254 763 c 0,11,12
 299 751 299 751 337.5 729 c 128,-1,13
 376 707 376 707 399 669.5 c 128,-1,14
 422 632 422 632 422 583 c 256,15,16
 441 534 441 534 413.5 492.5 c 128,-1,17
 386 451 386 451 338 429.5 c 128,-1,18
 290 408 290 408 240 408 c 256,0,1
240 488 m 256,19,20
 271 512 271 512 293 534 c 128,-1,21
 315 556 315 556 336 583 c 0,22,23
 336 623 336 623 308.5 651.5 c 128,-1,24
 281 680 281 680 240 680 c 0,25,26
 209 662 209 662 176.5 642.5 c 128,-1,27
 144 623 144 623 144 583 c 0,28,29
 165 556 165 556 182.5 522 c 128,-1,30
 200 488 200 488 240 488 c 256,19,20
EndSplineSet
EndChar

StartChar: seven.numr
Encoding: 65636 -1 535
Width: 480
GlyphClass: 1
Flags: W
LayerCount: 2
Fore
SplineSet
72 420 m 1,0,-1
 202 620 202 620 250 780 c 1,1,-1
 194 820 194 820 68 780 c 1,2,-1
 86 860 86 860 68 900 c 1,3,-1
 260.5 900 260.5 900 453 900 c 1,4,-1
 316.5 660 316.5 660 216 420 c 1,5,-1
 150 420 150 420 72 420 c 1,0,-1
EndSplineSet
EndChar

StartChar: eight.numr
Encoding: 65637 -1 536
Width: 480
GlyphClass: 1
Flags: W
LayerCount: 2
Fore
SplineSet
240 402 m 0,0,1
 190 402 190 402 143.5 421.5 c 128,-1,2
 97 441 97 441 68 478 c 128,-1,3
 39 515 39 515 39 567 c 0,4,5
 39 608 39 608 57 641.5 c 128,-1,6
 75 675 75 675 106 697 c 1,7,8
 92 712 92 712 83.5 732 c 128,-1,9
 75 752 75 752 75 776 c 0,10,11
 75 835 75 835 120 876.5 c 128,-1,12
 165 918 165 918 240 918 c 0,13,14
 315 918 315 918 360 882 c 128,-1,15
 405 846 405 846 405 776 c 0,16,17
 405 752 405 752 396.5 732 c 128,-1,18
 388 712 388 712 374 697 c 1,19,20
 405 675 405 675 423 641.5 c 128,-1,21
 441 608 441 608 441 567 c 0,22,23
 441 515 441 515 413.5 478 c 128,-1,24
 386 441 386 441 340.5 421.5 c 128,-1,25
 295 402 295 402 240 402 c 0,0,1
168 582 m 256,26,27
 168 551 168 551 188.5 530.5 c 128,-1,28
 209 510 209 510 240 510 c 256,29,30
 271 510 271 510 291.5 530.5 c 128,-1,31
 312 551 312 551 312 582 c 256,32,33
 312 613 312 613 291.5 633.5 c 128,-1,34
 271 654 271 654 240 654 c 256,35,36
 209 654 209 654 188.5 633.5 c 128,-1,37
 168 613 168 613 168 582 c 256,26,27
189 771 m 0,38,39
 189 750 189 750 204 735 c 128,-1,40
 219 720 219 720 240 720 c 0,41,42
 261 720 261 720 276 735 c 128,-1,43
 291 750 291 750 291 771 c 0,44,45
 291 792 291 792 276 807 c 128,-1,46
 261 822 261 822 240 822 c 0,47,48
 219 822 219 822 204 807 c 128,-1,49
 189 792 189 792 189 771 c 0,38,39
EndSplineSet
EndChar

StartChar: nine.numr
Encoding: 65638 -1 537
Width: 480
GlyphClass: 1
Flags: W
LayerCount: 2
Fore
SplineSet
163 420 m 1,0,-1
 242 558 l 1,1,2
 262 579 262 579 250 577 c 128,-1,3
 238 575 238 575 226 557 c 0,4,5
 175 557 175 557 132.5 580 c 128,-1,6
 90 603 90 603 77 648 c 128,-1,7
 64 693 64 693 64 740 c 0,8,9
 39 786 39 786 75.5 826 c 128,-1,10
 112 866 112 866 152 889 c 128,-1,11
 192 912 192 912 240 918 c 0,12,13
 295 918 295 918 331.5 892.5 c 128,-1,14
 368 867 368 867 404.5 826 c 128,-1,15
 441 785 441 785 416 741 c 0,16,17
 416 699 416 699 418 642 c 2,18,-1
 298 420 l 1,19,-1
 163 420 l 1,0,-1
240 652 m 256,20,21
 278 652 278 652 304 679 c 128,-1,22
 330 706 330 706 330 743 c 256,23,24
 315 765 315 765 296.5 798.5 c 128,-1,25
 278 832 278 832 240 832 c 0,26,27
 209 808 209 808 179.5 794 c 128,-1,28
 150 780 150 780 150 743 c 256,29,30
 165 703 165 703 187 680.5 c 128,-1,31
 209 658 209 658 240 652 c 256,20,21
EndSplineSet
EndChar

StartChar: dek.numr
Encoding: 65639 -1 538
Width: 480
GlyphClass: 1
Flags: W
LayerCount: 2
Fore
SplineSet
251 402 m 0,0,1
 198 402 198 402 156 425 c 128,-1,2
 114 448 114 448 90 487 c 128,-1,3
 66 526 66 526 66 573 c 0,4,5
 66 634 66 634 129 708 c 0,6,7
 146 728 146 728 166 748 c 128,-1,8
 186 768 186 768 211 788 c 1,9,10
 196 787 196 787 180 786.5 c 128,-1,11
 164 786 164 786 147 786 c 2,12,-1
 123 820 123 820 45 786 c 1,13,-1
 66 860 66 860 45 900 c 1,14,-1
 238 900 238 900 435 900 c 1,15,-1
 311 769 311 769 234 651 c 2,16,17
 214 626 214 626 206 610 c 128,-1,18
 198 594 198 594 198 578 c 0,19,20
 198 552 198 552 213.5 537 c 128,-1,21
 229 522 229 522 252 522 c 0,22,23
 278 522 278 522 292.5 538.5 c 128,-1,24
 307 555 307 555 307 579 c 0,25,26
 307 604 307 604 287 630 c 1,27,-1
 355 618 355 618 425 630 c 1,28,29
 430 616 430 616 432.5 604 c 128,-1,30
 435 592 435 592 435 573 c 0,31,32
 435 500 435 500 382.5 451 c 128,-1,33
 330 402 330 402 251 402 c 0,0,1
EndSplineSet
EndChar

StartChar: el.numr
Encoding: 65640 -1 539
Width: 480
GlyphClass: 1
Flags: W
LayerCount: 2
Fore
SplineSet
55 420 m 1,0,-1
 134 515 134 515 158 598 c 1,1,2
 117 621 117 621 94.5 659 c 128,-1,3
 72 697 72 697 72 743 c 0,4,5
 72 794 72 794 99 833.5 c 128,-1,6
 126 873 126 873 172 895.5 c 128,-1,7
 218 918 218 918 274 918 c 0,8,9
 327 918 327 918 369.5 897.5 c 128,-1,10
 412 877 412 877 435 848 c 1,11,-1
 384 797.5 384 797.5 369 736 c 1,12,13
 359 762 359 762 335.5 783 c 128,-1,14
 312 804 312 804 277 804 c 256,15,16
 243 804 243 804 223.5 785.5 c 128,-1,17
 204 767 204 767 204 738 c 0,18,19
 204 714 204 714 221 693 c 128,-1,20
 238 672 238 672 277 672 c 0,21,22
 296 672 296 672 312 677.5 c 128,-1,23
 328 683 328 683 343 690 c 1,24,-1
 264 591.5 264 591.5 253 534 c 1,25,-1
 312 500 312 500 435 534 c 1,26,-1
 414 460 414 460 435 420 c 1,27,-1
 246 420 246 420 55 420 c 1,0,-1
EndSplineSet
EndChar

StartChar: fraction
Encoding: 8260 8260 540
Width: 180
GlyphClass: 1
Flags: W
LayerCount: 2
Fore
SplineSet
-291 0 m 1,0,-1
 15 450 15 450 328 900 c 1,1,-1
 369 900 369 900 470 900 c 1,2,-1
 105 450 105 450 -149 0 c 1,3,-1
 -249 0 -249 0 -291 0 c 1,0,-1
EndSplineSet
EndChar

StartChar: uni27E8
Encoding: 10216 10216 574
Width: 480
GlyphClass: 1
Flags: W
LayerCount: 2
Fore
SplineSet
279 -180 m 1,0,-1
 180 105 180 105 18 390 c 1,1,-1
 180 675 180 675 279 960 c 1,2,-1
 369 960 369 960 450 960 c 1,3,-1
 294 675 294 675 189 390 c 1,4,-1
 294 105 294 105 450 -180 c 1,5,-1
 369 -180 369 -180 279 -180 c 1,0,-1
EndSplineSet
EndChar

StartChar: uni27E9
Encoding: 10217 10217 575
Width: 480
GlyphClass: 1
Flags: W
LayerCount: 2
Fore
SplineSet
30 -180 m 1,0,-1
 186 105 186 105 291 390 c 1,1,-1
 186 675 186 675 30 960 c 1,2,-1
 111 960 111 960 201 960 c 1,3,-1
 300 675 300 675 462 390 c 1,4,-1
 300 105 300 105 201 -180 c 1,5,-1
 111 -180 111 -180 30 -180 c 1,0,-1
EndSplineSet
EndChar

StartChar: period
Encoding: 46 46 576
Width: 270
GlyphClass: 1
Flags: W
LayerCount: 2
Fore
SplineSet
135 -12 m 0,0,1
 104 -20 104 -20 80.5 6.5 c 128,-1,2
 57 33 57 33 57 66 c 256,3,4
 42 134 42 134 72 139 c 128,-1,5
 102 144 102 144 135 144 c 0,6,7
 197 196 197 196 205 147.5 c 128,-1,8
 213 99 213 99 213 66 c 256,9,10
 258 42 258 42 213.5 15 c 128,-1,11
 169 -12 169 -12 135 -12 c 0,0,1
EndSplineSet
EndChar

StartChar: comma
Encoding: 44 44 577
Width: 290
GlyphClass: 1
Flags: W
LayerCount: 2
Fore
SplineSet
-13 -150 m 1,0,1
 30 -88 30 -88 58 -7 c 128,-1,2
 86 74 86 74 86 180 c 1,3,-1
 160 150 160 150 254 180 c 1,4,5
 254 86 254 86 231.5 3 c 128,-1,6
 209 -80 209 -80 162 -150 c 1,7,-1
 66 -150 66 -150 -13 -150 c 1,0,1
EndSplineSet
EndChar

StartChar: ellipsis
Encoding: 8230 8230 580
Width: 1440
GlyphClass: 1
Flags: W
LayerCount: 2
Fore
SplineSet
1200 -12 m 0,0,1
 1156 -20 1156 -20 1125.5 10.5 c 128,-1,2
 1095 41 1095 41 1095 85 c 0,3,4
 1095 129 1095 129 1125.5 159.5 c 128,-1,5
 1156 190 1156 190 1200 138 c 0,6,7
 1232 138 1232 138 1268.5 133.5 c 128,-1,8
 1305 129 1305 129 1305 85 c 0,9,10
 1305 41 1305 41 1268.5 14.5 c 128,-1,11
 1232 -12 1232 -12 1200 -12 c 0,0,1
240 -12 m 0,12,13
 196 -20 196 -20 165.5 10.5 c 128,-1,14
 135 41 135 41 135 85 c 0,15,16
 135 129 135 129 165.5 159.5 c 128,-1,17
 196 190 196 190 240 138 c 0,18,19
 272 138 272 138 308.5 133.5 c 128,-1,20
 345 129 345 129 345 85 c 0,21,22
 345 41 345 41 308.5 14.5 c 128,-1,23
 272 -12 272 -12 240 -12 c 0,12,13
720 -12 m 0,24,25
 676 -20 676 -20 645.5 10.5 c 128,-1,26
 615 41 615 41 615 85 c 0,27,28
 615 129 615 129 645.5 159.5 c 128,-1,29
 676 190 676 190 720 138 c 0,30,31
 752 138 752 138 788.5 133.5 c 128,-1,32
 825 129 825 129 825 85 c 0,33,34
 825 41 825 41 788.5 14.5 c 128,-1,35
 752 -12 752 -12 720 -12 c 0,24,25
EndSplineSet
EndChar

StartChar: exclam
Encoding: 33 33 581
Width: 480
GlyphClass: 1
Flags: W
LayerCount: 2
Fore
SplineSet
174 330 m 1,0,-1
 189 600 189 600 138 900 c 1,1,-1
 240 900 240 900 342 900 c 1,2,-1
 291 600 291 600 306 330 c 1,3,-1
 240 300 240 300 174 330 c 1,0,-1
240 -20 m 0,4,5
 196 -20 196 -20 165.5 10.5 c 128,-1,6
 135 41 135 41 135 85 c 0,7,8
 135 129 135 129 165.5 159.5 c 128,-1,9
 196 190 196 190 240 190 c 0,10,11
 284 190 284 190 314.5 159.5 c 128,-1,12
 345 129 345 129 345 85 c 0,13,14
 345 41 345 41 314.5 10.5 c 128,-1,15
 284 -20 284 -20 240 -20 c 0,4,5
EndSplineSet
EndChar

StartChar: exclamdown
Encoding: 161 161 582
Width: 480
GlyphClass: 1
Flags: W
LayerCount: 2
Fore
SplineSet
138 -300 m 1,0,-1
 189 -2 189 -2 174 270 c 1,1,-1
 240 298 240 298 306 270 c 1,2,-1
 291 -2 291 -2 342 -300 c 1,3,-1
 240 -302 240 -302 138 -300 c 1,0,-1
240 410 m 256,4,5
 196 410 196 410 165.5 440.5 c 128,-1,6
 135 471 135 471 135 515 c 0,7,8
 135 559 135 559 165.5 589.5 c 128,-1,9
 196 620 196 620 240 620 c 256,10,11
 284 620 284 620 314.5 589.5 c 128,-1,12
 345 559 345 559 345 515 c 0,13,14
 345 471 345 471 314.5 440.5 c 128,-1,15
 284 410 284 410 240 410 c 256,4,5
EndSplineSet
EndChar

StartChar: question
Encoding: 63 63 583
Width: 480
GlyphClass: 1
Flags: W
LayerCount: 2
Fore
SplineSet
174 330 m 1,0,1
 174 403 174 403 193 453 c 128,-1,2
 212 503 212 503 237 540.5 c 128,-1,3
 262 578 262 578 281 611 c 128,-1,4
 300 644 300 644 300 681 c 0,5,6
 300 722 300 722 273.5 742 c 128,-1,7
 247 762 247 762 204 762 c 0,8,9
 157 762 157 762 122.5 739 c 128,-1,10
 88 716 88 716 66 690 c 1,11,-1
 90 806 90 806 66 864 c 1,12,13
 101 890 101 890 141 904 c 128,-1,14
 181 918 181 918 230 918 c 0,15,16
 301 918 301 918 353 890 c 128,-1,17
 405 862 405 862 433.5 813 c 128,-1,18
 462 764 462 764 462 700 c 0,19,20
 462 640 462 640 441 593.5 c 128,-1,21
 420 547 420 547 391 507 c 128,-1,22
 362 467 362 467 337.5 425 c 128,-1,23
 313 383 313 383 306 330 c 1,24,-1
 240 300 240 300 174 330 c 1,0,1
240 -20 m 0,25,26
 196 -20 196 -20 165.5 10.5 c 128,-1,27
 135 41 135 41 135 85 c 0,28,29
 135 129 135 129 165.5 159.5 c 128,-1,30
 196 190 196 190 240 190 c 0,31,32
 284 190 284 190 314.5 159.5 c 128,-1,33
 345 129 345 129 345 85 c 0,34,35
 345 41 345 41 314.5 10.5 c 128,-1,36
 284 -20 284 -20 240 -20 c 0,25,26
EndSplineSet
EndChar

StartChar: questiondown
Encoding: 191 191 584
Width: 480
GlyphClass: 1
Flags: W
LayerCount: 2
Fore
SplineSet
250 -320 m 0,0,1
 180 -320 180 -320 127.5 -292 c 128,-1,2
 75 -264 75 -264 46.5 -215 c 128,-1,3
 18 -166 18 -166 18 -102 c 256,4,5
 18 -42 18 -42 39 4.5 c 128,-1,6
 60 51 60 51 89 91 c 128,-1,7
 118 131 118 131 142.5 173.5 c 128,-1,8
 167 216 167 216 174 268 c 1,9,-1
 240 300 240 300 306 268 c 1,10,11
 306 195 306 195 287 145 c 128,-1,12
 268 95 268 95 243 57.5 c 128,-1,13
 218 20 218 20 199 -12.5 c 128,-1,14
 180 -45 180 -45 180 -83 c 0,15,16
 180 -123 180 -123 206.5 -143.5 c 128,-1,17
 233 -164 233 -164 276 -164 c 0,18,19
 323 -164 323 -164 357.5 -140.5 c 128,-1,20
 392 -117 392 -117 414 -92 c 1,21,-1
 390 -206 390 -206 414 -266 c 1,22,23
 380 -291 380 -291 339.5 -305.5 c 128,-1,24
 299 -320 299 -320 250 -320 c 0,0,1
240 408 m 256,25,26
 196 408 196 408 165.5 438.5 c 128,-1,27
 135 469 135 469 135 513 c 0,28,29
 135 557 135 557 165.5 587.5 c 128,-1,30
 196 618 196 618 240 618 c 256,31,32
 284 618 284 618 314.5 587.5 c 128,-1,33
 345 557 345 557 345 513 c 0,34,35
 345 469 345 469 314.5 438.5 c 128,-1,36
 284 408 284 408 240 408 c 256,25,26
EndSplineSet
EndChar

StartChar: bullet
Encoding: 8226 8226 586
Width: 480
GlyphClass: 1
Flags: W
LayerCount: 2
Fore
SplineSet
240 294 m 0,0,1
 176 294 176 294 130 340 c 128,-1,2
 84 386 84 386 84 450 c 0,3,4
 84 515 84 515 130 560.5 c 128,-1,5
 176 606 176 606 240 606 c 0,6,7
 305 606 305 606 350.5 560.5 c 128,-1,8
 396 515 396 515 396 450 c 0,9,10
 396 386 396 386 350.5 340 c 128,-1,11
 305 294 305 294 240 294 c 0,0,1
EndSplineSet
EndChar

StartChar: asterisk
Encoding: 42 42 587
Width: 600
GlyphClass: 1
Flags: W
LayerCount: 2
Fore
SplineSet
208 393 m 1,0,-1
 150.5 435.5 150.5 435.5 93 478 c 1,1,-1
 178 544 178 544 216 615 c 1,2,-1
 143 650 143 650 35 653 c 1,3,-1
 57 721.5 57 721.5 80 790 c 1,4,-1
 168.5 729 168.5 729 248 715 c 1,5,-1
 258.5 795.5 258.5 795.5 228 900 c 1,6,-1
 300 900 300 900 372 900 c 1,7,-1
 341.5 795.5 341.5 795.5 353 715 c 1,8,-1
 431.5 729 431.5 729 521 790 c 1,9,-1
 543 721.5 543 721.5 566 653 c 1,10,-1
 457 650 457 650 384 615 c 1,11,-1
 422 544 422 544 507 478 c 1,12,-1
 449.5 435.5 449.5 435.5 392 393 c 1,13,-1
 355.5 494.5 355.5 494.5 300 552 c 1,14,-1
 244.5 494.5 244.5 494.5 208 393 c 1,0,-1
EndSplineSet
EndChar

StartChar: uni2016
Encoding: 8214 8214 589
Width: 480
GlyphClass: 1
Flags: W
LayerCount: 2
Fore
SplineSet
303 -180 m 1,0,-1
 327 390 327 390 303 960 c 1,1,-1
 360 960 360 960 417 960 c 1,2,-1
 393 390 393 390 417 -180 c 1,3,-1
 360 -180 360 -180 303 -180 c 1,0,-1
63 -180 m 1,4,-1
 87 390 87 390 63 960 c 1,5,-1
 120 960 120 960 177 960 c 1,6,-1
 153 390 153 390 177 -180 c 1,7,-1
 120 -180 120 -180 63 -180 c 1,4,-1
EndSplineSet
EndChar

StartChar: numbersign
Encoding: 35 35 590
Width: 750
GlyphClass: 1
Flags: W
LayerCount: 2
Fore
SplineSet
76 0 m 1,0,-1
 129.5 117 129.5 117 111 210 c 1,1,-1
 93 234 93 234 13 210 c 1,2,-1
 44 276 44 276 35 342 c 1,3,-1
 107 318 107 318 133 342 c 1,4,-1
 185 450 185 450 169 558 c 1,5,-1
 149 582 149 582 67 558 c 1,6,-1
 98 624 98 624 89 690 c 1,7,-1
 163 666 163 666 191 690 c 1,8,-1
 240.5 783 240.5 783 226 900 c 1,9,-1
 308 900 308 900 370 900 c 1,10,-1
 336.5 783 336.5 783 335 690 c 1,11,-1
 410 666 410 666 493 690 c 1,12,-1
 522.5 783 522.5 783 528 900 c 1,13,-1
 590 900 590 900 672 900 c 1,14,-1
 618.5 783 618.5 783 637 690 c 1,15,-1
 656 666 656 666 737 690 c 1,16,-1
 706 624 706 624 715 558 c 1,17,-1
 642 582 642 582 615 558 c 1,18,-1
 563 450 563 450 579 342 c 1,19,-1
 600 318 600 318 683 342 c 1,20,-1
 652 276 652 276 661 210 c 1,21,-1
 586 234 586 234 557 210 c 1,22,-1
 507.5 117 507.5 117 522 0 c 1,23,-1
 440 0 440 0 378 0 c 1,24,-1
 411.5 117 411.5 117 413 210 c 1,25,-1
 338 234 338 234 255 210 c 1,26,-1
 225.5 117 225.5 117 220 0 c 1,27,-1
 158 0 158 0 76 0 c 1,0,-1
268 334 m 1,28,-1
 351 314 351 314 442 334 c 1,29,-1
 471 450 471 450 480 566 c 1,30,-1
 397 586 397 586 306 566 c 1,31,-1
 277 450 277 450 268 334 c 1,28,-1
EndSplineSet
EndChar

StartChar: slash
Encoding: 47 47 591
Width: 520
GlyphClass: 1
Flags: W
LayerCount: 2
Fore
SplineSet
-80 -180 m 1,0,-1
 189 390 189 390 447 960 c 1,1,-1
 513 960 513 960 600 960 c 1,2,-1
 291 390 291 390 73 -180 c 1,3,-1
 -33 -180 -33 -180 -80 -180 c 1,0,-1
EndSplineSet
EndChar

StartChar: backslash
Encoding: 92 92 592
Width: 520
GlyphClass: 1
Flags: W
LayerCount: 2
Fore
SplineSet
447 -180 m 1,0,-1
 189 390 189 390 -80 960 c 1,1,-1
 -33 960 -33 960 74 960 c 1,2,-1
 291 390 291 390 600 -180 c 1,3,-1
 513 -180 513 -180 447 -180 c 1,0,-1
EndSplineSet
EndChar

StartChar: periodcentered.loclCAT
Encoding: 65647 -1 595
Width: 360
GlyphClass: 1
Flags: W
LayerCount: 2
Fore
SplineSet
180 378 m 0,0,1
 141 357 141 357 124.5 388.5 c 128,-1,2
 108 420 108 420 108 450 c 0,3,4
 87 490 87 490 118.5 506 c 128,-1,5
 150 522 150 522 180 522 c 0,6,7
 220 543 220 543 236 512 c 128,-1,8
 252 481 252 481 252 450 c 0,9,10
 273 411 273 411 242 394.5 c 128,-1,11
 211 378 211 378 180 378 c 0,0,1
EndSplineSet
EndChar

StartChar: periodcentered.loclCAT.case
Encoding: 65648 -1 596
Width: 360
GlyphClass: 1
Flags: W
LayerCount: 2
Fore
SplineSet
180 378 m 0,0,1
 141 357 141 357 124.5 388.5 c 128,-1,2
 108 420 108 420 108 450 c 0,3,4
 87 490 87 490 118.5 506 c 128,-1,5
 150 522 150 522 180 522 c 0,6,7
 220 543 220 543 236 512 c 128,-1,8
 252 481 252 481 252 450 c 0,9,10
 273 411 273 411 242 394.5 c 128,-1,11
 211 378 211 378 180 378 c 0,0,1
EndSplineSet
EndChar

StartChar: hyphen
Encoding: 45 45 597
Width: 360
GlyphClass: 1
Flags: W
LayerCount: 2
Fore
SplineSet
30 252 m 1,0,-1
 30 372 l 1,1,-1
 330 348 l 1,2,-1
 350 228 l 1,3,-1
 30 252 l 1,0,-1
EndSplineSet
EndChar

StartChar: endash
Encoding: 8211 8211 598
Width: 720
GlyphClass: 1
Flags: W
LayerCount: 2
Fore
SplineSet
60 252 m 1,0,-1
 50 372 l 1,1,-1
 660 348 l 1,2,-1
 670 228 l 1,3,-1
 60 252 l 1,0,-1
EndSplineSet
EndChar

StartChar: threequarteremdash
Encoding: 65649 -1 599
Width: 1080
GlyphClass: 1
Flags: W
LayerCount: 2
Fore
SplineSet
60 225 m 1,0,-1
 60 300 60 300 60 375 c 1,1,-1
 540 351 540 351 1020 375 c 1,2,-1
 1020 300 1020 300 1020 225 c 1,3,-1
 540 249 540 249 60 225 c 1,0,-1
EndSplineSet
EndChar

StartChar: emdash
Encoding: 8212 8212 600
Width: 1440
GlyphClass: 1
Flags: W
LayerCount: 2
Fore
SplineSet
60 225 m 1,0,-1
 60 300 60 300 60 375 c 1,1,-1
 720 351 720 351 1380 375 c 1,2,-1
 1380 300 1380 300 1380 225 c 1,3,-1
 720 249 720 249 60 225 c 1,0,-1
EndSplineSet
EndChar

StartChar: underscore
Encoding: 95 95 602
Width: 750
GlyphClass: 1
Flags: W
LayerCount: 2
Fore
SplineSet
-6 -201 m 1,0,-1
 -6 -135 -6 -135 -6 -69 c 1,1,-1
 375 -90 375 -90 756 -69 c 1,2,-1
 756 -135 756 -135 756 -201 c 1,3,-1
 375 -180 375 -180 -6 -201 c 1,0,-1
EndSplineSet
EndChar

StartChar: hyphen.case
Encoding: 65650 -1 603
Width: 360
GlyphClass: 1
Flags: W
LayerCount: 2
Fore
SplineSet
30 402 m 1,0,-1
 30 522 l 1,1,-1
 330 498 l 1,2,-1
 350 378 l 1,3,-1
 30 402 l 1,0,-1
EndSplineSet
EndChar

StartChar: endash.case
Encoding: 65651 -1 604
Width: 720
GlyphClass: 1
Flags: W
LayerCount: 2
Fore
SplineSet
60 402 m 1,0,-1
 50 522 l 1,1,-1
 660 498 l 1,2,-1
 670 378 l 1,3,-1
 60 402 l 1,0,-1
EndSplineSet
EndChar

StartChar: threequarteremdash.case
Encoding: 65652 -1 605
Width: 1080
GlyphClass: 1
Flags: W
LayerCount: 2
Fore
SplineSet
60 375 m 1,0,-1
 60 450 60 450 60 525 c 1,1,-1
 540 501 540 501 1020 525 c 1,2,-1
 1020 450 1020 450 1020 375 c 1,3,-1
 540 399 540 399 60 375 c 1,0,-1
EndSplineSet
EndChar

StartChar: emdash.case
Encoding: 65653 -1 606
Width: 1440
GlyphClass: 1
Flags: W
LayerCount: 2
Fore
SplineSet
60 375 m 1,0,-1
 60 450 60 450 60 525 c 1,1,-1
 720 501 720 501 1380 525 c 1,2,-1
 1380 450 1380 450 1380 375 c 1,3,-1
 720 399 720 399 60 375 c 1,0,-1
EndSplineSet
EndChar

StartChar: parenleft
Encoding: 40 40 608
Width: 480
GlyphClass: 1
Flags: W
LayerCount: 2
Fore
SplineSet
269 -180 m 1,0,1
 193 -55 193 -55 150.5 89.5 c 128,-1,2
 108 234 108 234 108 390 c 256,3,4
 108 546 108 546 150.5 690.5 c 128,-1,5
 193 835 193 835 245 960 c 1,6,-1
 390 960 l 1,7,8
 337 839 337 839 276.5 695 c 128,-1,9
 216 551 216 551 216 390 c 0,10,11
 216 230 216 230 261.5 85.5 c 128,-1,12
 307 -59 307 -59 420 -180 c 1,13,-1
 269 -180 l 1,0,1
EndSplineSet
EndChar

StartChar: parenright
Encoding: 41 41 609
Width: 480
GlyphClass: 1
Flags: W
LayerCount: 2
Fore
SplineSet
84 -180 m 1,0,1
 143 -59 143 -59 200.5 85.5 c 128,-1,2
 258 230 258 230 258 390 c 0,3,4
 258 551 258 551 212.5 695 c 128,-1,5
 167 839 167 839 60 960 c 1,6,-1
 205 960 l 1,7,8
 282 835 282 835 324 690.5 c 128,-1,9
 366 546 366 546 366 390 c 256,10,11
 366 234 366 234 324 89.5 c 128,-1,12
 282 -55 282 -55 235 -180 c 1,13,-1
 84 -180 l 1,0,1
EndSplineSet
EndChar

StartChar: braceleft
Encoding: 123 123 610
Width: 480
GlyphClass: 1
Flags: W
LayerCount: 2
Fore
SplineSet
420 -186 m 1,0,1
 338 -186 338 -186 270.5 -160.5 c 128,-1,2
 203 -135 203 -135 163 -81.5 c 128,-1,3
 123 -28 123 -28 123 55 c 0,4,5
 123 101 123 101 132 146 c 128,-1,6
 141 191 141 191 141 232 c 0,7,8
 141 297 141 297 109.5 330 c 128,-1,9
 78 363 78 363 24 390 c 1,10,11
 78 417 78 417 109.5 450 c 128,-1,12
 141 483 141 483 141 548 c 0,13,14
 141 589 141 589 132 634 c 128,-1,15
 123 679 123 679 123 725 c 0,16,17
 123 808 123 808 163 861.5 c 128,-1,18
 203 915 203 915 270.5 940.5 c 128,-1,19
 338 966 338 966 420 966 c 1,20,-1
 420 834 l 1,21,22
 384 834 384 834 350 825 c 128,-1,23
 316 816 316 816 294.5 789 c 128,-1,24
 273 762 273 762 273 708 c 0,25,26
 273 668 273 668 282 622 c 128,-1,27
 291 576 291 576 291 533 c 0,28,29
 291 475 291 475 269 441 c 128,-1,30
 247 407 247 407 212 390 c 1,31,32
 247 373 247 373 269 339 c 128,-1,33
 291 305 291 305 291 247 c 0,34,35
 291 204 291 204 282 158 c 128,-1,36
 273 112 273 112 273 72 c 0,37,38
 273 18 273 18 294.5 -9 c 128,-1,39
 316 -36 316 -36 350 -45 c 128,-1,40
 384 -54 384 -54 420 -54 c 1,41,-1
 420 -186 l 1,0,1
EndSplineSet
EndChar

StartChar: braceright
Encoding: 125 125 611
Width: 480
GlyphClass: 1
Flags: W
LayerCount: 2
Fore
SplineSet
60 -186 m 1,0,-1
 60 -54 l 1,1,2
 96 -54 96 -54 130 -45 c 128,-1,3
 164 -36 164 -36 185.5 -9 c 128,-1,4
 207 18 207 18 207 72 c 0,5,6
 207 112 207 112 198 158 c 128,-1,7
 189 204 189 204 189 247 c 0,8,9
 189 305 189 305 211.5 339 c 128,-1,10
 234 373 234 373 268 390 c 1,11,12
 234 407 234 407 211.5 441 c 128,-1,13
 189 475 189 475 189 533 c 0,14,15
 189 576 189 576 198 622 c 128,-1,16
 207 668 207 668 207 708 c 0,17,18
 207 762 207 762 185.5 789 c 128,-1,19
 164 816 164 816 130 825 c 128,-1,20
 96 834 96 834 60 834 c 1,21,-1
 60 966 l 1,22,23
 143 966 143 966 210 940.5 c 128,-1,24
 277 915 277 915 317 861.5 c 128,-1,25
 357 808 357 808 357 725 c 0,26,27
 357 679 357 679 348 634 c 128,-1,28
 339 589 339 589 339 548 c 0,29,30
 339 483 339 483 370.5 450 c 128,-1,31
 402 417 402 417 456 390 c 1,32,33
 402 363 402 363 370.5 330 c 128,-1,34
 339 297 339 297 339 232 c 0,35,36
 339 191 339 191 348 146 c 128,-1,37
 357 101 357 101 357 55 c 0,38,39
 357 -28 357 -28 317 -81.5 c 128,-1,40
 277 -135 277 -135 210 -160.5 c 128,-1,41
 143 -186 143 -186 60 -186 c 1,0,-1
EndSplineSet
EndChar

StartChar: bracketleft
Encoding: 91 91 612
Width: 480
GlyphClass: 1
Flags: W
LayerCount: 2
Fore
SplineSet
90 -180 m 1,0,-1
 120 390 120 390 90 960 c 1,1,-1
 420 960 l 1,2,-1
 420 828 l 1,3,-1
 321 870 321 870 240 828 c 1,4,-1
 222 390 222 390 240 -48 c 1,5,-1
 321 -90 321 -90 420 -48 c 1,6,-1
 420 -180 l 1,7,-1
 90 -180 l 1,0,-1
EndSplineSet
EndChar

StartChar: bracketright
Encoding: 93 93 613
Width: 480
GlyphClass: 1
Flags: W
LayerCount: 2
Fore
SplineSet
60 -180 m 1,0,-1
 60 -48 l 1,1,-1
 258 -90 l 1,2,-1
 240 828 l 1,3,-1
 60 870 l 1,4,-1
 60 960 l 1,5,-1
 360 960 l 1,6,-1
 390 -180 l 1,7,-1
 60 -180 l 1,0,-1
EndSplineSet
EndChar

StartChar: parenleft.dnom
Encoding: 65655 -1 614
Width: 320
GlyphClass: 1
Flags: W
LayerCount: 2
Fore
SplineSet
211 -120 m 1,0,1
 162 -40 162 -40 135 51.5 c 128,-1,2
 108 143 108 143 108 241 c 0,3,4
 108 338 108 338 135 429 c 128,-1,5
 162 520 162 520 187 600 c 1,6,-1
 314 600 l 1,7,8
 261 524 261 524 232 433 c 128,-1,9
 203 342 203 342 194 241 c 0,10,11
 203 139 203 139 232 48 c 128,-1,12
 261 -43 261 -43 314 -120 c 1,13,-1
 211 -120 l 1,0,1
EndSplineSet
EndChar

StartChar: parenright.dnom
Encoding: 65656 -1 615
Width: 320
GlyphClass: 1
Flags: W
LayerCount: 2
Fore
SplineSet
6 -120 m 1,0,1
 67 -43 67 -43 96 48 c 128,-1,2
 125 139 125 139 125 240 c 256,3,4
 117 342 117 342 88 432.5 c 128,-1,5
 59 523 59 523 14 600 c 1,6,-1
 133 600 l 1,7,8
 183 519 183 519 197.5 428.5 c 128,-1,9
 212 338 212 338 236 241 c 0,10,11
 212 143 212 143 185.5 51.5 c 128,-1,12
 159 -40 159 -40 133 -120 c 1,13,-1
 6 -120 l 1,0,1
EndSplineSet
EndChar

StartChar: parenleft.numr
Encoding: 65657 -1 616
Width: 320
GlyphClass: 1
Flags: W
LayerCount: 2
Fore
SplineSet
211 300 m 1,0,1
 162 380 162 380 135 471.5 c 128,-1,2
 108 563 108 563 108 661 c 0,3,4
 108 758 108 758 135 849 c 128,-1,5
 162 940 162 940 187 1020 c 1,6,-1
 314 1020 l 1,7,8
 261 944 261 944 232 853 c 128,-1,9
 203 762 203 762 194 661 c 0,10,11
 203 559 203 559 232 468 c 128,-1,12
 261 377 261 377 314 300 c 1,13,-1
 211 300 l 1,0,1
EndSplineSet
EndChar

StartChar: parenright.numr
Encoding: 65658 -1 617
Width: 320
GlyphClass: 1
Flags: W
LayerCount: 2
Fore
SplineSet
6 300 m 1,0,1
 67 377 67 377 96 468 c 128,-1,2
 125 559 125 559 125 660 c 256,3,4
 117 762 117 762 88 852.5 c 128,-1,5
 59 943 59 943 14 1020 c 1,6,-1
 133 1020 l 1,7,8
 183 939 183 939 197.5 848.5 c 128,-1,9
 212 758 212 758 236 661 c 0,10,11
 212 563 212 563 185.5 471.5 c 128,-1,12
 159 380 159 380 133 300 c 1,13,-1
 6 300 l 1,0,1
EndSplineSet
EndChar

StartChar: quotesinglbase
Encoding: 8218 8218 622
Width: 300
GlyphClass: 1
Flags: W
LayerCount: 2
Fore
SplineSet
-13 -150 m 1,0,1
 30 -88 30 -88 58 -7 c 128,-1,2
 86 74 86 74 86 180 c 1,3,-1
 160 150 160 150 254 180 c 1,4,5
 254 86 254 86 231.5 3 c 128,-1,6
 209 -80 209 -80 162 -150 c 1,7,-1
 66 -150 66 -150 -13 -150 c 1,0,1
EndSplineSet
EndChar

StartChar: quoteleft
Encoding: 8216 8216 626
Width: 300
GlyphClass: 1
Flags: W
LayerCount: 2
Fore
SplineSet
46 570 m 1,0,1
 46 665 46 665 69 747.5 c 128,-1,2
 92 830 92 830 138 900 c 1,3,-1
 204 900 204 900 313 900 c 1,4,5
 270 839 270 839 242 757.5 c 128,-1,6
 214 676 214 676 214 570 c 1,7,-1
 110 600 110 600 46 570 c 1,0,1
EndSplineSet
EndChar

StartChar: quoteright
Encoding: 8217 8217 627
Width: 300
GlyphClass: 1
Flags: W
LayerCount: 2
Fore
SplineSet
-13 570 m 1,0,1
 30 632 30 632 58 713 c 128,-1,2
 86 794 86 794 86 900 c 1,3,-1
 160 900 160 900 254 900 c 1,4,5
 254 806 254 806 231.5 723 c 128,-1,6
 209 640 209 640 162 570 c 1,7,-1
 66 600 66 600 -13 570 c 1,0,1
EndSplineSet
EndChar

StartChar: guilsinglleft
Encoding: 8249 8249 630
Width: 420
GlyphClass: 1
Flags: W
LayerCount: 2
Fore
SplineSet
197 120 m 1,0,-1
 6 300 l 1,1,-1
 197 481 l 1,2,-1
 264 480 264 480 402 481 c 1,3,-1
 234 390 234 390 211 300 c 1,4,-1
 234 210 234 210 402 120 c 1,5,-1
 264 120 264 120 197 120 c 1,0,-1
EndSplineSet
EndChar

StartChar: guilsinglright
Encoding: 8250 8250 631
Width: 420
GlyphClass: 1
Flags: W
LayerCount: 2
Fore
SplineSet
18 120 m 1,0,-1
 126 210 126 210 209 301 c 1,1,-1
 126 390 126 390 18 481 c 1,2,-1
 96 480 96 480 223 481 c 1,3,-1
 258 390 258 390 414 301 c 1,4,-1
 258 210 258 210 223 120 c 1,5,-1
 96 120 96 120 18 120 c 1,0,-1
EndSplineSet
EndChar

StartChar: quotesingle
Encoding: 39 39 633
Width: 290
GlyphClass: 1
Flags: W
LayerCount: 2
Fore
SplineSet
103 540 m 1,0,-1
 90 735 90 735 43 900 c 1,1,-1
 135 900 135 900 247 900 c 1,2,-1
 180 735 180 735 187 540 c 1,3,-1
 135 570 135 570 103 540 c 1,0,-1
EndSplineSet
EndChar

StartChar: guilsinglleft.case
Encoding: 65661 -1 636
Width: 420
GlyphClass: 1
Flags: W
LayerCount: 2
Fore
SplineSet
197 270 m 1,0,-1
 6 450 l 1,1,-1
 197 631 l 1,2,-1
 264 630 264 630 402 631 c 1,3,-1
 234 540 234 540 211 450 c 1,4,-1
 234 360 234 360 402 270 c 1,5,-1
 264 270 264 270 197 270 c 1,0,-1
EndSplineSet
EndChar

StartChar: guilsinglright.case
Encoding: 65662 -1 637
Width: 420
GlyphClass: 1
Flags: W
LayerCount: 2
Fore
SplineSet
18 270 m 1,0,-1
 126 360 126 360 209 451 c 1,1,-1
 126 540 126 540 18 631 c 1,2,-1
 96 630 96 630 223 631 c 1,3,-1
 258 540 258 540 414 451 c 1,4,-1
 258 360 258 360 223 270 c 1,5,-1
 96 270 96 270 18 270 c 1,0,-1
EndSplineSet
EndChar

StartChar: at
Encoding: 64 64 638
Width: 1260
GlyphClass: 1
Flags: W
LayerCount: 2
Fore
SplineSet
648 -192 m 0,0,1
 527 -192 527 -192 422 -150 c 128,-1,2
 317 -108 317 -108 237.5 -33 c 128,-1,3
 158 42 158 42 113 142 c 128,-1,4
 68 242 68 242 68 357 c 0,5,6
 68 472 68 472 113 572.5 c 128,-1,7
 158 673 158 673 238 749.5 c 128,-1,8
 318 826 318 826 424.5 869 c 128,-1,9
 531 912 531 912 654 912 c 0,10,11
 769 912 769 912 868.5 874 c 128,-1,12
 968 836 968 836 1043.5 768 c 128,-1,13
 1119 700 1119 700 1161.5 607.5 c 128,-1,14
 1204 515 1204 515 1204 405 c 0,15,16
 1204 301 1204 301 1167.5 227 c 128,-1,17
 1131 153 1131 153 1072 114.5 c 128,-1,18
 1013 76 1013 76 945 76 c 0,19,20
 893 76 893 76 853.5 98 c 128,-1,21
 814 120 814 120 793 155 c 1,22,23
 756 118 756 118 707 97 c 128,-1,24
 658 76 658 76 601 76 c 0,25,26
 525 76 525 76 463 114.5 c 128,-1,27
 401 153 401 153 364 217.5 c 128,-1,28
 327 282 327 282 327 360 c 0,29,30
 327 438 327 438 364 502.5 c 128,-1,31
 401 567 401 567 463 605.5 c 128,-1,32
 525 644 525 644 601 644 c 0,33,34
 647 644 647 644 688 630.5 c 128,-1,35
 729 617 729 617 763 592 c 1,36,-1
 798 595 798 595 763 630 c 1,37,-1
 843.5 630 843.5 630 900 630 c 1,38,-1
 889 439 889 439 900 267 c 2,39,40
 900 226 900 226 916.5 208.5 c 128,-1,41
 933 191 933 191 956 191 c 0,42,43
 1000 191 1000 191 1029 245 c 128,-1,44
 1058 299 1058 299 1058 389 c 0,45,46
 1058 502 1058 502 1009.5 590.5 c 128,-1,47
 961 679 961 679 871.5 729.5 c 128,-1,48
 782 780 782 780 660 780 c 0,49,50
 563 780 563 780 481 747.5 c 128,-1,51
 399 715 399 715 339.5 657 c 128,-1,52
 280 599 280 599 247 522.5 c 128,-1,53
 214 446 214 446 214 358 c 256,54,55
 214 270 214 270 247 194 c 128,-1,56
 280 118 280 118 339.5 61 c 128,-1,57
 399 4 399 4 479 -28 c 128,-1,58
 559 -60 559 -60 653 -60 c 0,59,60
 822 -60 822 -60 951 40 c 1,61,-1
 984 -86 l 1,62,63
 914 -137 914 -137 829 -164.5 c 128,-1,64
 744 -192 744 -192 648 -192 c 0,0,1
627 214 m 256,65,66
 667 214 667 214 699 233.5 c 128,-1,67
 731 253 731 253 750 286.5 c 128,-1,68
 769 320 769 320 769 360 c 256,69,70
 769 401 769 401 750 434 c 128,-1,71
 731 467 731 467 699 486.5 c 128,-1,72
 667 506 667 506 627 506 c 256,73,74
 588 506 588 506 555.5 486.5 c 128,-1,75
 523 467 523 467 504 434 c 128,-1,76
 485 401 485 401 485 360 c 256,77,78
 485 320 485 320 504 286.5 c 128,-1,79
 523 253 523 253 555.5 233.5 c 128,-1,80
 588 214 588 214 627 214 c 256,65,66
EndSplineSet
EndChar

